<mxfile host="65bd71144e">
    <diagram id="HeyBfnORShcsP-lYeVpm" name="ページ1">
        <mxGraphModel dx="7176" dy="2953" grid="1" gridSize="10" guides="1" tooltips="1" connect="1" arrows="1" fold="1" page="1" pageScale="1" pageWidth="1169" pageHeight="827" math="0" shadow="0" adaptiveColors="auto">
            <root>
                <mxCell id="0"/>
                <mxCell id="1" parent="0"/>
                <UserObject label="" mermaidData="{&#xa;  &quot;data&quot;: &quot;graph TD\n    A[\&quot;QuotationManagementWindow 起動\&quot;] --&gt; B[\&quot;初期化処理 (init)\&quot;]\n    B --&gt; C[\&quot;ウィンドウ設定 (タイトル, サイズ)\&quot;]\n    B --&gt; D[\&quot;DatabaseOperations インスタンス生成\&quot;]\n    B --&gt; E[\&quot;UI部品作成 (create_widgets)\&quot;]\n    E --&gt; E1[\&quot;案件名ドロップダウン作成\&quot;]\n    E --&gt; E2[\&quot;顧客名ドロップダウン作成\&quot;]\n    E --&gt; E3[\&quot;金額入力欄など作成\&quot;]\n    E --&gt; E4[\&quot;追加/更新/削除/クリアボタン作成\&quot;]\n    E --&gt; E5[\&quot;見積もり一覧リストボックス作成\&quot;]\n    E --&gt; E6[\&quot;見積もり詳細表示エリア作成\&quot;]\n    B --&gt; F[\&quot;初期データ読み込み\&quot;]\n    F --&gt; G[\&quot;案件情報読み込み (load_projects)\&quot;]\n    G --&gt; G1[\&quot;DBから案件取得\&quot;]\n    G1 --&gt; G2[\&quot;案件ドロップダウンに設定\&quot;]\n    F --&gt; H[\&quot;顧客情報読み込み (load_customers)\&quot;]\n    H --&gt; H1[\&quot;DBから顧客取得\&quot;]\n    H1 --&gt; H2[\&quot;顧客ドロップダウンに設定\&quot;]\n    F --&gt; I[\&quot;見積もり一覧読み込み (load_quotations)\&quot;]\n    I --&gt; I1[\&quot;DBから見積もり取得\&quot;]\n    I1 --&gt; I2[\&quot;見積もり一覧リストボックスに表示\&quot;]\n    I2 --&gt; J[\&quot;ユーザー操作待機\&quot;]\n\n    J --&gt; K[\&quot;操作: 見積もり追加ボタン クリック\&quot;]\n    K -- はい --&gt; L[\&quot;入力値取得 (add_quotation)\&quot;]\n    L --&gt; M[\&quot;DBに見積もり情報保存\&quot;]\n    M --&gt; I\n\n    J --&gt; N[\&quot;操作: 見積もり更新ボタン クリック\&quot;]\n    N -- はい --&gt; O[\&quot;選択見積もりIDと入力値取得 (update_quotation)\&quot;]\n    O --&gt; P[\&quot;DBの見積もり情報更新\&quot;]\n    P --&gt; I\n\n    J --&gt; Q[\&quot;操作: 見積もり削除ボタン クリック\&quot;]\n    Q -- はい --&gt; R[\&quot;選択見積もりID取得 (delete_quotation)\&quot;]\n    R --&gt; S[\&quot;DBから見積もり情報削除\&quot;]\n    S --&gt; I\n\n    J --&gt; T[\&quot;操作: クリアボタン クリック\&quot;]\n    T -- はい --&gt; U[\&quot;入力欄クリア (clear_entries)\&quot;]\n    U --&gt; U1[\&quot;詳細表示エリアクリア\&quot;]\n    U1 --&gt; J\n\n    J --&gt; V[\&quot;操作: 一覧から見積もり選択\&quot;]\n    V -- はい --&gt; W[\&quot;選択見積もり情報取得 (on_quotation_select)\&quot;]\n    W --&gt; X[\&quot;入力欄に情報表示\&quot;]\n    W --&gt; Y[\&quot;詳細表示エリアに情報表示 (show_quotation_details)\&quot;]\n    Y --&gt; J\n\n    subgraph DB [\&quot;データベース (SQLite)\&quot;]\n        direction LR\n        DB_Projects[\&quot;案件テーブル\&quot;]\n        DB_Customers[\&quot;顧客テーブル\&quot;]\n        DB_Quotations[\&quot;見積もりテーブル\&quot;]\n    end\n\n    G1 --&gt; DB_Projects\n    H1 --&gt; DB_Customers\n    I1 --&gt; DB_Quotations\n    M --&gt; DB_Quotations\n    P --&gt; DB_Quotations\n    S --&gt; DB_Quotations\n    Y --&gt; DB_Quotations\n\n    classDef default fill:#f9f,stroke:#333,stroke-width:2px\n    classDef process fill:#ccf,stroke:#333,stroke-width:2px\n    classDef db fill:#cfc,stroke:#333,stroke-width:2px\n    classDef io fill:#fcc,stroke:#333,stroke-width:2px\n\n    class A,B,C,D,E,F,J process\n    class E1,E2,E3,E4,E5,E6 process\n    class G,H,I process\n    class G1,G2,H1,H2,I1,I2 process\n    class K,N,Q,T,V io\n    class L,M,O,P,R,S,U,U1,W,X,Y process\n    class DB_Projects,DB_Customers,DB_Quotations db&quot;&#xa;}" id="2">
                    <mxCell style="shape=image;noLabel=1;verticalAlign=top;imageAspect=1;image=data:image/svg+xml,PHN2ZyBhcmlhLXJvbGVkZXNjcmlwdGlvbj0iZmxvd2NoYXJ0LXYyIiByb2xlPSJncmFwaGljcy1kb2N1bWVudCBkb2N1bWVudCIgdmlld0JveD0iMCAwIDQ5OTEuMjY1NjI1IDEzNTEiIHN0eWxlPSJtYXgtd2lkdGg6IDQ5OTEuMjY1NjI1cHg7IiBjbGFzcz0iZmxvd2NoYXJ0IiB4bWxucz0iaHR0cDovL3d3dy53My5vcmcvMjAwMC9zdmciIHdpZHRoPSIxMDAlIiBpZD0iZ2VNZXJtYWlkT3V0cHV0LTE3NDc2MjAyNTkxMTkiPjxzdHlsZT4jZ2VNZXJtYWlkT3V0cHV0LTE3NDc2MjAyNTkxMTl7Zm9udC1mYW1pbHk6InRyZWJ1Y2hldCBtcyIsdmVyZGFuYSxhcmlhbCxzYW5zLXNlcmlmO2ZvbnQtc2l6ZToxNnB4O2ZpbGw6IzAwMDAwMDt9I2dlTWVybWFpZE91dHB1dC0xNzQ3NjIwMjU5MTE5IC5lcnJvci1pY29ue2ZpbGw6IzU1MjIyMjt9I2dlTWVybWFpZE91dHB1dC0xNzQ3NjIwMjU5MTE5IC5lcnJvci10ZXh0e2ZpbGw6IzU1MjIyMjtzdHJva2U6IzU1MjIyMjt9I2dlTWVybWFpZE91dHB1dC0xNzQ3NjIwMjU5MTE5IC5lZGdlLXRoaWNrbmVzcy1ub3JtYWx7c3Ryb2tlLXdpZHRoOjFweDt9I2dlTWVybWFpZE91dHB1dC0xNzQ3NjIwMjU5MTE5IC5lZGdlLXRoaWNrbmVzcy10aGlja3tzdHJva2Utd2lkdGg6My41cHg7fSNnZU1lcm1haWRPdXRwdXQtMTc0NzYyMDI1OTExOSAuZWRnZS1wYXR0ZXJuLXNvbGlke3N0cm9rZS1kYXNoYXJyYXk6MDt9I2dlTWVybWFpZE91dHB1dC0xNzQ3NjIwMjU5MTE5IC5lZGdlLXRoaWNrbmVzcy1pbnZpc2libGV7c3Ryb2tlLXdpZHRoOjA7ZmlsbDpub25lO30jZ2VNZXJtYWlkT3V0cHV0LTE3NDc2MjAyNTkxMTkgLmVkZ2UtcGF0dGVybi1kYXNoZWR7c3Ryb2tlLWRhc2hhcnJheTozO30jZ2VNZXJtYWlkT3V0cHV0LTE3NDc2MjAyNTkxMTkgLmVkZ2UtcGF0dGVybi1kb3R0ZWR7c3Ryb2tlLWRhc2hhcnJheToyO30jZ2VNZXJtYWlkT3V0cHV0LTE3NDc2MjAyNTkxMTkgLm1hcmtlcntmaWxsOiM2NjY7c3Ryb2tlOiM2NjY7fSNnZU1lcm1haWRPdXRwdXQtMTc0NzYyMDI1OTExOSAubWFya2VyLmNyb3Nze3N0cm9rZTojNjY2O30jZ2VNZXJtYWlkT3V0cHV0LTE3NDc2MjAyNTkxMTkgc3Zne2ZvbnQtZmFtaWx5OiJ0cmVidWNoZXQgbXMiLHZlcmRhbmEsYXJpYWwsc2Fucy1zZXJpZjtmb250LXNpemU6MTZweDt9I2dlTWVybWFpZE91dHB1dC0xNzQ3NjIwMjU5MTE5IHB7bWFyZ2luOjA7fSNnZU1lcm1haWRPdXRwdXQtMTc0NzYyMDI1OTExOSAubGFiZWx7Zm9udC1mYW1pbHk6InRyZWJ1Y2hldCBtcyIsdmVyZGFuYSxhcmlhbCxzYW5zLXNlcmlmO2NvbG9yOiMwMDAwMDA7fSNnZU1lcm1haWRPdXRwdXQtMTc0NzYyMDI1OTExOSAuY2x1c3Rlci1sYWJlbCB0ZXh0e2ZpbGw6IzMzMzt9I2dlTWVybWFpZE91dHB1dC0xNzQ3NjIwMjU5MTE5IC5jbHVzdGVyLWxhYmVsIHNwYW57Y29sb3I6IzMzMzt9I2dlTWVybWFpZE91dHB1dC0xNzQ3NjIwMjU5MTE5IC5jbHVzdGVyLWxhYmVsIHNwYW4gcHtiYWNrZ3JvdW5kLWNvbG9yOnRyYW5zcGFyZW50O30jZ2VNZXJtYWlkT3V0cHV0LTE3NDc2MjAyNTkxMTkgLmxhYmVsIHRleHQsI2dlTWVybWFpZE91dHB1dC0xNzQ3NjIwMjU5MTE5IHNwYW57ZmlsbDojMDAwMDAwO2NvbG9yOiMwMDAwMDA7fSNnZU1lcm1haWRPdXRwdXQtMTc0NzYyMDI1OTExOSAubm9kZSByZWN0LCNnZU1lcm1haWRPdXRwdXQtMTc0NzYyMDI1OTExOSAubm9kZSBjaXJjbGUsI2dlTWVybWFpZE91dHB1dC0xNzQ3NjIwMjU5MTE5IC5ub2RlIGVsbGlwc2UsI2dlTWVybWFpZE91dHB1dC0xNzQ3NjIwMjU5MTE5IC5ub2RlIHBvbHlnb24sI2dlTWVybWFpZE91dHB1dC0xNzQ3NjIwMjU5MTE5IC5ub2RlIHBhdGh7ZmlsbDojZWVlO3N0cm9rZTojOTk5O3N0cm9rZS13aWR0aDoxcHg7fSNnZU1lcm1haWRPdXRwdXQtMTc0NzYyMDI1OTExOSAucm91Z2gtbm9kZSAubGFiZWwgdGV4dCwjZ2VNZXJtYWlkT3V0cHV0LTE3NDc2MjAyNTkxMTkgLm5vZGUgLmxhYmVsIHRleHQsI2dlTWVybWFpZE91dHB1dC0xNzQ3NjIwMjU5MTE5IC5pbWFnZS1zaGFwZSAubGFiZWwsI2dlTWVybWFpZE91dHB1dC0xNzQ3NjIwMjU5MTE5IC5pY29uLXNoYXBlIC5sYWJlbHt0ZXh0LWFuY2hvcjptaWRkbGU7fSNnZU1lcm1haWRPdXRwdXQtMTc0NzYyMDI1OTExOSAubm9kZSAua2F0ZXggcGF0aHtmaWxsOiMwMDA7c3Ryb2tlOiMwMDA7c3Ryb2tlLXdpZHRoOjFweDt9I2dlTWVybWFpZE91dHB1dC0xNzQ3NjIwMjU5MTE5IC5yb3VnaC1ub2RlIC5sYWJlbCwjZ2VNZXJtYWlkT3V0cHV0LTE3NDc2MjAyNTkxMTkgLm5vZGUgLmxhYmVsLCNnZU1lcm1haWRPdXRwdXQtMTc0NzYyMDI1OTExOSAuaW1hZ2Utc2hhcGUgLmxhYmVsLCNnZU1lcm1haWRPdXRwdXQtMTc0NzYyMDI1OTExOSAuaWNvbi1zaGFwZSAubGFiZWx7dGV4dC1hbGlnbjpjZW50ZXI7fSNnZU1lcm1haWRPdXRwdXQtMTc0NzYyMDI1OTExOSAubm9kZS5jbGlja2FibGV7Y3Vyc29yOnBvaW50ZXI7fSNnZU1lcm1haWRPdXRwdXQtMTc0NzYyMDI1OTExOSAucm9vdCAuYW5jaG9yIHBhdGh7ZmlsbDojNjY2IWltcG9ydGFudDtzdHJva2Utd2lkdGg6MDtzdHJva2U6IzY2Njt9I2dlTWVybWFpZE91dHB1dC0xNzQ3NjIwMjU5MTE5IC5hcnJvd2hlYWRQYXRoe2ZpbGw6IzMzMzMzMzt9I2dlTWVybWFpZE91dHB1dC0xNzQ3NjIwMjU5MTE5IC5lZGdlUGF0aCAucGF0aHtzdHJva2U6IzY2NjtzdHJva2Utd2lkdGg6Mi4wcHg7fSNnZU1lcm1haWRPdXRwdXQtMTc0NzYyMDI1OTExOSAuZmxvd2NoYXJ0LWxpbmt7c3Ryb2tlOiM2NjY7ZmlsbDpub25lO30jZ2VNZXJtYWlkT3V0cHV0LTE3NDc2MjAyNTkxMTkgLmVkZ2VMYWJlbHtiYWNrZ3JvdW5kLWNvbG9yOndoaXRlO3RleHQtYWxpZ246Y2VudGVyO30jZ2VNZXJtYWlkT3V0cHV0LTE3NDc2MjAyNTkxMTkgLmVkZ2VMYWJlbCBwe2JhY2tncm91bmQtY29sb3I6d2hpdGU7fSNnZU1lcm1haWRPdXRwdXQtMTc0NzYyMDI1OTExOSAuZWRnZUxhYmVsIHJlY3R7b3BhY2l0eTowLjU7YmFja2dyb3VuZC1jb2xvcjp3aGl0ZTtmaWxsOndoaXRlO30jZ2VNZXJtYWlkT3V0cHV0LTE3NDc2MjAyNTkxMTkgLmxhYmVsQmtne2JhY2tncm91bmQtY29sb3I6cmdiYSgyNTUsIDI1NSwgMjU1LCAwLjUpO30jZ2VNZXJtYWlkT3V0cHV0LTE3NDc2MjAyNTkxMTkgLmNsdXN0ZXIgcmVjdHtmaWxsOmhzbCgwLCAwJSwgOTguOTIxNTY4NjI3NSUpO3N0cm9rZTojNzA3MDcwO3N0cm9rZS13aWR0aDoxcHg7fSNnZU1lcm1haWRPdXRwdXQtMTc0NzYyMDI1OTExOSAuY2x1c3RlciB0ZXh0e2ZpbGw6IzMzMzt9I2dlTWVybWFpZE91dHB1dC0xNzQ3NjIwMjU5MTE5IC5jbHVzdGVyIHNwYW57Y29sb3I6IzMzMzt9I2dlTWVybWFpZE91dHB1dC0xNzQ3NjIwMjU5MTE5IGRpdi5tZXJtYWlkVG9vbHRpcHtwb3NpdGlvbjphYnNvbHV0ZTt0ZXh0LWFsaWduOmNlbnRlcjttYXgtd2lkdGg6MjAwcHg7cGFkZGluZzoycHg7Zm9udC1mYW1pbHk6InRyZWJ1Y2hldCBtcyIsdmVyZGFuYSxhcmlhbCxzYW5zLXNlcmlmO2ZvbnQtc2l6ZToxMnB4O2JhY2tncm91bmQ6aHNsKC0xNjAsIDAlLCA5My4zMzMzMzMzMzMzJSk7Ym9yZGVyOjFweCBzb2xpZCAjNzA3MDcwO2JvcmRlci1yYWRpdXM6MnB4O3BvaW50ZXItZXZlbnRzOm5vbmU7ei1pbmRleDoxMDA7fSNnZU1lcm1haWRPdXRwdXQtMTc0NzYyMDI1OTExOSAuZmxvd2NoYXJ0VGl0bGVUZXh0e3RleHQtYW5jaG9yOm1pZGRsZTtmb250LXNpemU6MThweDtmaWxsOiMwMDAwMDA7fSNnZU1lcm1haWRPdXRwdXQtMTc0NzYyMDI1OTExOSByZWN0LnRleHR7ZmlsbDpub25lO3N0cm9rZS13aWR0aDowO30jZ2VNZXJtYWlkT3V0cHV0LTE3NDc2MjAyNTkxMTkgLmljb24tc2hhcGUsI2dlTWVybWFpZE91dHB1dC0xNzQ3NjIwMjU5MTE5IC5pbWFnZS1zaGFwZXtiYWNrZ3JvdW5kLWNvbG9yOndoaXRlO3RleHQtYWxpZ246Y2VudGVyO30jZ2VNZXJtYWlkT3V0cHV0LTE3NDc2MjAyNTkxMTkgLmljb24tc2hhcGUgcCwjZ2VNZXJtYWlkT3V0cHV0LTE3NDc2MjAyNTkxMTkgLmltYWdlLXNoYXBlIHB7YmFja2dyb3VuZC1jb2xvcjp3aGl0ZTtwYWRkaW5nOjJweDt9I2dlTWVybWFpZE91dHB1dC0xNzQ3NjIwMjU5MTE5IC5pY29uLXNoYXBlIHJlY3QsI2dlTWVybWFpZE91dHB1dC0xNzQ3NjIwMjU5MTE5IC5pbWFnZS1zaGFwZSByZWN0e29wYWNpdHk6MC41O2JhY2tncm91bmQtY29sb3I6d2hpdGU7ZmlsbDp3aGl0ZTt9I2dlTWVybWFpZE91dHB1dC0xNzQ3NjIwMjU5MTE5IDpyb290ey0tbWVybWFpZC1mb250LWZhbWlseToidHJlYnVjaGV0IG1zIix2ZXJkYW5hLGFyaWFsLHNhbnMtc2VyaWY7fSNnZU1lcm1haWRPdXRwdXQtMTc0NzYyMDI1OTExOSAuZGVmYXVsdCByZWN0e2ZpbGw6I2Y5ZiFpbXBvcnRhbnQ7c3Ryb2tlOiMzMzMhaW1wb3J0YW50O3N0cm9rZS13aWR0aDoycHghaW1wb3J0YW50O30jZ2VNZXJtYWlkT3V0cHV0LTE3NDc2MjAyNTkxMTkgLmRlZmF1bHQgcG9seWdvbntmaWxsOiNmOWYhaW1wb3J0YW50O3N0cm9rZTojMzMzIWltcG9ydGFudDtzdHJva2Utd2lkdGg6MnB4IWltcG9ydGFudDt9I2dlTWVybWFpZE91dHB1dC0xNzQ3NjIwMjU5MTE5IC5kZWZhdWx0IGVsbGlwc2V7ZmlsbDojZjlmIWltcG9ydGFudDtzdHJva2U6IzMzMyFpbXBvcnRhbnQ7c3Ryb2tlLXdpZHRoOjJweCFpbXBvcnRhbnQ7fSNnZU1lcm1haWRPdXRwdXQtMTc0NzYyMDI1OTExOSAuZGVmYXVsdCBjaXJjbGV7ZmlsbDojZjlmIWltcG9ydGFudDtzdHJva2U6IzMzMyFpbXBvcnRhbnQ7c3Ryb2tlLXdpZHRoOjJweCFpbXBvcnRhbnQ7fSNnZU1lcm1haWRPdXRwdXQtMTc0NzYyMDI1OTExOSAuZGVmYXVsdCBwYXRoe2ZpbGw6I2Y5ZiFpbXBvcnRhbnQ7c3Ryb2tlOiMzMzMhaW1wb3J0YW50O3N0cm9rZS13aWR0aDoycHghaW1wb3J0YW50O30jZ2VNZXJtYWlkT3V0cHV0LTE3NDc2MjAyNTkxMTkgLnByb2Nlc3MgcmVjdHtmaWxsOiNjY2YhaW1wb3J0YW50O3N0cm9rZTojMzMzIWltcG9ydGFudDtzdHJva2Utd2lkdGg6MnB4IWltcG9ydGFudDt9I2dlTWVybWFpZE91dHB1dC0xNzQ3NjIwMjU5MTE5IC5wcm9jZXNzIHBvbHlnb257ZmlsbDojY2NmIWltcG9ydGFudDtzdHJva2U6IzMzMyFpbXBvcnRhbnQ7c3Ryb2tlLXdpZHRoOjJweCFpbXBvcnRhbnQ7fSNnZU1lcm1haWRPdXRwdXQtMTc0NzYyMDI1OTExOSAucHJvY2VzcyBlbGxpcHNle2ZpbGw6I2NjZiFpbXBvcnRhbnQ7c3Ryb2tlOiMzMzMhaW1wb3J0YW50O3N0cm9rZS13aWR0aDoycHghaW1wb3J0YW50O30jZ2VNZXJtYWlkT3V0cHV0LTE3NDc2MjAyNTkxMTkgLnByb2Nlc3MgY2lyY2xle2ZpbGw6I2NjZiFpbXBvcnRhbnQ7c3Ryb2tlOiMzMzMhaW1wb3J0YW50O3N0cm9rZS13aWR0aDoycHghaW1wb3J0YW50O30jZ2VNZXJtYWlkT3V0cHV0LTE3NDc2MjAyNTkxMTkgLnByb2Nlc3MgcGF0aHtmaWxsOiNjY2YhaW1wb3J0YW50O3N0cm9rZTojMzMzIWltcG9ydGFudDtzdHJva2Utd2lkdGg6MnB4IWltcG9ydGFudDt9I2dlTWVybWFpZE91dHB1dC0xNzQ3NjIwMjU5MTE5IC5kYiByZWN0e2ZpbGw6I2NmYyFpbXBvcnRhbnQ7c3Ryb2tlOiMzMzMhaW1wb3J0YW50O3N0cm9rZS13aWR0aDoycHghaW1wb3J0YW50O30jZ2VNZXJtYWlkT3V0cHV0LTE3NDc2MjAyNTkxMTkgLmRiIHBvbHlnb257ZmlsbDojY2ZjIWltcG9ydGFudDtzdHJva2U6IzMzMyFpbXBvcnRhbnQ7c3Ryb2tlLXdpZHRoOjJweCFpbXBvcnRhbnQ7fSNnZU1lcm1haWRPdXRwdXQtMTc0NzYyMDI1OTExOSAuZGIgZWxsaXBzZXtmaWxsOiNjZmMhaW1wb3J0YW50O3N0cm9rZTojMzMzIWltcG9ydGFudDtzdHJva2Utd2lkdGg6MnB4IWltcG9ydGFudDt9I2dlTWVybWFpZE91dHB1dC0xNzQ3NjIwMjU5MTE5IC5kYiBjaXJjbGV7ZmlsbDojY2ZjIWltcG9ydGFudDtzdHJva2U6IzMzMyFpbXBvcnRhbnQ7c3Ryb2tlLXdpZHRoOjJweCFpbXBvcnRhbnQ7fSNnZU1lcm1haWRPdXRwdXQtMTc0NzYyMDI1OTExOSAuZGIgcGF0aHtmaWxsOiNjZmMhaW1wb3J0YW50O3N0cm9rZTojMzMzIWltcG9ydGFudDtzdHJva2Utd2lkdGg6MnB4IWltcG9ydGFudDt9I2dlTWVybWFpZE91dHB1dC0xNzQ3NjIwMjU5MTE5IC5pbyByZWN0e2ZpbGw6I2ZjYyFpbXBvcnRhbnQ7c3Ryb2tlOiMzMzMhaW1wb3J0YW50O3N0cm9rZS13aWR0aDoycHghaW1wb3J0YW50O30jZ2VNZXJtYWlkT3V0cHV0LTE3NDc2MjAyNTkxMTkgLmlvIHBvbHlnb257ZmlsbDojZmNjIWltcG9ydGFudDtzdHJva2U6IzMzMyFpbXBvcnRhbnQ7c3Ryb2tlLXdpZHRoOjJweCFpbXBvcnRhbnQ7fSNnZU1lcm1haWRPdXRwdXQtMTc0NzYyMDI1OTExOSAuaW8gZWxsaXBzZXtmaWxsOiNmY2MhaW1wb3J0YW50O3N0cm9rZTojMzMzIWltcG9ydGFudDtzdHJva2Utd2lkdGg6MnB4IWltcG9ydGFudDt9I2dlTWVybWFpZE91dHB1dC0xNzQ3NjIwMjU5MTE5IC5pbyBjaXJjbGV7ZmlsbDojZmNjIWltcG9ydGFudDtzdHJva2U6IzMzMyFpbXBvcnRhbnQ7c3Ryb2tlLXdpZHRoOjJweCFpbXBvcnRhbnQ7fSNnZU1lcm1haWRPdXRwdXQtMTc0NzYyMDI1OTExOSAuaW8gcGF0aHtmaWxsOiNmY2MhaW1wb3J0YW50O3N0cm9rZTojMzMzIWltcG9ydGFudDtzdHJva2Utd2lkdGg6MnB4IWltcG9ydGFudDt9PC9zdHlsZT48Zz48bWFya2VyIG9yaWVudD0iYXV0byIgbWFya2VySGVpZ2h0PSI4IiBtYXJrZXJXaWR0aD0iOCIgbWFya2VyVW5pdHM9InVzZXJTcGFjZU9uVXNlIiByZWZZPSI1IiByZWZYPSI1IiB2aWV3Qm94PSIwIDAgMTAgMTAiIGNsYXNzPSJtYXJrZXIgZmxvd2NoYXJ0LXYyIiBpZD0iZ2VNZXJtYWlkT3V0cHV0LTE3NDc2MjAyNTkxMTlfZmxvd2NoYXJ0LXYyLXBvaW50RW5kIj48cGF0aCBzdHlsZT0ic3Ryb2tlLXdpZHRoOiAxOyBzdHJva2UtZGFzaGFycmF5OiAxLCAwOyIgY2xhc3M9ImFycm93TWFya2VyUGF0aCIgZD0iTSAwIDAgTCAxMCA1IEwgMCAxMCB6Ij48L3BhdGg+PC9tYXJrZXI+PG1hcmtlciBvcmllbnQ9ImF1dG8iIG1hcmtlckhlaWdodD0iOCIgbWFya2VyV2lkdGg9IjgiIG1hcmtlclVuaXRzPSJ1c2VyU3BhY2VPblVzZSIgcmVmWT0iNSIgcmVmWD0iNC41IiB2aWV3Qm94PSIwIDAgMTAgMTAiIGNsYXNzPSJtYXJrZXIgZmxvd2NoYXJ0LXYyIiBpZD0iZ2VNZXJtYWlkT3V0cHV0LTE3NDc2MjAyNTkxMTlfZmxvd2NoYXJ0LXYyLXBvaW50U3RhcnQiPjxwYXRoIHN0eWxlPSJzdHJva2Utd2lkdGg6IDE7IHN0cm9rZS1kYXNoYXJyYXk6IDEsIDA7IiBjbGFzcz0iYXJyb3dNYXJrZXJQYXRoIiBkPSJNIDAgNSBMIDEwIDEwIEwgMTAgMCB6Ij48L3BhdGg+PC9tYXJrZXI+PG1hcmtlciBvcmllbnQ9ImF1dG8iIG1hcmtlckhlaWdodD0iMTEiIG1hcmtlcldpZHRoPSIxMSIgbWFya2VyVW5pdHM9InVzZXJTcGFjZU9uVXNlIiByZWZZPSI1IiByZWZYPSIxMSIgdmlld0JveD0iMCAwIDEwIDEwIiBjbGFzcz0ibWFya2VyIGZsb3djaGFydC12MiIgaWQ9ImdlTWVybWFpZE91dHB1dC0xNzQ3NjIwMjU5MTE5X2Zsb3djaGFydC12Mi1jaXJjbGVFbmQiPjxjaXJjbGUgc3R5bGU9InN0cm9rZS13aWR0aDogMTsgc3Ryb2tlLWRhc2hhcnJheTogMSwgMDsiIGNsYXNzPSJhcnJvd01hcmtlclBhdGgiIHI9IjUiIGN5PSI1IiBjeD0iNSI+PC9jaXJjbGU+PC9tYXJrZXI+PG1hcmtlciBvcmllbnQ9ImF1dG8iIG1hcmtlckhlaWdodD0iMTEiIG1hcmtlcldpZHRoPSIxMSIgbWFya2VyVW5pdHM9InVzZXJTcGFjZU9uVXNlIiByZWZZPSI1IiByZWZYPSItMSIgdmlld0JveD0iMCAwIDEwIDEwIiBjbGFzcz0ibWFya2VyIGZsb3djaGFydC12MiIgaWQ9ImdlTWVybWFpZE91dHB1dC0xNzQ3NjIwMjU5MTE5X2Zsb3djaGFydC12Mi1jaXJjbGVTdGFydCI+PGNpcmNsZSBzdHlsZT0ic3Ryb2tlLXdpZHRoOiAxOyBzdHJva2UtZGFzaGFycmF5OiAxLCAwOyIgY2xhc3M9ImFycm93TWFya2VyUGF0aCIgcj0iNSIgY3k9IjUiIGN4PSI1Ij48L2NpcmNsZT48L21hcmtlcj48bWFya2VyIG9yaWVudD0iYXV0byIgbWFya2VySGVpZ2h0PSIxMSIgbWFya2VyV2lkdGg9IjExIiBtYXJrZXJVbml0cz0idXNlclNwYWNlT25Vc2UiIHJlZlk9IjUuMiIgcmVmWD0iMTIiIHZpZXdCb3g9IjAgMCAxMSAxMSIgY2xhc3M9Im1hcmtlciBjcm9zcyBmbG93Y2hhcnQtdjIiIGlkPSJnZU1lcm1haWRPdXRwdXQtMTc0NzYyMDI1OTExOV9mbG93Y2hhcnQtdjItY3Jvc3NFbmQiPjxwYXRoIHN0eWxlPSJzdHJva2Utd2lkdGg6IDI7IHN0cm9rZS1kYXNoYXJyYXk6IDEsIDA7IiBjbGFzcz0iYXJyb3dNYXJrZXJQYXRoIiBkPSJNIDEsMSBsIDksOSBNIDEwLDEgbCAtOSw5Ij48L3BhdGg+PC9tYXJrZXI+PG1hcmtlciBvcmllbnQ9ImF1dG8iIG1hcmtlckhlaWdodD0iMTEiIG1hcmtlcldpZHRoPSIxMSIgbWFya2VyVW5pdHM9InVzZXJTcGFjZU9uVXNlIiByZWZZPSI1LjIiIHJlZlg9Ii0xIiB2aWV3Qm94PSIwIDAgMTEgMTEiIGNsYXNzPSJtYXJrZXIgY3Jvc3MgZmxvd2NoYXJ0LXYyIiBpZD0iZ2VNZXJtYWlkT3V0cHV0LTE3NDc2MjAyNTkxMTlfZmxvd2NoYXJ0LXYyLWNyb3NzU3RhcnQiPjxwYXRoIHN0eWxlPSJzdHJva2Utd2lkdGg6IDI7IHN0cm9rZS1kYXNoYXJyYXk6IDEsIDA7IiBjbGFzcz0iYXJyb3dNYXJrZXJQYXRoIiBkPSJNIDEsMSBsIDksOSBNIDEwLDEgbCAtOSw5Ij48L3BhdGg+PC9tYXJrZXI+PGcgY2xhc3M9InJvb3QiPjxnIGNsYXNzPSJjbHVzdGVycyI+PGcgZGF0YS1sb29rPSJjbGFzc2ljIiBpZD0iREIiIGNsYXNzPSJjbHVzdGVyIj48cmVjdCBoZWlnaHQ9IjEwNCIgd2lkdGg9IjI4NjkuMTEzMjgxMjUiIHk9IjEyMzkiIHg9IjE5ODAuMjM4MjgxMjUiIHN0eWxlPSIiPjwvcmVjdD48ZyB0cmFuc2Zvcm09InRyYW5zbGF0ZSgzMzM1LjcyNDYwOTM3NSwgMTIzOSkiIGNsYXNzPSJjbHVzdGVyLWxhYmVsIj48Zz48cmVjdCBzdHlsZT0ic3Ryb2tlOiBub25lIiBjbGFzcz0iYmFja2dyb3VuZCI+PC9yZWN0Pjx0ZXh0IHN0eWxlPSIiIHk9Ii0xMC4xIj48dHNwYW4gZHk9IjEuMWVtIiB5PSItMC4xZW0iIHg9IjAiIGNsYXNzPSJ0ZXh0LW91dGVyLXRzcGFuIj48dHNwYW4gZm9udC13ZWlnaHQ9Im5vcm1hbCIgY2xhc3M9InRleHQtaW5uZXItdHNwYW4iIGZvbnQtc3R5bGU9Im5vcm1hbCI+44OH44O844K/44OZ44O844K5PC90c3Bhbj48dHNwYW4gZm9udC13ZWlnaHQ9Im5vcm1hbCIgY2xhc3M9InRleHQtaW5uZXItdHNwYW4iIGZvbnQtc3R5bGU9Im5vcm1hbCI+IChTUUxpdGUpPC90c3Bhbj48L3RzcGFuPjwvdGV4dD48L2c+PC9nPjwvZz48L2c+PGcgY2xhc3M9ImVkZ2VQYXRocyI+PHBhdGggbWFya2VyLWVuZD0idXJsKCNnZU1lcm1haWRPdXRwdXQtMTc0NzYyMDI1OTExOV9mbG93Y2hhcnQtdjItcG9pbnRFbmQpIiBzdHlsZT0iIiBjbGFzcz0iZWRnZS10aGlja25lc3Mtbm9ybWFsIGVkZ2UtcGF0dGVybi1zb2xpZCBlZGdlLXRoaWNrbmVzcy1ub3JtYWwgZWRnZS1wYXR0ZXJuLXNvbGlkIGZsb3djaGFydC1saW5rIiBpZD0iTF9BX0JfMCIgZD0iTTUyMy4yMTUsODZMNTIzLjIxNSw5MC4xNjdDNTIzLjIxNSw5NC4zMzMsNTIzLjIxNSwxMDIuNjY3LDUyMy4yMTUsMTEwLjMzM0M1MjMuMjE1LDExOCw1MjMuMjE1LDEyNSw1MjMuMjE1LDEyOC41TDUyMy4yMTUsMTMyIj48L3BhdGg+PHBhdGggbWFya2VyLWVuZD0idXJsKCNnZU1lcm1haWRPdXRwdXQtMTc0NzYyMDI1OTExOV9mbG93Y2hhcnQtdjItcG9pbnRFbmQpIiBzdHlsZT0iIiBjbGFzcz0iZWRnZS10aGlja25lc3Mtbm9ybWFsIGVkZ2UtcGF0dGVybi1zb2xpZCBlZGdlLXRoaWNrbmVzcy1ub3JtYWwgZWRnZS1wYXR0ZXJuLXNvbGlkIGZsb3djaGFydC1saW5rIiBpZD0iTF9CX0NfMSIgZD0iTTQzMi44MjQsMTc1LjIwMkwzODMuNjg3LDE4MS44MzVDMzM0LjU0OSwxODguNDY4LDIzNi4yNzUsMjAxLjczNCwxODcuMTM3LDIxMS44NjdDMTM4LDIyMiwxMzgsMjI5LDEzOCwyMzIuNUwxMzgsMjM2Ij48L3BhdGg+PHBhdGggbWFya2VyLWVuZD0idXJsKCNnZU1lcm1haWRPdXRwdXQtMTc0NzYyMDI1OTExOV9mbG93Y2hhcnQtdjItcG9pbnRFbmQpIiBzdHlsZT0iIiBjbGFzcz0iZWRnZS10aGlja25lc3Mtbm9ybWFsIGVkZ2UtcGF0dGVybi1zb2xpZCBlZGdlLXRoaWNrbmVzcy1ub3JtYWwgZWRnZS1wYXR0ZXJuLXNvbGlkIGZsb3djaGFydC1saW5rIiBpZD0iTF9CX0RfMiIgZD0iTTQ4NC4xNjEsMTkwTDQ3OC4xMzQsMTk0LjE2N0M0NzIuMTA3LDE5OC4zMzMsNDYwLjA1NCwyMDYuNjY3LDQ1NC4wMjcsMjE0LjMzM0M0NDgsMjIyLDQ0OCwyMjksNDQ4LDIzMi41TDQ0OCwyMzYiPjwvcGF0aD48cGF0aCBtYXJrZXItZW5kPSJ1cmwoI2dlTWVybWFpZE91dHB1dC0xNzQ3NjIwMjU5MTE5X2Zsb3djaGFydC12Mi1wb2ludEVuZCkiIHN0eWxlPSIiIGNsYXNzPSJlZGdlLXRoaWNrbmVzcy1ub3JtYWwgZWRnZS1wYXR0ZXJuLXNvbGlkIGVkZ2UtdGhpY2tuZXNzLW5vcm1hbCBlZGdlLXBhdHRlcm4tc29saWQgZmxvd2NoYXJ0LWxpbmsiIGlkPSJMX0JfRV8zIiBkPSJNNjEzLjYwNSwxODMuMDJMNjM3LjY3MSwxODguMzVDNjYxLjczNywxOTMuNjgsNzA5Ljg2OCwyMDQuMzQsNzMzLjkzNCwyMTMuMTdDNzU4LDIyMiw3NTgsMjI5LDc1OCwyMzIuNUw3NTgsMjM2Ij48L3BhdGg+PHBhdGggbWFya2VyLWVuZD0idXJsKCNnZU1lcm1haWRPdXRwdXQtMTc0NzYyMDI1OTExOV9mbG93Y2hhcnQtdjItcG9pbnRFbmQpIiBzdHlsZT0iIiBjbGFzcz0iZWRnZS10aGlja25lc3Mtbm9ybWFsIGVkZ2UtcGF0dGVybi1zb2xpZCBlZGdlLXRoaWNrbmVzcy1ub3JtYWwgZWRnZS1wYXR0ZXJuLXNvbGlkIGZsb3djaGFydC1saW5rIiBpZD0iTF9FX0UxXzQiIGQ9Ik02MjgsMjkyLjg2N0w1NDkuNjY3LDMwMS4yMjJDNDcxLjMzMywzMDkuNTc4LDMxNC42NjcsMzI2LjI4OSwyMzYuMzMzLDM0MC4xNDRDMTU4LDM1NCwxNTgsMzY1LDE1OCwzNzAuNUwxNTgsMzc2Ij48L3BhdGg+PHBhdGggbWFya2VyLWVuZD0idXJsKCNnZU1lcm1haWRPdXRwdXQtMTc0NzYyMDI1OTExOV9mbG93Y2hhcnQtdjItcG9pbnRFbmQpIiBzdHlsZT0iIiBjbGFzcz0iZWRnZS10aGlja25lc3Mtbm9ybWFsIGVkZ2UtcGF0dGVybi1zb2xpZCBlZGdlLXRoaWNrbmVzcy1ub3JtYWwgZWRnZS1wYXR0ZXJuLXNvbGlkIGZsb3djaGFydC1saW5rIiBpZD0iTF9FX0UyXzUiIGQ9Ik02MjgsMzA2LjkxOUw2MDAsMzEyLjkzM0M1NzIsMzE4Ljk0Niw1MTYsMzMwLjk3Myw0ODgsMzQyLjQ4N0M0NjAsMzU0LDQ2MCwzNjUsNDYwLDM3MC41TDQ2MCwzNzYiPjwvcGF0aD48cGF0aCBtYXJrZXItZW5kPSJ1cmwoI2dlTWVybWFpZE91dHB1dC0xNzQ3NjIwMjU5MTE5X2Zsb3djaGFydC12Mi1wb2ludEVuZCkiIHN0eWxlPSIiIGNsYXNzPSJlZGdlLXRoaWNrbmVzcy1ub3JtYWwgZWRnZS1wYXR0ZXJuLXNvbGlkIGVkZ2UtdGhpY2tuZXNzLW5vcm1hbCBlZGdlLXBhdHRlcm4tc29saWQgZmxvd2NoYXJ0LWxpbmsiIGlkPSJMX0VfRTNfNiIgZD0iTTc0NS44MTMsMzE4TDc0NC41MSwzMjIuMTY3Qzc0My4yMDgsMzI2LjMzMyw3NDAuNjA0LDMzNC42NjcsNzM5LjMwMiwzNDQuMzMzQzczOCwzNTQsNzM4LDM2NSw3MzgsMzcwLjVMNzM4LDM3NiI+PC9wYXRoPjxwYXRoIG1hcmtlci1lbmQ9InVybCgjZ2VNZXJtYWlkT3V0cHV0LTE3NDc2MjAyNTkxMTlfZmxvd2NoYXJ0LXYyLXBvaW50RW5kKSIgc3R5bGU9IiIgY2xhc3M9ImVkZ2UtdGhpY2tuZXNzLW5vcm1hbCBlZGdlLXBhdHRlcm4tc29saWQgZWRnZS10aGlja25lc3Mtbm9ybWFsIGVkZ2UtcGF0dGVybi1zb2xpZCBmbG93Y2hhcnQtbGluayIgaWQ9IkxfRV9FNF83IiBkPSJNODg4LDMxMC43NTZMOTEwLDMxNi4xM0M5MzIsMzIxLjUwNCw5NzYsMzMyLjI1Miw5OTgsMzQxLjEyNkMxMDIwLDM1MCwxMDIwLDM1NywxMDIwLDM2MC41TDEwMjAsMzY0Ij48L3BhdGg+PHBhdGggbWFya2VyLWVuZD0idXJsKCNnZU1lcm1haWRPdXRwdXQtMTc0NzYyMDI1OTExOV9mbG93Y2hhcnQtdjItcG9pbnRFbmQpIiBzdHlsZT0iIiBjbGFzcz0iZWRnZS10aGlja25lc3Mtbm9ybWFsIGVkZ2UtcGF0dGVybi1zb2xpZCBlZGdlLXRoaWNrbmVzcy1ub3JtYWwgZWRnZS1wYXR0ZXJuLXNvbGlkIGZsb3djaGFydC1saW5rIiBpZD0iTF9FX0U1XzgiIGQ9Ik04ODgsMjkzLjU0NUw5NjEuNjY3LDMwMS43ODhDMTAzNS4zMzMsMzEwLjAzLDExODIuNjY3LDMyNi41MTUsMTI1Ni4zMzMsMzM4LjI1OEMxMzMwLDM1MCwxMzMwLDM1NywxMzMwLDM2MC41TDEzMzAsMzY0Ij48L3BhdGg+PHBhdGggbWFya2VyLWVuZD0idXJsKCNnZU1lcm1haWRPdXRwdXQtMTc0NzYyMDI1OTExOV9mbG93Y2hhcnQtdjItcG9pbnRFbmQpIiBzdHlsZT0iIiBjbGFzcz0iZWRnZS10aGlja25lc3Mtbm9ybWFsIGVkZ2UtcGF0dGVybi1zb2xpZCBlZGdlLXRoaWNrbmVzcy1ub3JtYWwgZWRnZS1wYXR0ZXJuLXNvbGlkIGZsb3djaGFydC1saW5rIiBpZD0iTF9FX0U2XzkiIGQ9Ik04ODgsMjg4LjQzM0wxMDEzLjMzMywyOTcuNTI4QzExMzguNjY3LDMwNi42MjIsMTM4OS4zMzMsMzI0LjgxMSwxNTE0LjY2NywzMzcuNDA2QzE2NDAsMzUwLDE2NDAsMzU3LDE2NDAsMzYwLjVMMTY0MCwzNjQiPjwvcGF0aD48cGF0aCBtYXJrZXItZW5kPSJ1cmwoI2dlTWVybWFpZE91dHB1dC0xNzQ3NjIwMjU5MTE5X2Zsb3djaGFydC12Mi1wb2ludEVuZCkiIHN0eWxlPSIiIGNsYXNzPSJlZGdlLXRoaWNrbmVzcy1ub3JtYWwgZWRnZS1wYXR0ZXJuLXNvbGlkIGVkZ2UtdGhpY2tuZXNzLW5vcm1hbCBlZGdlLXBhdHRlcm4tc29saWQgZmxvd2NoYXJ0LWxpbmsiIGlkPSJMX0JfRl8xMCIgZD0iTTYxMy42MDUsMTY1LjQ4OEw5MTMuNDY1LDE3My43NEMxMjEzLjMyNCwxODEuOTkyLDE4MTMuMDQzLDE5OC40OTYsMjExMi45MDIsMjEyLjI0OEMyNDEyLjc2MiwyMjYsMjQxMi43NjIsMjM3LDI0MTIuNzYyLDI0Mi41TDI0MTIuNzYyLDI0OCI+PC9wYXRoPjxwYXRoIG1hcmtlci1lbmQ9InVybCgjZ2VNZXJtYWlkT3V0cHV0LTE3NDc2MjAyNTkxMTlfZmxvd2NoYXJ0LXYyLXBvaW50RW5kKSIgc3R5bGU9IiIgY2xhc3M9ImVkZ2UtdGhpY2tuZXNzLW5vcm1hbCBlZGdlLXBhdHRlcm4tc29saWQgZWRnZS10aGlja25lc3Mtbm9ybWFsIGVkZ2UtcGF0dGVybi1zb2xpZCBmbG93Y2hhcnQtbGluayIgaWQ9IkxfRl9HXzExIiBkPSJNMjMxMC43NjIsMjg5Ljc0MUwyMjI2LjQ2OCwyOTguNjE4QzIxNDIuMTc0LDMwNy40OTQsMTk3My41ODcsMzI1LjI0NywxODg5LjI5NCwzNDQuNzlDMTgwNSwzNjQuMzMzLDE4MDUsMzg1LjY2NywxODA1LDQwN0MxODA1LDQyOC4zMzMsMTgwNSw0NDkuNjY3LDE4MDUsNDY5QzE4MDUsNDg4LjMzMywxODA1LDUwNS42NjcsMTgwNSw1MjNDMTgwNSw1NDAuMzMzLDE4MDUsNTU3LjY2NywxODA1LDU3N0MxODA1LDU5Ni4zMzMsMTgwNSw2MTcuNjY3LDE4MDUsNjM5QzE4MDUsNjYwLjMzMywxODA1LDY4MS42NjcsMTgwNSw3MDFDMTgwNSw3MjAuMzMzLDE4MDUsNzM3LjY2NywxODA1LDc1NUMxODA1LDc3Mi4zMzMsMTgwNSw3ODkuNjY3LDE4MDUsODA5QzE4MDUsODI4LjMzMywxODA1LDg0OS42NjcsMTgwNSw4NzIuOTE3QzE4MDUsODk2LjE2NywxODA1LDkyMS4zMzMsMTgwNSw5MzkuMzMzQzE4MDUsOTU3LjMzMywxODA1LDk2OC4xNjcsMTgwNSw5NzMuNTgzTDE4MDUsOTc5Ij48L3BhdGg+PHBhdGggbWFya2VyLWVuZD0idXJsKCNnZU1lcm1haWRPdXRwdXQtMTc0NzYyMDI1OTExOV9mbG93Y2hhcnQtdjItcG9pbnRFbmQpIiBzdHlsZT0iIiBjbGFzcz0iZWRnZS10aGlja25lc3Mtbm9ybWFsIGVkZ2UtcGF0dGVybi1zb2xpZCBlZGdlLXRoaWNrbmVzcy1ub3JtYWwgZWRnZS1wYXR0ZXJuLXNvbGlkIGZsb3djaGFydC1saW5rIiBpZD0iTF9HX0cxXzEyIiBkPSJNMTgwNSwxMDYxTDE4MDUsMTA2NS4xNjdDMTgwNSwxMDY5LjMzMywxODA1LDEwNzcuNjY3LDE4MDUsMTA4Ny4zMzNDMTgwNSwxMDk3LDE4MDUsMTEwOCwxODA1LDExMTMuNUwxODA1LDExMTkiPjwvcGF0aD48cGF0aCBtYXJrZXItZW5kPSJ1cmwoI2dlTWVybWFpZE91dHB1dC0xNzQ3NjIwMjU5MTE5X2Zsb3djaGFydC12Mi1wb2ludEVuZCkiIHN0eWxlPSIiIGNsYXNzPSJlZGdlLXRoaWNrbmVzcy1ub3JtYWwgZWRnZS1wYXR0ZXJuLXNvbGlkIGVkZ2UtdGhpY2tuZXNzLW5vcm1hbCBlZGdlLXBhdHRlcm4tc29saWQgZmxvd2NoYXJ0LWxpbmsiIGlkPSJMX0cxX0cyXzEzIiBkPSJNMTcxNy41NjMsMTE2OS40NDdMMTY4NC4xNzUsMTE3Ni44NzJDMTY1MC43ODgsMTE4NC4yOTgsMTU4NC4wMTMsMTE5OS4xNDksMTU1MC42MjYsMTIxMC43NDFDMTUxNy4yMzgsMTIyMi4zMzMsMTUxNy4yMzgsMTIzMC42NjcsMTUxNy4yMzgsMTIzOC4zMzNDMTUxNy4yMzgsMTI0NiwxNTE3LjIzOCwxMjUzLDE1MTcuMjM4LDEyNTYuNUwxNTE3LjIzOCwxMjYwIj48L3BhdGg+PHBhdGggbWFya2VyLWVuZD0idXJsKCNnZU1lcm1haWRPdXRwdXQtMTc0NzYyMDI1OTExOV9mbG93Y2hhcnQtdjItcG9pbnRFbmQpIiBzdHlsZT0iIiBjbGFzcz0iZWRnZS10aGlja25lc3Mtbm9ybWFsIGVkZ2UtcGF0dGVybi1zb2xpZCBlZGdlLXRoaWNrbmVzcy1ub3JtYWwgZWRnZS1wYXR0ZXJuLXNvbGlkIGZsb3djaGFydC1saW5rIiBpZD0iTF9GX0hfMTQiIGQ9Ik0yMzQ3LjM3MSwzMDZMMjMzMi40MzYsMzEyLjE2N0MyMzE3LjUwMSwzMTguMzMzLDIyODcuNjMyLDMzMC42NjcsMjI3Mi42OTcsMzQ3LjVDMjI1Ny43NjIsMzY0LjMzMywyMjU3Ljc2MiwzODUuNjY3LDIyNTcuNzYyLDQwN0MyMjU3Ljc2Miw0MjguMzMzLDIyNTcuNzYyLDQ0OS42NjcsMjI1Ny43NjIsNDY5QzIyNTcuNzYyLDQ4OC4zMzMsMjI1Ny43NjIsNTA1LjY2NywyMjU3Ljc2Miw1MjNDMjI1Ny43NjIsNTQwLjMzMywyMjU3Ljc2Miw1NTcuNjY3LDIyNTcuNzYyLDU3N0MyMjU3Ljc2Miw1OTYuMzMzLDIyNTcuNzYyLDYxNy42NjcsMjI1Ny43NjIsNjM5QzIyNTcuNzYyLDY2MC4zMzMsMjI1Ny43NjIsNjgxLjY2NywyMjU3Ljc2Miw3MDFDMjI1Ny43NjIsNzIwLjMzMywyMjU3Ljc2Miw3MzcuNjY3LDIyNTcuNzYyLDc1NUMyMjU3Ljc2Miw3NzIuMzMzLDIyNTcuNzYyLDc4OS42NjcsMjI1Ny43NjIsODA5QzIyNTcuNzYyLDgyOC4zMzMsMjI1Ny43NjIsODQ5LjY2NywyMjU3Ljc2Miw4NzIuOTE3QzIyNTcuNzYyLDg5Ni4xNjcsMjI1Ny43NjIsOTIxLjMzMywyMjU3Ljc2Miw5MzkuMzMzQzIyNTcuNzYyLDk1Ny4zMzMsMjI1Ny43NjIsOTY4LjE2NywyMjU3Ljc2Miw5NzMuNTgzTDIyNTcuNzYyLDk3OSI+PC9wYXRoPjxwYXRoIG1hcmtlci1lbmQ9InVybCgjZ2VNZXJtYWlkT3V0cHV0LTE3NDc2MjAyNTkxMTlfZmxvd2NoYXJ0LXYyLXBvaW50RW5kKSIgc3R5bGU9IiIgY2xhc3M9ImVkZ2UtdGhpY2tuZXNzLW5vcm1hbCBlZGdlLXBhdHRlcm4tc29saWQgZWRnZS10aGlja25lc3Mtbm9ybWFsIGVkZ2UtcGF0dGVybi1zb2xpZCBmbG93Y2hhcnQtbGluayIgaWQ9IkxfSF9IMV8xNSIgZD0iTTIyNTcuNzYyLDEwNjFMMjI1Ny43NjIsMTA2NS4xNjdDMjI1Ny43NjIsMTA2OS4zMzMsMjI1Ny43NjIsMTA3Ny42NjcsMjI1Ny43NjIsMTA4Ny4zMzNDMjI1Ny43NjIsMTA5NywyMjU3Ljc2MiwxMTA4LDIyNTcuNzYyLDExMTMuNUwyMjU3Ljc2MiwxMTE5Ij48L3BhdGg+PHBhdGggbWFya2VyLWVuZD0idXJsKCNnZU1lcm1haWRPdXRwdXQtMTc0NzYyMDI1OTExOV9mbG93Y2hhcnQtdjItcG9pbnRFbmQpIiBzdHlsZT0iIiBjbGFzcz0iZWRnZS10aGlja25lc3Mtbm9ybWFsIGVkZ2UtcGF0dGVybi1zb2xpZCBlZGdlLXRoaWNrbmVzcy1ub3JtYWwgZWRnZS1wYXR0ZXJuLXNvbGlkIGZsb3djaGFydC1saW5rIiBpZD0iTF9IMV9IMl8xNiIgZD0iTTIxOTYuNTksMTE3N0wyMTgyLjYxOCwxMTgzLjE2N0MyMTY4LjY0NywxMTg5LjMzMywyMTQwLjcwNCwxMjAxLjY2NywyMDc3LjgxMywxMjEyQzIwMTQuOTIxLDEyMjIuMzMzLDE5MTcuMDc5LDEyMzAuNjY3LDE4NjguMTU5LDEyMzguMzMzQzE4MTkuMjM4LDEyNDYsMTgxOS4yMzgsMTI1MywxODE5LjIzOCwxMjU2LjVMMTgxOS4yMzgsMTI2MCI+PC9wYXRoPjxwYXRoIG1hcmtlci1lbmQ9InVybCgjZ2VNZXJtYWlkT3V0cHV0LTE3NDc2MjAyNTkxMTlfZmxvd2NoYXJ0LXYyLXBvaW50RW5kKSIgc3R5bGU9IiIgY2xhc3M9ImVkZ2UtdGhpY2tuZXNzLW5vcm1hbCBlZGdlLXBhdHRlcm4tc29saWQgZWRnZS10aGlja25lc3Mtbm9ybWFsIGVkZ2UtcGF0dGVybi1zb2xpZCBmbG93Y2hhcnQtbGluayIgaWQ9IkxfRl9JXzE3IiBkPSJNMjUxNC43NjIsMjgxLjY3NUwyOTA0LjUxMiwyOTEuODk2QzMyOTQuMjYzLDMwMi4xMTcsNDA3My43NjQsMzIyLjU1OCw0NDYzLjUxNSwzMzYuMjc5QzQ4NTMuMjY2LDM1MCw0ODUzLjI2NiwzNTcsNDg1My4yNjYsMzYwLjVMNDg1My4yNjYsMzY0Ij48L3BhdGg+PHBhdGggbWFya2VyLWVuZD0idXJsKCNnZU1lcm1haWRPdXRwdXQtMTc0NzYyMDI1OTExOV9mbG93Y2hhcnQtdjItcG9pbnRFbmQpIiBzdHlsZT0iIiBjbGFzcz0iZWRnZS10aGlja25lc3Mtbm9ybWFsIGVkZ2UtcGF0dGVybi1zb2xpZCBlZGdlLXRoaWNrbmVzcy1ub3JtYWwgZWRnZS1wYXR0ZXJuLXNvbGlkIGZsb3djaGFydC1saW5rIiBpZD0iTF9JX0kxXzE4IiBkPSJNNDcyMy4yNjYsNDMxLjc4Nkw0Njg4Ljk4Niw0MzguMzIyQzQ2NTQuNzA3LDQ0NC44NTcsNDU4Ni4xNDgsNDU3LjkyOSw0NTUxLjg2OSw0NjcuOTY0QzQ1MTcuNTksNDc4LDQ1MTcuNTksNDg1LDQ1MTcuNTksNDg4LjVMNDUxNy41OSw0OTIiPjwvcGF0aD48cGF0aCBtYXJrZXItZW5kPSJ1cmwoI2dlTWVybWFpZE91dHB1dC0xNzQ3NjIwMjU5MTE5X2Zsb3djaGFydC12Mi1wb2ludEVuZCkiIHN0eWxlPSIiIGNsYXNzPSJlZGdlLXRoaWNrbmVzcy1ub3JtYWwgZWRnZS1wYXR0ZXJuLXNvbGlkIGVkZ2UtdGhpY2tuZXNzLW5vcm1hbCBlZGdlLXBhdHRlcm4tc29saWQgZmxvd2NoYXJ0LWxpbmsiIGlkPSJMX0kxX0kyXzE5IiBkPSJNNDQxNC4xNTIsNTI5Ljg4M0w0MzAxLjE1Niw1MzcuNDAzQzQxODguMTYsNTQ0LjkyMiwzOTYyLjE2OCw1NTkuOTYxLDM4NDkuMTcyLDU3MC45ODFDMzczNi4xNzYsNTgyLDM3MzYuMTc2LDU4OSwzNzM2LjE3Niw1OTIuNUwzNzM2LjE3Niw1OTYiPjwvcGF0aD48cGF0aCBtYXJrZXItZW5kPSJ1cmwoI2dlTWVybWFpZE91dHB1dC0xNzQ3NjIwMjU5MTE5X2Zsb3djaGFydC12Mi1wb2ludEVuZCkiIHN0eWxlPSIiIGNsYXNzPSJlZGdlLXRoaWNrbmVzcy1ub3JtYWwgZWRnZS1wYXR0ZXJuLXNvbGlkIGVkZ2UtdGhpY2tuZXNzLW5vcm1hbCBlZGdlLXBhdHRlcm4tc29saWQgZmxvd2NoYXJ0LWxpbmsiIGlkPSJMX0kyX0pfMjAiIGQ9Ik0zNzM2LjE3Niw2NzhMMzczNi4xNzYsNjgyLjE2N0MzNzM2LjE3Niw2ODYuMzMzLDM3MzYuMTc2LDY5NC42NjcsMzczNi4xNzYsNzAyLjMzM0MzNzM2LjE3Niw3MTAsMzczNi4xNzYsNzE3LDM3MzYuMTc2LDcyMC41TDM3MzYuMTc2LDcyNCI+PC9wYXRoPjxwYXRoIG1hcmtlci1lbmQ9InVybCgjZ2VNZXJtYWlkT3V0cHV0LTE3NDc2MjAyNTkxMTlfZmxvd2NoYXJ0LXYyLXBvaW50RW5kKSIgc3R5bGU9IiIgY2xhc3M9ImVkZ2UtdGhpY2tuZXNzLW5vcm1hbCBlZGdlLXBhdHRlcm4tc29saWQgZWRnZS10aGlja25lc3Mtbm9ybWFsIGVkZ2UtcGF0dGVybi1zb2xpZCBmbG93Y2hhcnQtbGluayIgaWQ9IkxfSl9LXzIxIiBkPSJNMzY0Mi4zMzIsNzU5LjkyMkwzNDkyLjcxNiw3NjcuNzY4QzMzNDMuMSw3NzUuNjE0LDMwNDMuODY4LDc5MS4zMDcsMjg5NC4yNTMsODAyLjY1NEMyNzQ0LjYzNyw4MTQsMjc0NC42MzcsODIxLDI3NDQuNjM3LDgyNC41TDI3NDQuNjM3LDgyOCI+PC9wYXRoPjxwYXRoIG1hcmtlci1lbmQ9InVybCgjZ2VNZXJtYWlkT3V0cHV0LTE3NDc2MjAyNTkxMTlfZmxvd2NoYXJ0LXYyLXBvaW50RW5kKSIgc3R5bGU9IiIgY2xhc3M9ImVkZ2UtdGhpY2tuZXNzLW5vcm1hbCBlZGdlLXBhdHRlcm4tc29saWQgZWRnZS10aGlja25lc3Mtbm9ybWFsIGVkZ2UtcGF0dGVybi1zb2xpZCBmbG93Y2hhcnQtbGluayIgaWQ9IkxfS19MXzIyIiBkPSJNMjc0NC42MzcsOTEwTDI3NDQuNjM3LDkxNi4wODNDMjc0NC42MzcsOTIyLjE2NywyNzQ0LjYzNyw5MzQuMzMzLDI3NDQuNjM3LDk0NS44MzNDMjc0NC42MzcsOTU3LjMzMywyNzQ0LjYzNyw5NjguMTY3LDI3NDQuNjM3LDk3My41ODNMMjc0NC42MzcsOTc5Ij48L3BhdGg+PHBhdGggbWFya2VyLWVuZD0idXJsKCNnZU1lcm1haWRPdXRwdXQtMTc0NzYyMDI1OTExOV9mbG93Y2hhcnQtdjItcG9pbnRFbmQpIiBzdHlsZT0iIiBjbGFzcz0iZWRnZS10aGlja25lc3Mtbm9ybWFsIGVkZ2UtcGF0dGVybi1zb2xpZCBlZGdlLXRoaWNrbmVzcy1ub3JtYWwgZWRnZS1wYXR0ZXJuLXNvbGlkIGZsb3djaGFydC1saW5rIiBpZD0iTF9MX01fMjMiIGQ9Ik0yNzQ0LjYzNywxMDYxTDI3NDQuNjM3LDEwNjUuMTY3QzI3NDQuNjM3LDEwNjkuMzMzLDI3NDQuNjM3LDEwNzcuNjY3LDI3OTMuMzY5LDEwODkuNDgyQzI4NDIuMTAxLDExMDEuMjk3LDI5MzkuNTY1LDExMTYuNTkzLDI5ODguMjk3LDExMjQuMjQyTDMwMzcuMDI5LDExMzEuODkiPjwvcGF0aD48cGF0aCBtYXJrZXItZW5kPSJ1cmwoI2dlTWVybWFpZE91dHB1dC0xNzQ3NjIwMjU5MTE5X2Zsb3djaGFydC12Mi1wb2ludEVuZCkiIHN0eWxlPSIiIGNsYXNzPSJlZGdlLXRoaWNrbmVzcy1ub3JtYWwgZWRnZS1wYXR0ZXJuLXNvbGlkIGVkZ2UtdGhpY2tuZXNzLW5vcm1hbCBlZGdlLXBhdHRlcm4tc29saWQgZmxvd2NoYXJ0LWxpbmsiIGlkPSJMX01fSV8yNCIgZD0iTTMyNjMuODU1LDExNDUuODA5TDM1MjguOTMxLDExMzUuODQxQzM3OTQuMDA3LDExMjUuODczLDQzMjQuMTU4LDExMDUuOTM2LDQ1ODkuMjMzLDEwODUuMzAyQzQ4NTQuMzA5LDEwNjQuNjY3LDQ4NTQuMzA5LDEwNDMuMzMzLDQ4NTQuMzA5LDEwMjAuMDgzQzQ4NTQuMzA5LDk5Ni44MzMsNDg1NC4zMDksOTcxLjY2Nyw0ODU0LjMwOSw5NDYuNUM0ODU0LjMwOSw5MjEuMzMzLDQ4NTQuMzA5LDg5Ni4xNjcsNDg1NC4zMDksODcyLjkxN0M0ODU0LjMwOSw4NDkuNjY3LDQ4NTQuMzA5LDgyOC4zMzMsNDg1NC4zMDksODA5QzQ4NTQuMzA5LDc4OS42NjcsNDg1NC4zMDksNzcyLjMzMyw0ODU0LjMwOSw3NTVDNDg1NC4zMDksNzM3LjY2Nyw0ODU0LjMwOSw3MjAuMzMzLDQ4NTQuMzA5LDcwMUM0ODU0LjMwOSw2ODEuNjY3LDQ4NTQuMzA5LDY2MC4zMzMsNDg1NC4zMDksNjM5QzQ4NTQuMzA5LDYxNy42NjcsNDg1NC4zMDksNTk2LjMzMyw0ODU0LjMwOSw1NzdDNDg1NC4zMDksNTU3LjY2Nyw0ODU0LjMwOSw1NDAuMzMzLDQ4NTQuMzA5LDUyM0M0ODU0LjMwOSw1MDUuNjY3LDQ4NTQuMzA5LDQ4OC4zMzMsNDg1NC4yNTIsNDc2LjE2N0M0ODU0LjE5NSw0NjQsNDg1NC4wOCw0NTcsNDg1NC4wMjMsNDUzLjVMNDg1My45NjYsNDQ5Ljk5OSI+PC9wYXRoPjxwYXRoIG1hcmtlci1lbmQ9InVybCgjZ2VNZXJtYWlkT3V0cHV0LTE3NDc2MjAyNTkxMTlfZmxvd2NoYXJ0LXYyLXBvaW50RW5kKSIgc3R5bGU9IiIgY2xhc3M9ImVkZ2UtdGhpY2tuZXNzLW5vcm1hbCBlZGdlLXBhdHRlcm4tc29saWQgZWRnZS10aGlja25lc3Mtbm9ybWFsIGVkZ2UtcGF0dGVybi1zb2xpZCBmbG93Y2hhcnQtbGluayIgaWQ9IkxfSl9OXzI1IiBkPSJNMzY0Mi4zMzIsNzY0LjYzMUwzNTczLjUyMyw3NzEuNjkyQzM1MDQuNzE0LDc3OC43NTQsMzM2Ny4wOTUsNzkyLjg3NywzMjk4LjI4Niw4MDMuNDM4QzMyMjkuNDc3LDgxNCwzMjI5LjQ3Nyw4MjEsMzIyOS40NzcsODI0LjVMMzIyOS40NzcsODI4Ij48L3BhdGg+PHBhdGggbWFya2VyLWVuZD0idXJsKCNnZU1lcm1haWRPdXRwdXQtMTc0NzYyMDI1OTExOV9mbG93Y2hhcnQtdjItcG9pbnRFbmQpIiBzdHlsZT0iIiBjbGFzcz0iZWRnZS10aGlja25lc3Mtbm9ybWFsIGVkZ2UtcGF0dGVybi1zb2xpZCBlZGdlLXRoaWNrbmVzcy1ub3JtYWwgZWRnZS1wYXR0ZXJuLXNvbGlkIGZsb3djaGFydC1saW5rIiBpZD0iTF9OX09fMjYiIGQ9Ik0zMjI5LjQ3Nyw5MTBMMzIyOS40NzcsOTE2LjA4M0MzMjI5LjQ3Nyw5MjIuMTY3LDMyMjkuNDc3LDkzNC4zMzMsMzIyOS40NzcsOTQ1LjgzM0MzMjI5LjQ3Nyw5NTcuMzMzLDMyMjkuNDc3LDk2OC4xNjcsMzIyOS40NzcsOTczLjU4M0wzMjI5LjQ3Nyw5NzkiPjwvcGF0aD48cGF0aCBtYXJrZXItZW5kPSJ1cmwoI2dlTWVybWFpZE91dHB1dC0xNzQ3NjIwMjU5MTE5X2Zsb3djaGFydC12Mi1wb2ludEVuZCkiIHN0eWxlPSIiIGNsYXNzPSJlZGdlLXRoaWNrbmVzcy1ub3JtYWwgZWRnZS1wYXR0ZXJuLXNvbGlkIGVkZ2UtdGhpY2tuZXNzLW5vcm1hbCBlZGdlLXBhdHRlcm4tc29saWQgZmxvd2NoYXJ0LWxpbmsiIGlkPSJMX09fUF8yNyIgZD0iTTMyMjkuNDc3LDEwNjFMMzIyOS40NzcsMTA2NS4xNjdDMzIyOS40NzcsMTA2OS4zMzMsMzIyOS40NzcsMTA3Ny42NjcsMzI4Ny43NDYsMTA4OS44NTNDMzM0Ni4wMTYsMTEwMi4wMzksMzQ2Mi41NTYsMTExOC4wNzgsMzUyMC44MjYsMTEyNi4wOThMMzU3OS4wOTYsMTEzNC4xMTgiPjwvcGF0aD48cGF0aCBtYXJrZXItZW5kPSJ1cmwoI2dlTWVybWFpZE91dHB1dC0xNzQ3NjIwMjU5MTE5X2Zsb3djaGFydC12Mi1wb2ludEVuZCkiIHN0eWxlPSIiIGNsYXNzPSJlZGdlLXRoaWNrbmVzcy1ub3JtYWwgZWRnZS1wYXR0ZXJuLXNvbGlkIGVkZ2UtdGhpY2tuZXNzLW5vcm1hbCBlZGdlLXBhdHRlcm4tc29saWQgZmxvd2NoYXJ0LWxpbmsiIGlkPSJMX1BfSV8yOCIgZD0iTTM4MDUuOTM0LDExNDMuOTU1TDM5ODMuOTk2LDExMzQuMjk2QzQxNjIuMDU5LDExMjQuNjM3LDQ1MTguMTg0LDExMDUuMzE4LDQ2OTYuMjQ2LDEwODQuOTkyQzQ4NzQuMzA5LDEwNjQuNjY3LDQ4NzQuMzA5LDEwNDMuMzMzLDQ4NzQuMzA5LDEwMjAuMDgzQzQ4NzQuMzA5LDk5Ni44MzMsNDg3NC4zMDksOTcxLjY2Nyw0ODc0LjMwOSw5NDYuNUM0ODc0LjMwOSw5MjEuMzMzLDQ4NzQuMzA5LDg5Ni4xNjcsNDg3NC4zMDksODcyLjkxN0M0ODc0LjMwOSw4NDkuNjY3LDQ4NzQuMzA5LDgyOC4zMzMsNDg3NC4zMDksODA5QzQ4NzQuMzA5LDc4OS42NjcsNDg3NC4zMDksNzcyLjMzMyw0ODc0LjMwOSw3NTVDNDg3NC4zMDksNzM3LjY2Nyw0ODc0LjMwOSw3MjAuMzMzLDQ4NzQuMzA5LDcwMUM0ODc0LjMwOSw2ODEuNjY3LDQ4NzQuMzA5LDY2MC4zMzMsNDg3NC4zMDksNjM5QzQ4NzQuMzA5LDYxNy42NjcsNDg3NC4zMDksNTk2LjMzMyw0ODc0LjMwOSw1NzdDNDg3NC4zMDksNTU3LjY2Nyw0ODc0LjMwOSw1NDAuMzMzLDQ4NzQuMzA5LDUyM0M0ODc0LjMwOSw1MDUuNjY3LDQ4NzQuMzA5LDQ4OC4zMzMsNDg3My4xNDcsNDc2LjEzM0M0ODcxLjk4NSw0NjMuOTMzLDQ4NjkuNjYyLDQ1Ni44NjcsNDg2OC41LDQ1My4zMzNMNDg2Ny4zMzgsNDQ5LjgiPjwvcGF0aD48cGF0aCBtYXJrZXItZW5kPSJ1cmwoI2dlTWVybWFpZE91dHB1dC0xNzQ3NjIwMjU5MTE5X2Zsb3djaGFydC12Mi1wb2ludEVuZCkiIHN0eWxlPSIiIGNsYXNzPSJlZGdlLXRoaWNrbmVzcy1ub3JtYWwgZWRnZS1wYXR0ZXJuLXNvbGlkIGVkZ2UtdGhpY2tuZXNzLW5vcm1hbCBlZGdlLXBhdHRlcm4tc29saWQgZmxvd2NoYXJ0LWxpbmsiIGlkPSJMX0pfUV8yOSIgZD0iTTM3MDYuOTYzLDc4MkwzNzAyLjQ1NSw3ODYuMTY3QzM2OTcuOTQ3LDc5MC4zMzMsMzY4OC45Myw3OTguNjY3LDM2ODQuNDIyLDgwNi4zMzNDMzY3OS45MTQsODE0LDM2NzkuOTE0LDgyMSwzNjc5LjkxNCw4MjQuNUwzNjc5LjkxNCw4MjgiPjwvcGF0aD48cGF0aCBtYXJrZXItZW5kPSJ1cmwoI2dlTWVybWFpZE91dHB1dC0xNzQ3NjIwMjU5MTE5X2Zsb3djaGFydC12Mi1wb2ludEVuZCkiIHN0eWxlPSIiIGNsYXNzPSJlZGdlLXRoaWNrbmVzcy1ub3JtYWwgZWRnZS1wYXR0ZXJuLXNvbGlkIGVkZ2UtdGhpY2tuZXNzLW5vcm1hbCBlZGdlLXBhdHRlcm4tc29saWQgZmxvd2NoYXJ0LWxpbmsiIGlkPSJMX1FfUl8zMCIgZD0iTTM2NzkuOTE0LDkxMEwzNjc5LjkxNCw5MTYuMDgzQzM2NzkuOTE0LDkyMi4xNjcsMzY3OS45MTQsOTM0LjMzMywzNjc5LjkxNCw5NDUuODMzQzM2NzkuOTE0LDk1Ny4zMzMsMzY3OS45MTQsOTY4LjE2NywzNjc5LjkxNCw5NzMuNTgzTDM2NzkuOTE0LDk3OSI+PC9wYXRoPjxwYXRoIG1hcmtlci1lbmQ9InVybCgjZ2VNZXJtYWlkT3V0cHV0LTE3NDc2MjAyNTkxMTlfZmxvd2NoYXJ0LXYyLXBvaW50RW5kKSIgc3R5bGU9IiIgY2xhc3M9ImVkZ2UtdGhpY2tuZXNzLW5vcm1hbCBlZGdlLXBhdHRlcm4tc29saWQgZWRnZS10aGlja25lc3Mtbm9ybWFsIGVkZ2UtcGF0dGVybi1zb2xpZCBmbG93Y2hhcnQtbGluayIgaWQ9IkxfUl9TXzMxIiBkPSJNMzY3OS45MTQsMTA2MUwzNjc5LjkxNCwxMDY1LjE2N0MzNjc5LjkxNCwxMDY5LjMzMywzNjc5LjkxNCwxMDc3LjY2NywzNzYwLjI1NCwxMDkwLjMyNkMzODQwLjU5NSwxMTAyLjk4NSw0MDAxLjI3NSwxMTE5Ljk3LDQwODEuNjE1LDExMjguNDYyTDQxNjEuOTU2LDExMzYuOTU0Ij48L3BhdGg+PHBhdGggbWFya2VyLWVuZD0idXJsKCNnZU1lcm1haWRPdXRwdXQtMTc0NzYyMDI1OTExOV9mbG93Y2hhcnQtdjItcG9pbnRFbmQpIiBzdHlsZT0iIiBjbGFzcz0iZWRnZS10aGlja25lc3Mtbm9ybWFsIGVkZ2UtcGF0dGVybi1zb2xpZCBlZGdlLXRoaWNrbmVzcy1ub3JtYWwgZWRnZS1wYXR0ZXJuLXNvbGlkIGZsb3djaGFydC1saW5rIiBpZD0iTF9TX0lfMzIiIGQ9Ik00NDA0LjgwOSwxMTM3LjQ0N0w0NDg2LjM5MiwxMTI4Ljg3MkM0NTY3Ljk3NSwxMTIwLjI5OCw0NzMxLjE0MiwxMTAzLjE0OSw0ODEyLjcyNSwxMDgzLjkwOEM0ODk0LjMwOSwxMDY0LjY2Nyw0ODk0LjMwOSwxMDQzLjMzMyw0ODk0LjMwOSwxMDIwLjA4M0M0ODk0LjMwOSw5OTYuODMzLDQ4OTQuMzA5LDk3MS42NjcsNDg5NC4zMDksOTQ2LjVDNDg5NC4zMDksOTIxLjMzMyw0ODk0LjMwOSw4OTYuMTY3LDQ4OTQuMzA5LDg3Mi45MTdDNDg5NC4zMDksODQ5LjY2Nyw0ODk0LjMwOSw4MjguMzMzLDQ4OTQuMzA5LDgwOUM0ODk0LjMwOSw3ODkuNjY3LDQ4OTQuMzA5LDc3Mi4zMzMsNDg5NC4zMDksNzU1QzQ4OTQuMzA5LDczNy42NjcsNDg5NC4zMDksNzIwLjMzMyw0ODk0LjMwOSw3MDFDNDg5NC4zMDksNjgxLjY2Nyw0ODk0LjMwOSw2NjAuMzMzLDQ4OTQuMzA5LDYzOUM0ODk0LjMwOSw2MTcuNjY3LDQ4OTQuMzA5LDU5Ni4zMzMsNDg5NC4zMDksNTc3QzQ4OTQuMzA5LDU1Ny42NjcsNDg5NC4zMDksNTQwLjMzMyw0ODk0LjMwOSw1MjNDNDg5NC4zMDksNTA1LjY2Nyw0ODk0LjMwOSw0ODguMzMzLDQ4OTEuOTk2LDQ3Ni4wNjFDNDg4OS42ODQsNDYzLjc4OSw0ODg1LjA2LDQ1Ni41NzgsNDg4Mi43NDgsNDUyLjk3M0w0ODgwLjQzNSw0NDkuMzY3Ij48L3BhdGg+PHBhdGggbWFya2VyLWVuZD0idXJsKCNnZU1lcm1haWRPdXRwdXQtMTc0NzYyMDI1OTExOV9mbG93Y2hhcnQtdjItcG9pbnRFbmQpIiBzdHlsZT0iIiBjbGFzcz0iZWRnZS10aGlja25lc3Mtbm9ybWFsIGVkZ2UtcGF0dGVybi1zb2xpZCBlZGdlLXRoaWNrbmVzcy1ub3JtYWwgZWRnZS1wYXR0ZXJuLXNvbGlkIGZsb3djaGFydC1saW5rIiBpZD0iTF9KX1RfMzMiIGQ9Ik0zODMwLjAyLDc3NC4yMzJMMzg1Ni42NjksNzc5LjY5M0MzODgzLjMxOCw3ODUuMTU1LDM5MzYuNjE2LDc5Ni4wNzcsMzk2My4yNjUsODA1LjAzOUMzOTg5LjkxNCw4MTQsMzk4OS45MTQsODIxLDM5ODkuOTE0LDgyNC41TDM5ODkuOTE0LDgyOCI+PC9wYXRoPjxwYXRoIG1hcmtlci1lbmQ9InVybCgjZ2VNZXJtYWlkT3V0cHV0LTE3NDc2MjAyNTkxMTlfZmxvd2NoYXJ0LXYyLXBvaW50RW5kKSIgc3R5bGU9IiIgY2xhc3M9ImVkZ2UtdGhpY2tuZXNzLW5vcm1hbCBlZGdlLXBhdHRlcm4tc29saWQgZWRnZS10aGlja25lc3Mtbm9ybWFsIGVkZ2UtcGF0dGVybi1zb2xpZCBmbG93Y2hhcnQtbGluayIgaWQ9IkxfVF9VXzM0IiBkPSJNMzk4OS45MTQsOTEwTDM5ODkuOTE0LDkxNi4wODNDMzk4OS45MTQsOTIyLjE2NywzOTg5LjkxNCw5MzQuMzMzLDM5ODkuOTE0LDk0NS44MzNDMzk4OS45MTQsOTU3LjMzMywzOTg5LjkxNCw5NjguMTY3LDM5ODkuOTE0LDk3My41ODNMMzk4OS45MTQsOTc5Ij48L3BhdGg+PHBhdGggbWFya2VyLWVuZD0idXJsKCNnZU1lcm1haWRPdXRwdXQtMTc0NzYyMDI1OTExOV9mbG93Y2hhcnQtdjItcG9pbnRFbmQpIiBzdHlsZT0iIiBjbGFzcz0iZWRnZS10aGlja25lc3Mtbm9ybWFsIGVkZ2UtcGF0dGVybi1zb2xpZCBlZGdlLXRoaWNrbmVzcy1ub3JtYWwgZWRnZS1wYXR0ZXJuLXNvbGlkIGZsb3djaGFydC1saW5rIiBpZD0iTF9VX1UxXzM1IiBkPSJNMzk4OS45MTQsMTA2MUwzOTg5LjkxNCwxMDY1LjE2N0MzOTg5LjkxNCwxMDY5LjMzMywzOTg5LjkxNCwxMDc3LjY2NywzOTE0LjQzNCwxMDkwLjM2MUMzODM4Ljk1NCwxMTAzLjA1NiwzNjg3Ljk5NCwxMTIwLjExMiwzNjEyLjUxMywxMTI4LjY0TDM1MzcuMDMzLDExMzcuMTY4Ij48L3BhdGg+PHBhdGggbWFya2VyLWVuZD0idXJsKCNnZU1lcm1haWRPdXRwdXQtMTc0NzYyMDI1OTExOV9mbG93Y2hhcnQtdjItcG9pbnRFbmQpIiBzdHlsZT0iIiBjbGFzcz0iZWRnZS10aGlja25lc3Mtbm9ybWFsIGVkZ2UtcGF0dGVybi1zb2xpZCBlZGdlLXRoaWNrbmVzcy1ub3JtYWwgZWRnZS1wYXR0ZXJuLXNvbGlkIGZsb3djaGFydC1saW5rIiBpZD0iTF9VMV9KXzM2IiBkPSJNMzUzMy4wNTksMTE0NC4yNjFMMzcxOC40OTEsMTEzNC41NTFDMzkwMy45MjMsMTEyNC44NCw0Mjc0Ljc4OCwxMTA1LjQyLDQ0NjAuMjIsMTA4NS4wNDNDNDY0NS42NTIsMTA2NC42NjcsNDY0NS42NTIsMTA0My4zMzMsNDY0NS42NTIsMTAyMC4wODNDNDY0NS42NTIsOTk2LjgzMyw0NjQ1LjY1Miw5NzEuNjY3LDQ2NDUuNjUyLDk0Ni41QzQ2NDUuNjUyLDkyMS4zMzMsNDY0NS42NTIsODk2LjE2Nyw0NjQ1LjY1Miw4NzIuOTE3QzQ2NDUuNjUyLDg0OS42NjcsNDY0NS42NTIsODI4LjMzMyw0NTEwLjM3OSw4MDkuOTMyQzQzNzUuMTA2LDc5MS41MzEsNDEwNC41NTksNzc2LjA2MywzOTY5LjI4Niw3NjguMzI4TDM4MzQuMDEzLDc2MC41OTQiPjwvcGF0aD48cGF0aCBtYXJrZXItZW5kPSJ1cmwoI2dlTWVybWFpZE91dHB1dC0xNzQ3NjIwMjU5MTE5X2Zsb3djaGFydC12Mi1wb2ludEVuZCkiIHN0eWxlPSIiIGNsYXNzPSJlZGdlLXRoaWNrbmVzcy1ub3JtYWwgZWRnZS1wYXR0ZXJuLXNvbGlkIGVkZ2UtdGhpY2tuZXNzLW5vcm1hbCBlZGdlLXBhdHRlcm4tc29saWQgZmxvd2NoYXJ0LWxpbmsiIGlkPSJMX0pfVl8zNyIgZD0iTTM4MzAuMDIsNzYzLjY1NkwzOTA4LjMzNSw3NzAuODhDMzk4Ni42NTEsNzc4LjEwNCw0MTQzLjI4Myw3OTIuNTUyLDQyMjEuNTk4LDgwMy4yNzZDNDI5OS45MTQsODE0LDQyOTkuOTE0LDgyMSw0Mjk5LjkxNCw4MjQuNUw0Mjk5LjkxNCw4MjgiPjwvcGF0aD48cGF0aCBtYXJrZXItZW5kPSJ1cmwoI2dlTWVybWFpZE91dHB1dC0xNzQ3NjIwMjU5MTE5X2Zsb3djaGFydC12Mi1wb2ludEVuZCkiIHN0eWxlPSIiIGNsYXNzPSJlZGdlLXRoaWNrbmVzcy1ub3JtYWwgZWRnZS1wYXR0ZXJuLXNvbGlkIGVkZ2UtdGhpY2tuZXNzLW5vcm1hbCBlZGdlLXBhdHRlcm4tc29saWQgZmxvd2NoYXJ0LWxpbmsiIGlkPSJMX1ZfV18zOCIgZD0iTTQyOTkuOTE0LDkxMEw0Mjk5LjkxNCw5MTYuMDgzQzQyOTkuOTE0LDkyMi4xNjcsNDI5OS45MTQsOTM0LjMzMyw0Mjk5LjkxNCw5NDUuODMzQzQyOTkuOTE0LDk1Ny4zMzMsNDI5OS45MTQsOTY4LjE2Nyw0Mjk5LjkxNCw5NzMuNTgzTDQyOTkuOTE0LDk3OSI+PC9wYXRoPjxwYXRoIG1hcmtlci1lbmQ9InVybCgjZ2VNZXJtYWlkT3V0cHV0LTE3NDc2MjAyNTkxMTlfZmxvd2NoYXJ0LXYyLXBvaW50RW5kKSIgc3R5bGU9IiIgY2xhc3M9ImVkZ2UtdGhpY2tuZXNzLW5vcm1hbCBlZGdlLXBhdHRlcm4tc29saWQgZWRnZS10aGlja25lc3Mtbm9ybWFsIGVkZ2UtcGF0dGVybi1zb2xpZCBmbG93Y2hhcnQtbGluayIgaWQ9IkxfV19YXzM5IiBkPSJNNDIxMS41NTUsMTA2MUw0MjAyLjExNSwxMDY1LjE2N0M0MTkyLjY3NCwxMDY5LjMzMyw0MTczLjc5NCwxMDc3LjY2NywzOTcxLjAzMSwxMDkxLjY2OUMzNzY4LjI2OCwxMTA1LjY3MSwzMzgxLjYyMiwxMTI1LjM0MywzMTg4LjI5OCwxMTM1LjE3OUwyOTk0Ljk3NSwxMTQ1LjAxNCI+PC9wYXRoPjxwYXRoIG1hcmtlci1lbmQ9InVybCgjZ2VNZXJtYWlkT3V0cHV0LTE3NDc2MjAyNTkxMTlfZmxvd2NoYXJ0LXYyLXBvaW50RW5kKSIgc3R5bGU9IiIgY2xhc3M9ImVkZ2UtdGhpY2tuZXNzLW5vcm1hbCBlZGdlLXBhdHRlcm4tc29saWQgZWRnZS10aGlja25lc3Mtbm9ybWFsIGVkZ2UtcGF0dGVybi1zb2xpZCBmbG93Y2hhcnQtbGluayIgaWQ9IkxfV19ZXzQwIiBkPSJNNDQyOS45MTQsMTA1NC44NTRMNDQ1MC40NTQsMTA2MC4wNDVDNDQ3MC45OTMsMTA2NS4yMzYsNDUxMi4wNzMsMTA3NS42MTgsNDQ2MC40MDUsMTA4OC45NTZDNDQwOC43MzgsMTEwMi4yOTQsNDI2NC4zMjMsMTExOC41ODksNDE5Mi4xMTYsMTEyNi43MzZMNDExOS45MDgsMTEzNC44ODMiPjwvcGF0aD48cGF0aCBtYXJrZXItZW5kPSJ1cmwoI2dlTWVybWFpZE91dHB1dC0xNzQ3NjIwMjU5MTE5X2Zsb3djaGFydC12Mi1wb2ludEVuZCkiIHN0eWxlPSIiIGNsYXNzPSJlZGdlLXRoaWNrbmVzcy1ub3JtYWwgZWRnZS1wYXR0ZXJuLXNvbGlkIGVkZ2UtdGhpY2tuZXNzLW5vcm1hbCBlZGdlLXBhdHRlcm4tc29saWQgZmxvd2NoYXJ0LWxpbmsiIGlkPSJMX1lfSl80MSIgZD0iTTQxMTUuOTM0LDExMzguMDU3TDQyMTAuMzc2LDExMjkuMzgxQzQzMDQuODE5LDExMjAuNzA1LDQ0OTMuNzA0LDExMDMuMzUyLDQ1ODguMTQ3LDEwODQuMDFDNDY4Mi41OSwxMDY0LjY2Nyw0NjgyLjU5LDEwNDMuMzMzLDQ2ODIuNTksMTAyMC4wODNDNDY4Mi41OSw5OTYuODMzLDQ2ODIuNTksOTcxLjY2Nyw0NjgyLjU5LDk0Ni41QzQ2ODIuNTksOTIxLjMzMyw0NjgyLjU5LDg5Ni4xNjcsNDY4Mi41OSw4NzIuOTE3QzQ2ODIuNTksODQ5LjY2Nyw0NjgyLjU5LDgyOC4zMzMsNDU0MS4xNiw4MDkuODk2QzQzOTkuNzMxLDc5MS40NTksNDExNi44NzIsNzc1LjkxNywzOTc1LjQ0Myw3NjguMTQ2TDM4MzQuMDE0LDc2MC4zNzYiPjwvcGF0aD48cGF0aCBtYXJrZXItZW5kPSJ1cmwoI2dlTWVybWFpZE91dHB1dC0xNzQ3NjIwMjU5MTE5X2Zsb3djaGFydC12Mi1wb2ludEVuZCkiIHN0eWxlPSIiIGNsYXNzPSJlZGdlLXRoaWNrbmVzcy1ub3JtYWwgZWRnZS1wYXR0ZXJuLXNvbGlkIGVkZ2UtdGhpY2tuZXNzLW5vcm1hbCBlZGdlLXBhdHRlcm4tc29saWQgZmxvd2NoYXJ0LWxpbmsiIGlkPSJMX0cxX0RCX1Byb2plY3RzXzQyIiBkPSJNMTg5Mi40MzgsMTE2OS40NDdMMTkyNS44MjUsMTE3Ni44NzJDMTk1OS4yMTIsMTE4NC4yOTgsMjAyNS45ODcsMTE5OS4xNDksMjA1OS4zNzQsMTIxMC43NDFDMjA5Mi43NjIsMTIyMi4zMzMsMjA5Mi43NjIsMTIzMC42NjcsMjA5Mi43NjIsMTIzOC4zMzNDMjA5Mi43NjIsMTI0NiwyMDkyLjc2MiwxMjUzLDIwOTIuNzYyLDEyNTYuNUwyMDkyLjc2MiwxMjYwIj48L3BhdGg+PHBhdGggbWFya2VyLWVuZD0idXJsKCNnZU1lcm1haWRPdXRwdXQtMTc0NzYyMDI1OTExOV9mbG93Y2hhcnQtdjItcG9pbnRFbmQpIiBzdHlsZT0iIiBjbGFzcz0iZWRnZS10aGlja25lc3Mtbm9ybWFsIGVkZ2UtcGF0dGVybi1zb2xpZCBlZGdlLXRoaWNrbmVzcy1ub3JtYWwgZWRnZS1wYXR0ZXJuLXNvbGlkIGZsb3djaGFydC1saW5rIiBpZD0iTF9IMV9EQl9DdXN0b21lcnNfNDMiIGQ9Ik0yMzEzLjgzNSwxMTc3TDIzMjYuNjQyLDExODMuMTY3QzIzMzkuNDQ4LDExODkuMzMzLDIzNjUuMDYyLDEyMDEuNjY3LDIzNzcuODY5LDEyMTJDMjM5MC42NzYsMTIyMi4zMzMsMjM5MC42NzYsMTIzMC42NjcsMjM5MC42NzYsMTIzOC4zMzNDMjM5MC42NzYsMTI0NiwyMzkwLjY3NiwxMjUzLDIzOTAuNjc2LDEyNTYuNUwyMzkwLjY3NiwxMjYwIj48L3BhdGg+PHBhdGggbWFya2VyLWVuZD0idXJsKCNnZU1lcm1haWRPdXRwdXQtMTc0NzYyMDI1OTExOV9mbG93Y2hhcnQtdjItcG9pbnRFbmQpIiBzdHlsZT0iIiBjbGFzcz0iZWRnZS10aGlja25lc3Mtbm9ybWFsIGVkZ2UtcGF0dGVybi1zb2xpZCBlZGdlLXRoaWNrbmVzcy1ub3JtYWwgZWRnZS1wYXR0ZXJuLXNvbGlkIGZsb3djaGFydC1saW5rIiBpZD0iTF9JMV9EQl9RdW90YXRpb25zXzQ0IiBkPSJNNDYyMS4wMjcsNTQzLjg4OEw0NjQ2LjcwNCw1NDkuMDc0QzQ2NzIuMzgyLDU1NC4yNTksNDcyMy43MzYsNTY0LjYyOSw0NzQ5LjQxMyw1ODAuNDgxQzQ3NzUuMDksNTk2LjMzMyw0Nzc1LjA5LDYxNy42NjcsNDc3NS4wOSw2MzlDNDc3NS4wOSw2NjAuMzMzLDQ3NzUuMDksNjgxLjY2Nyw0Nzc1LjA5LDcwMUM0Nzc1LjA5LDcyMC4zMzMsNDc3NS4wOSw3MzcuNjY3LDQ3NzUuMDksNzU1QzQ3NzUuMDksNzcyLjMzMyw0Nzc1LjA5LDc4OS42NjcsNDc3NS4wOSw4MDlDNDc3NS4wOSw4MjguMzMzLDQ3NzUuMDksODQ5LjY2Nyw0Nzc1LjA5LDg3Mi45MTdDNDc3NS4wOSw4OTYuMTY3LDQ3NzUuMDksOTIxLjMzMyw0Nzc1LjA5LDk0Ni41QzQ3NzUuMDksOTcxLjY2Nyw0Nzc1LjA5LDk5Ni44MzMsNDc3NS4wOSwxMDIwLjA4M0M0Nzc1LjA5LDEwNDMuMzMzLDQ3NzUuMDksMTA2NC42NjcsNDc3NS4wOSwxMDg2QzQ3NzUuMDksMTEwNy4zMzMsNDc3NS4wOSwxMTI4LjY2Nyw0Nzc1LjA5LDExNTBDNDc3NS4wOSwxMTcxLjMzMyw0Nzc1LjA5LDExOTIuNjY3LDQ3NzUuMDksMTIwNy41QzQ3NzUuMDksMTIyMi4zMzMsNDc3NS4wOSwxMjMwLjY2Nyw0NjcwLjUxMiwxMjQyLjMzNEM0NTY1LjkzNCwxMjU0LjAwMiw0MzU2Ljc3OCwxMjY5LjAwNCw0MjUyLjIsMTI3Ni41MDVMNDE0Ny42MjMsMTI4NC4wMDYiPjwvcGF0aD48cGF0aCBtYXJrZXItZW5kPSJ1cmwoI2dlTWVybWFpZE91dHB1dC0xNzQ3NjIwMjU5MTE5X2Zsb3djaGFydC12Mi1wb2ludEVuZCkiIHN0eWxlPSIiIGNsYXNzPSJlZGdlLXRoaWNrbmVzcy1ub3JtYWwgZWRnZS1wYXR0ZXJuLXNvbGlkIGVkZ2UtdGhpY2tuZXNzLW5vcm1hbCBlZGdlLXBhdHRlcm4tc29saWQgZmxvd2NoYXJ0LWxpbmsiIGlkPSJMX01fREJfUXVvdGF0aW9uc180NSIgZD0iTTMxNTIuNDE4LDExNzdMMzE1Mi40MTgsMTE4My4xNjdDMzE1Mi40MTgsMTE4OS4zMzMsMzE1Mi40MTgsMTIwMS42NjcsMzE1Mi40MTgsMTIxMkMzMTUyLjQxOCwxMjIyLjMzMywzMTUyLjQxOCwxMjMwLjY2NywzMjg1Ljc4LDEyNDIuNTU5QzM0MTkuMTQzLDEyNTQuNDUsMzY4NS44NjgsMTI2OS45MDEsMzgxOS4yMywxMjc3LjYyNkwzOTUyLjU5MywxMjg1LjM1MSI+PC9wYXRoPjxwYXRoIG1hcmtlci1lbmQ9InVybCgjZ2VNZXJtYWlkT3V0cHV0LTE3NDc2MjAyNTkxMTlfZmxvd2NoYXJ0LXYyLXBvaW50RW5kKSIgc3R5bGU9IiIgY2xhc3M9ImVkZ2UtdGhpY2tuZXNzLW5vcm1hbCBlZGdlLXBhdHRlcm4tc29saWQgZWRnZS10aGlja25lc3Mtbm9ybWFsIGVkZ2UtcGF0dGVybi1zb2xpZCBmbG93Y2hhcnQtbGluayIgaWQ9IkxfUF9EQl9RdW90YXRpb25zXzQ2IiBkPSJNMzY5NC40OTYsMTE3N0wzNjk0LjQ5NiwxMTgzLjE2N0MzNjk0LjQ5NiwxMTg5LjMzMywzNjk0LjQ5NiwxMjAxLjY2NywzNjk0LjQ5NiwxMjEyQzM2OTQuNDk2LDEyMjIuMzMzLDM2OTQuNDk2LDEyMzAuNjY3LDM3MzcuNTE4LDEyNDEuMTI0QzM3ODAuNTQsMTI1MS41ODIsMzg2Ni41ODQsMTI2NC4xNjQsMzkwOS42MDYsMTI3MC40NTVMMzk1Mi42MjgsMTI3Ni43NDYiPjwvcGF0aD48cGF0aCBtYXJrZXItZW5kPSJ1cmwoI2dlTWVybWFpZE91dHB1dC0xNzQ3NjIwMjU5MTE5X2Zsb3djaGFydC12Mi1wb2ludEVuZCkiIHN0eWxlPSIiIGNsYXNzPSJlZGdlLXRoaWNrbmVzcy1ub3JtYWwgZWRnZS1wYXR0ZXJuLXNvbGlkIGVkZ2UtdGhpY2tuZXNzLW5vcm1hbCBlZGdlLXBhdHRlcm4tc29saWQgZmxvd2NoYXJ0LWxpbmsiIGlkPSJMX1NfREJfUXVvdGF0aW9uc180NyIgZD0iTTQyODUuMzcxLDExNzdMNDI4NS4zNzEsMTE4My4xNjdDNDI4NS4zNzEsMTE4OS4zMzMsNDI4NS4zNzEsMTIwMS42NjcsNDI4NS4zNzEsMTIxMkM0Mjg1LjM3MSwxMjIyLjMzMyw0Mjg1LjM3MSwxMjMwLjY2Nyw0MjYyLjM5OSwxMjM5LjkxMUM0MjM5LjQyNywxMjQ5LjE1NSw0MTkzLjQ4MywxMjU5LjMxLDQxNzAuNTExLDEyNjQuMzg4TDQxNDcuNTM5LDEyNjkuNDY1Ij48L3BhdGg+PHBhdGggbWFya2VyLWVuZD0idXJsKCNnZU1lcm1haWRPdXRwdXQtMTc0NzYyMDI1OTExOV9mbG93Y2hhcnQtdjItcG9pbnRFbmQpIiBzdHlsZT0iIiBjbGFzcz0iZWRnZS10aGlja25lc3Mtbm9ybWFsIGVkZ2UtcGF0dGVybi1zb2xpZCBlZGdlLXRoaWNrbmVzcy1ub3JtYWwgZWRnZS1wYXR0ZXJuLXNvbGlkIGZsb3djaGFydC1saW5rIiBpZD0iTF9ZX0RCX1F1b3RhdGlvbnNfNDgiIGQ9Ik0zOTg1LjkzNCwxMTg5TDM5ODUuOTM0LDExOTMuMTY3QzM5ODUuOTM0LDExOTcuMzMzLDM5ODUuOTM0LDEyMDUuNjY3LDM5ODUuOTM0LDEyMTRDMzk4NS45MzQsMTIyMi4zMzMsMzk4NS45MzQsMTIzMC42NjcsMzk5MC41NTgsMTIzOC41OEMzOTk1LjE4MiwxMjQ2LjQ5NCw0MDA0LjQzMSwxMjUzLjk4OCw0MDA5LjA1NSwxMjU3LjczNUw0MDEzLjY3OSwxMjYxLjQ4MiI+PC9wYXRoPjwvZz48ZyBjbGFzcz0iZWRnZUxhYmVscyI+PGc+PHJlY3Qgc3R5bGU9InN0cm9rZTogbm9uZSIgY2xhc3M9ImJhY2tncm91bmQiPjwvcmVjdD48L2c+PGc+PHJlY3Qgc3R5bGU9InN0cm9rZTogbm9uZSIgY2xhc3M9ImJhY2tncm91bmQiPjwvcmVjdD48L2c+PGc+PHJlY3Qgc3R5bGU9InN0cm9rZTogbm9uZSIgY2xhc3M9ImJhY2tncm91bmQiPjwvcmVjdD48L2c+PGc+PHJlY3Qgc3R5bGU9InN0cm9rZTogbm9uZSIgY2xhc3M9ImJhY2tncm91bmQiPjwvcmVjdD48L2c+PGc+PHJlY3Qgc3R5bGU9InN0cm9rZTogbm9uZSIgY2xhc3M9ImJhY2tncm91bmQiPjwvcmVjdD48L2c+PGc+PHJlY3Qgc3R5bGU9InN0cm9rZTogbm9uZSIgY2xhc3M9ImJhY2tncm91bmQiPjwvcmVjdD48L2c+PGc+PHJlY3Qgc3R5bGU9InN0cm9rZTogbm9uZSIgY2xhc3M9ImJhY2tncm91bmQiPjwvcmVjdD48L2c+PGc+PHJlY3Qgc3R5bGU9InN0cm9rZTogbm9uZSIgY2xhc3M9ImJhY2tncm91bmQiPjwvcmVjdD48L2c+PGc+PHJlY3Qgc3R5bGU9InN0cm9rZTogbm9uZSIgY2xhc3M9ImJhY2tncm91bmQiPjwvcmVjdD48L2c+PGc+PHJlY3Qgc3R5bGU9InN0cm9rZTogbm9uZSIgY2xhc3M9ImJhY2tncm91bmQiPjwvcmVjdD48L2c+PGc+PHJlY3Qgc3R5bGU9InN0cm9rZTogbm9uZSIgY2xhc3M9ImJhY2tncm91bmQiPjwvcmVjdD48L2c+PGc+PHJlY3Qgc3R5bGU9InN0cm9rZTogbm9uZSIgY2xhc3M9ImJhY2tncm91bmQiPjwvcmVjdD48L2c+PGc+PHJlY3Qgc3R5bGU9InN0cm9rZTogbm9uZSIgY2xhc3M9ImJhY2tncm91bmQiPjwvcmVjdD48L2c+PGc+PHJlY3Qgc3R5bGU9InN0cm9rZTogbm9uZSIgY2xhc3M9ImJhY2tncm91bmQiPjwvcmVjdD48L2c+PGc+PHJlY3Qgc3R5bGU9InN0cm9rZTogbm9uZSIgY2xhc3M9ImJhY2tncm91bmQiPjwvcmVjdD48L2c+PGc+PHJlY3Qgc3R5bGU9InN0cm9rZTogbm9uZSIgY2xhc3M9ImJhY2tncm91bmQiPjwvcmVjdD48L2c+PGc+PHJlY3Qgc3R5bGU9InN0cm9rZTogbm9uZSIgY2xhc3M9ImJhY2tncm91bmQiPjwvcmVjdD48L2c+PGc+PHJlY3Qgc3R5bGU9InN0cm9rZTogbm9uZSIgY2xhc3M9ImJhY2tncm91bmQiPjwvcmVjdD48L2c+PGc+PHJlY3Qgc3R5bGU9InN0cm9rZTogbm9uZSIgY2xhc3M9ImJhY2tncm91bmQiPjwvcmVjdD48L2c+PGc+PHJlY3Qgc3R5bGU9InN0cm9rZTogbm9uZSIgY2xhc3M9ImJhY2tncm91bmQiPjwvcmVjdD48L2c+PGc+PHJlY3Qgc3R5bGU9InN0cm9rZTogbm9uZSIgY2xhc3M9ImJhY2tncm91bmQiPjwvcmVjdD48L2c+PGc+PHJlY3Qgc3R5bGU9InN0cm9rZTogbm9uZSIgY2xhc3M9ImJhY2tncm91bmQiPjwvcmVjdD48L2c+PGc+PHJlY3Qgc3R5bGU9InN0cm9rZTogbm9uZSIgY2xhc3M9ImJhY2tncm91bmQiPjwvcmVjdD48L2c+PGc+PHJlY3Qgc3R5bGU9InN0cm9rZTogbm9uZSIgY2xhc3M9ImJhY2tncm91bmQiPjwvcmVjdD48L2c+PGc+PHJlY3Qgc3R5bGU9InN0cm9rZTogbm9uZSIgY2xhc3M9ImJhY2tncm91bmQiPjwvcmVjdD48L2c+PGc+PHJlY3Qgc3R5bGU9InN0cm9rZTogbm9uZSIgY2xhc3M9ImJhY2tncm91bmQiPjwvcmVjdD48L2c+PGc+PHJlY3Qgc3R5bGU9InN0cm9rZTogbm9uZSIgY2xhc3M9ImJhY2tncm91bmQiPjwvcmVjdD48L2c+PGc+PHJlY3Qgc3R5bGU9InN0cm9rZTogbm9uZSIgY2xhc3M9ImJhY2tncm91bmQiPjwvcmVjdD48L2c+PGc+PHJlY3Qgc3R5bGU9InN0cm9rZTogbm9uZSIgY2xhc3M9ImJhY2tncm91bmQiPjwvcmVjdD48L2c+PGc+PHJlY3Qgc3R5bGU9InN0cm9rZTogbm9uZSIgY2xhc3M9ImJhY2tncm91bmQiPjwvcmVjdD48L2c+PGc+PHJlY3Qgc3R5bGU9InN0cm9rZTogbm9uZSIgY2xhc3M9ImJhY2tncm91bmQiPjwvcmVjdD48L2c+PGc+PHJlY3Qgc3R5bGU9InN0cm9rZTogbm9uZSIgY2xhc3M9ImJhY2tncm91bmQiPjwvcmVjdD48L2c+PGc+PHJlY3Qgc3R5bGU9InN0cm9rZTogbm9uZSIgY2xhc3M9ImJhY2tncm91bmQiPjwvcmVjdD48L2c+PGc+PHJlY3Qgc3R5bGU9InN0cm9rZTogbm9uZSIgY2xhc3M9ImJhY2tncm91bmQiPjwvcmVjdD48L2c+PGc+PHJlY3Qgc3R5bGU9InN0cm9rZTogbm9uZSIgY2xhc3M9ImJhY2tncm91bmQiPjwvcmVjdD48L2c+PGc+PHJlY3Qgc3R5bGU9InN0cm9rZTogbm9uZSIgY2xhc3M9ImJhY2tncm91bmQiPjwvcmVjdD48L2c+PGc+PHJlY3Qgc3R5bGU9InN0cm9rZTogbm9uZSIgY2xhc3M9ImJhY2tncm91bmQiPjwvcmVjdD48L2c+PGc+PHJlY3Qgc3R5bGU9InN0cm9rZTogbm9uZSIgY2xhc3M9ImJhY2tncm91bmQiPjwvcmVjdD48L2c+PGc+PHJlY3Qgc3R5bGU9InN0cm9rZTogbm9uZSIgY2xhc3M9ImJhY2tncm91bmQiPjwvcmVjdD48L2c+PGc+PHJlY3Qgc3R5bGU9InN0cm9rZTogbm9uZSIgY2xhc3M9ImJhY2tncm91bmQiPjwvcmVjdD48L2c+PGc+PHJlY3Qgc3R5bGU9InN0cm9rZTogbm9uZSIgY2xhc3M9ImJhY2tncm91bmQiPjwvcmVjdD48L2c+PGc+PHJlY3Qgc3R5bGU9InN0cm9rZTogbm9uZSIgY2xhc3M9ImJhY2tncm91bmQiPjwvcmVjdD48L2c+PGc+PHJlY3Qgc3R5bGU9InN0cm9rZTogbm9uZSIgY2xhc3M9ImJhY2tncm91bmQiPjwvcmVjdD48L2c+PGc+PHJlY3Qgc3R5bGU9InN0cm9rZTogbm9uZSIgY2xhc3M9ImJhY2tncm91bmQiPjwvcmVjdD48L2c+PGcgY2xhc3M9ImVkZ2VMYWJlbCI+PGcgdHJhbnNmb3JtPSJ0cmFuc2xhdGUoMCwgMCkiIGNsYXNzPSJsYWJlbCI+PHRleHQgeT0iLTEwLjEiPjx0c3BhbiBkeT0iMS4xZW0iIHk9Ii0wLjFlbSIgeD0iMCIgY2xhc3M9InRleHQtb3V0ZXItdHNwYW4iPjwvdHNwYW4+PC90ZXh0PjwvZz48L2c+PGcgY2xhc3M9ImVkZ2VMYWJlbCI+PGcgdHJhbnNmb3JtPSJ0cmFuc2xhdGUoMCwgMCkiIGNsYXNzPSJsYWJlbCI+PHRleHQgeT0iLTEwLjEiPjx0c3BhbiBkeT0iMS4xZW0iIHk9Ii0wLjFlbSIgeD0iMCIgY2xhc3M9InRleHQtb3V0ZXItdHNwYW4iPjwvdHNwYW4+PC90ZXh0PjwvZz48L2c+PGcgY2xhc3M9ImVkZ2VMYWJlbCI+PGcgdHJhbnNmb3JtPSJ0cmFuc2xhdGUoMCwgMCkiIGNsYXNzPSJsYWJlbCI+PHRleHQgeT0iLTEwLjEiPjx0c3BhbiBkeT0iMS4xZW0iIHk9Ii0wLjFlbSIgeD0iMCIgY2xhc3M9InRleHQtb3V0ZXItdHNwYW4iPjwvdHNwYW4+PC90ZXh0PjwvZz48L2c+PGcgY2xhc3M9ImVkZ2VMYWJlbCI+PGcgdHJhbnNmb3JtPSJ0cmFuc2xhdGUoMCwgMCkiIGNsYXNzPSJsYWJlbCI+PHRleHQgeT0iLTEwLjEiPjx0c3BhbiBkeT0iMS4xZW0iIHk9Ii0wLjFlbSIgeD0iMCIgY2xhc3M9InRleHQtb3V0ZXItdHNwYW4iPjwvdHNwYW4+PC90ZXh0PjwvZz48L2c+PGcgY2xhc3M9ImVkZ2VMYWJlbCI+PGcgdHJhbnNmb3JtPSJ0cmFuc2xhdGUoMCwgMCkiIGNsYXNzPSJsYWJlbCI+PHRleHQgeT0iLTEwLjEiPjx0c3BhbiBkeT0iMS4xZW0iIHk9Ii0wLjFlbSIgeD0iMCIgY2xhc3M9InRleHQtb3V0ZXItdHNwYW4iPjwvdHNwYW4+PC90ZXh0PjwvZz48L2c+PGcgY2xhc3M9ImVkZ2VMYWJlbCI+PGcgdHJhbnNmb3JtPSJ0cmFuc2xhdGUoMCwgMCkiIGNsYXNzPSJsYWJlbCI+PHRleHQgeT0iLTEwLjEiPjx0c3BhbiBkeT0iMS4xZW0iIHk9Ii0wLjFlbSIgeD0iMCIgY2xhc3M9InRleHQtb3V0ZXItdHNwYW4iPjwvdHNwYW4+PC90ZXh0PjwvZz48L2c+PGcgY2xhc3M9ImVkZ2VMYWJlbCI+PGcgdHJhbnNmb3JtPSJ0cmFuc2xhdGUoMCwgMCkiIGNsYXNzPSJsYWJlbCI+PHRleHQgeT0iLTEwLjEiPjx0c3BhbiBkeT0iMS4xZW0iIHk9Ii0wLjFlbSIgeD0iMCIgY2xhc3M9InRleHQtb3V0ZXItdHNwYW4iPjwvdHNwYW4+PC90ZXh0PjwvZz48L2c+PGcgY2xhc3M9ImVkZ2VMYWJlbCI+PGcgdHJhbnNmb3JtPSJ0cmFuc2xhdGUoMCwgMCkiIGNsYXNzPSJsYWJlbCI+PHRleHQgeT0iLTEwLjEiPjx0c3BhbiBkeT0iMS4xZW0iIHk9Ii0wLjFlbSIgeD0iMCIgY2xhc3M9InRleHQtb3V0ZXItdHNwYW4iPjwvdHNwYW4+PC90ZXh0PjwvZz48L2c+PGcgY2xhc3M9ImVkZ2VMYWJlbCI+PGcgdHJhbnNmb3JtPSJ0cmFuc2xhdGUoMCwgMCkiIGNsYXNzPSJsYWJlbCI+PHRleHQgeT0iLTEwLjEiPjx0c3BhbiBkeT0iMS4xZW0iIHk9Ii0wLjFlbSIgeD0iMCIgY2xhc3M9InRleHQtb3V0ZXItdHNwYW4iPjwvdHNwYW4+PC90ZXh0PjwvZz48L2c+PGcgY2xhc3M9ImVkZ2VMYWJlbCI+PGcgdHJhbnNmb3JtPSJ0cmFuc2xhdGUoMCwgMCkiIGNsYXNzPSJsYWJlbCI+PHRleHQgeT0iLTEwLjEiPjx0c3BhbiBkeT0iMS4xZW0iIHk9Ii0wLjFlbSIgeD0iMCIgY2xhc3M9InRleHQtb3V0ZXItdHNwYW4iPjwvdHNwYW4+PC90ZXh0PjwvZz48L2c+PGcgY2xhc3M9ImVkZ2VMYWJlbCI+PGcgdHJhbnNmb3JtPSJ0cmFuc2xhdGUoMCwgMCkiIGNsYXNzPSJsYWJlbCI+PHRleHQgeT0iLTEwLjEiPjx0c3BhbiBkeT0iMS4xZW0iIHk9Ii0wLjFlbSIgeD0iMCIgY2xhc3M9InRleHQtb3V0ZXItdHNwYW4iPjwvdHNwYW4+PC90ZXh0PjwvZz48L2c+PGcgY2xhc3M9ImVkZ2VMYWJlbCI+PGcgdHJhbnNmb3JtPSJ0cmFuc2xhdGUoMCwgMCkiIGNsYXNzPSJsYWJlbCI+PHRleHQgeT0iLTEwLjEiPjx0c3BhbiBkeT0iMS4xZW0iIHk9Ii0wLjFlbSIgeD0iMCIgY2xhc3M9InRleHQtb3V0ZXItdHNwYW4iPjwvdHNwYW4+PC90ZXh0PjwvZz48L2c+PGcgY2xhc3M9ImVkZ2VMYWJlbCI+PGcgdHJhbnNmb3JtPSJ0cmFuc2xhdGUoMCwgMCkiIGNsYXNzPSJsYWJlbCI+PHRleHQgeT0iLTEwLjEiPjx0c3BhbiBkeT0iMS4xZW0iIHk9Ii0wLjFlbSIgeD0iMCIgY2xhc3M9InRleHQtb3V0ZXItdHNwYW4iPjwvdHNwYW4+PC90ZXh0PjwvZz48L2c+PGcgY2xhc3M9ImVkZ2VMYWJlbCI+PGcgdHJhbnNmb3JtPSJ0cmFuc2xhdGUoMCwgMCkiIGNsYXNzPSJsYWJlbCI+PHRleHQgeT0iLTEwLjEiPjx0c3BhbiBkeT0iMS4xZW0iIHk9Ii0wLjFlbSIgeD0iMCIgY2xhc3M9InRleHQtb3V0ZXItdHNwYW4iPjwvdHNwYW4+PC90ZXh0PjwvZz48L2c+PGcgY2xhc3M9ImVkZ2VMYWJlbCI+PGcgdHJhbnNmb3JtPSJ0cmFuc2xhdGUoMCwgMCkiIGNsYXNzPSJsYWJlbCI+PHRleHQgeT0iLTEwLjEiPjx0c3BhbiBkeT0iMS4xZW0iIHk9Ii0wLjFlbSIgeD0iMCIgY2xhc3M9InRleHQtb3V0ZXItdHNwYW4iPjwvdHNwYW4+PC90ZXh0PjwvZz48L2c+PGcgY2xhc3M9ImVkZ2VMYWJlbCI+PGcgdHJhbnNmb3JtPSJ0cmFuc2xhdGUoMCwgMCkiIGNsYXNzPSJsYWJlbCI+PHRleHQgeT0iLTEwLjEiPjx0c3BhbiBkeT0iMS4xZW0iIHk9Ii0wLjFlbSIgeD0iMCIgY2xhc3M9InRleHQtb3V0ZXItdHNwYW4iPjwvdHNwYW4+PC90ZXh0PjwvZz48L2c+PGcgY2xhc3M9ImVkZ2VMYWJlbCI+PGcgdHJhbnNmb3JtPSJ0cmFuc2xhdGUoMCwgMCkiIGNsYXNzPSJsYWJlbCI+PHRleHQgeT0iLTEwLjEiPjx0c3BhbiBkeT0iMS4xZW0iIHk9Ii0wLjFlbSIgeD0iMCIgY2xhc3M9InRleHQtb3V0ZXItdHNwYW4iPjwvdHNwYW4+PC90ZXh0PjwvZz48L2c+PGcgY2xhc3M9ImVkZ2VMYWJlbCI+PGcgdHJhbnNmb3JtPSJ0cmFuc2xhdGUoMCwgMCkiIGNsYXNzPSJsYWJlbCI+PHRleHQgeT0iLTEwLjEiPjx0c3BhbiBkeT0iMS4xZW0iIHk9Ii0wLjFlbSIgeD0iMCIgY2xhc3M9InRleHQtb3V0ZXItdHNwYW4iPjwvdHNwYW4+PC90ZXh0PjwvZz48L2c+PGcgY2xhc3M9ImVkZ2VMYWJlbCI+PGcgdHJhbnNmb3JtPSJ0cmFuc2xhdGUoMCwgMCkiIGNsYXNzPSJsYWJlbCI+PHRleHQgeT0iLTEwLjEiPjx0c3BhbiBkeT0iMS4xZW0iIHk9Ii0wLjFlbSIgeD0iMCIgY2xhc3M9InRleHQtb3V0ZXItdHNwYW4iPjwvdHNwYW4+PC90ZXh0PjwvZz48L2c+PGcgY2xhc3M9ImVkZ2VMYWJlbCI+PGcgdHJhbnNmb3JtPSJ0cmFuc2xhdGUoMCwgMCkiIGNsYXNzPSJsYWJlbCI+PHRleHQgeT0iLTEwLjEiPjx0c3BhbiBkeT0iMS4xZW0iIHk9Ii0wLjFlbSIgeD0iMCIgY2xhc3M9InRleHQtb3V0ZXItdHNwYW4iPjwvdHNwYW4+PC90ZXh0PjwvZz48L2c+PGcgY2xhc3M9ImVkZ2VMYWJlbCI+PGcgdHJhbnNmb3JtPSJ0cmFuc2xhdGUoMCwgMCkiIGNsYXNzPSJsYWJlbCI+PHRleHQgeT0iLTEwLjEiPjx0c3BhbiBkeT0iMS4xZW0iIHk9Ii0wLjFlbSIgeD0iMCIgY2xhc3M9InRleHQtb3V0ZXItdHNwYW4iPjwvdHNwYW4+PC90ZXh0PjwvZz48L2c+PGcgY2xhc3M9ImVkZ2VMYWJlbCI+PGcgdHJhbnNmb3JtPSJ0cmFuc2xhdGUoMCwgMCkiIGNsYXNzPSJsYWJlbCI+PHRleHQgeT0iLTEwLjEiPjx0c3BhbiBkeT0iMS4xZW0iIHk9Ii0wLjFlbSIgeD0iMCIgY2xhc3M9InRleHQtb3V0ZXItdHNwYW4iPjwvdHNwYW4+PC90ZXh0PjwvZz48L2c+PGcgdHJhbnNmb3JtPSJ0cmFuc2xhdGUoMjc0NC42MzY3MTg3NSwgOTQ2LjUpIiBjbGFzcz0iZWRnZUxhYmVsIj48ZyB0cmFuc2Zvcm09InRyYW5zbGF0ZSgtMTgsIC0xMS41KSIgY2xhc3M9ImxhYmVsIj48Zz48cmVjdCBoZWlnaHQ9IjIzIiB3aWR0aD0iMzYiIHk9Ii0xIiB4PSItMiIgc3R5bGU9IiIgY2xhc3M9ImJhY2tncm91bmQiPjwvcmVjdD48dGV4dCBzdHlsZT0iIiB5PSItMTAuMSI+PHRzcGFuIGR5PSIxLjFlbSIgeT0iLTAuMWVtIiB4PSIwIiBjbGFzcz0idGV4dC1vdXRlci10c3BhbiI+PHRzcGFuIGZvbnQtd2VpZ2h0PSJub3JtYWwiIGNsYXNzPSJ0ZXh0LWlubmVyLXRzcGFuIiBmb250LXN0eWxlPSJub3JtYWwiPuOBr+OBhDwvdHNwYW4+PC90c3Bhbj48L3RleHQ+PC9nPjwvZz48L2c+PGcgY2xhc3M9ImVkZ2VMYWJlbCI+PGcgdHJhbnNmb3JtPSJ0cmFuc2xhdGUoMCwgMCkiIGNsYXNzPSJsYWJlbCI+PHRleHQgeT0iLTEwLjEiPjx0c3BhbiBkeT0iMS4xZW0iIHk9Ii0wLjFlbSIgeD0iMCIgY2xhc3M9InRleHQtb3V0ZXItdHNwYW4iPjwvdHNwYW4+PC90ZXh0PjwvZz48L2c+PGcgY2xhc3M9ImVkZ2VMYWJlbCI+PGcgdHJhbnNmb3JtPSJ0cmFuc2xhdGUoMCwgMCkiIGNsYXNzPSJsYWJlbCI+PHRleHQgeT0iLTEwLjEiPjx0c3BhbiBkeT0iMS4xZW0iIHk9Ii0wLjFlbSIgeD0iMCIgY2xhc3M9InRleHQtb3V0ZXItdHNwYW4iPjwvdHNwYW4+PC90ZXh0PjwvZz48L2c+PGcgY2xhc3M9ImVkZ2VMYWJlbCI+PGcgdHJhbnNmb3JtPSJ0cmFuc2xhdGUoMCwgMCkiIGNsYXNzPSJsYWJlbCI+PHRleHQgeT0iLTEwLjEiPjx0c3BhbiBkeT0iMS4xZW0iIHk9Ii0wLjFlbSIgeD0iMCIgY2xhc3M9InRleHQtb3V0ZXItdHNwYW4iPjwvdHNwYW4+PC90ZXh0PjwvZz48L2c+PGcgdHJhbnNmb3JtPSJ0cmFuc2xhdGUoMzIyOS40NzY1NjI1LCA5NDYuNSkiIGNsYXNzPSJlZGdlTGFiZWwiPjxnIHRyYW5zZm9ybT0idHJhbnNsYXRlKC0xOCwgLTExLjUpIiBjbGFzcz0ibGFiZWwiPjxnPjxyZWN0IGhlaWdodD0iMjMiIHdpZHRoPSIzNiIgeT0iLTEiIHg9Ii0yIiBzdHlsZT0iIiBjbGFzcz0iYmFja2dyb3VuZCI+PC9yZWN0Pjx0ZXh0IHN0eWxlPSIiIHk9Ii0xMC4xIj48dHNwYW4gZHk9IjEuMWVtIiB5PSItMC4xZW0iIHg9IjAiIGNsYXNzPSJ0ZXh0LW91dGVyLXRzcGFuIj48dHNwYW4gZm9udC13ZWlnaHQ9Im5vcm1hbCIgY2xhc3M9InRleHQtaW5uZXItdHNwYW4iIGZvbnQtc3R5bGU9Im5vcm1hbCI+44Gv44GEPC90c3Bhbj48L3RzcGFuPjwvdGV4dD48L2c+PC9nPjwvZz48ZyBjbGFzcz0iZWRnZUxhYmVsIj48ZyB0cmFuc2Zvcm09InRyYW5zbGF0ZSgwLCAwKSIgY2xhc3M9ImxhYmVsIj48dGV4dCB5PSItMTAuMSI+PHRzcGFuIGR5PSIxLjFlbSIgeT0iLTAuMWVtIiB4PSIwIiBjbGFzcz0idGV4dC1vdXRlci10c3BhbiI+PC90c3Bhbj48L3RleHQ+PC9nPjwvZz48ZyBjbGFzcz0iZWRnZUxhYmVsIj48ZyB0cmFuc2Zvcm09InRyYW5zbGF0ZSgwLCAwKSIgY2xhc3M9ImxhYmVsIj48dGV4dCB5PSItMTAuMSI+PHRzcGFuIGR5PSIxLjFlbSIgeT0iLTAuMWVtIiB4PSIwIiBjbGFzcz0idGV4dC1vdXRlci10c3BhbiI+PC90c3Bhbj48L3RleHQ+PC9nPjwvZz48ZyBjbGFzcz0iZWRnZUxhYmVsIj48ZyB0cmFuc2Zvcm09InRyYW5zbGF0ZSgwLCAwKSIgY2xhc3M9ImxhYmVsIj48dGV4dCB5PSItMTAuMSI+PHRzcGFuIGR5PSIxLjFlbSIgeT0iLTAuMWVtIiB4PSIwIiBjbGFzcz0idGV4dC1vdXRlci10c3BhbiI+PC90c3Bhbj48L3RleHQ+PC9nPjwvZz48ZyB0cmFuc2Zvcm09InRyYW5zbGF0ZSgzNjc5LjkxNDA2MjUsIDk0Ni41KSIgY2xhc3M9ImVkZ2VMYWJlbCI+PGcgdHJhbnNmb3JtPSJ0cmFuc2xhdGUoLTE4LCAtMTEuNSkiIGNsYXNzPSJsYWJlbCI+PGc+PHJlY3QgaGVpZ2h0PSIyMyIgd2lkdGg9IjM2IiB5PSItMSIgeD0iLTIiIHN0eWxlPSIiIGNsYXNzPSJiYWNrZ3JvdW5kIj48L3JlY3Q+PHRleHQgc3R5bGU9IiIgeT0iLTEwLjEiPjx0c3BhbiBkeT0iMS4xZW0iIHk9Ii0wLjFlbSIgeD0iMCIgY2xhc3M9InRleHQtb3V0ZXItdHNwYW4iPjx0c3BhbiBmb250LXdlaWdodD0ibm9ybWFsIiBjbGFzcz0idGV4dC1pbm5lci10c3BhbiIgZm9udC1zdHlsZT0ibm9ybWFsIj7jga/jgYQ8L3RzcGFuPjwvdHNwYW4+PC90ZXh0PjwvZz48L2c+PC9nPjxnIGNsYXNzPSJlZGdlTGFiZWwiPjxnIHRyYW5zZm9ybT0idHJhbnNsYXRlKDAsIDApIiBjbGFzcz0ibGFiZWwiPjx0ZXh0IHk9Ii0xMC4xIj48dHNwYW4gZHk9IjEuMWVtIiB5PSItMC4xZW0iIHg9IjAiIGNsYXNzPSJ0ZXh0LW91dGVyLXRzcGFuIj48L3RzcGFuPjwvdGV4dD48L2c+PC9nPjxnIGNsYXNzPSJlZGdlTGFiZWwiPjxnIHRyYW5zZm9ybT0idHJhbnNsYXRlKDAsIDApIiBjbGFzcz0ibGFiZWwiPjx0ZXh0IHk9Ii0xMC4xIj48dHNwYW4gZHk9IjEuMWVtIiB5PSItMC4xZW0iIHg9IjAiIGNsYXNzPSJ0ZXh0LW91dGVyLXRzcGFuIj48L3RzcGFuPjwvdGV4dD48L2c+PC9nPjxnIGNsYXNzPSJlZGdlTGFiZWwiPjxnIHRyYW5zZm9ybT0idHJhbnNsYXRlKDAsIDApIiBjbGFzcz0ibGFiZWwiPjx0ZXh0IHk9Ii0xMC4xIj48dHNwYW4gZHk9IjEuMWVtIiB5PSItMC4xZW0iIHg9IjAiIGNsYXNzPSJ0ZXh0LW91dGVyLXRzcGFuIj48L3RzcGFuPjwvdGV4dD48L2c+PC9nPjxnIHRyYW5zZm9ybT0idHJhbnNsYXRlKDM5ODkuOTE0MDYyNSwgOTQ2LjUpIiBjbGFzcz0iZWRnZUxhYmVsIj48ZyB0cmFuc2Zvcm09InRyYW5zbGF0ZSgtMTgsIC0xMS41KSIgY2xhc3M9ImxhYmVsIj48Zz48cmVjdCBoZWlnaHQ9IjIzIiB3aWR0aD0iMzYiIHk9Ii0xIiB4PSItMiIgc3R5bGU9IiIgY2xhc3M9ImJhY2tncm91bmQiPjwvcmVjdD48dGV4dCBzdHlsZT0iIiB5PSItMTAuMSI+PHRzcGFuIGR5PSIxLjFlbSIgeT0iLTAuMWVtIiB4PSIwIiBjbGFzcz0idGV4dC1vdXRlci10c3BhbiI+PHRzcGFuIGZvbnQtd2VpZ2h0PSJub3JtYWwiIGNsYXNzPSJ0ZXh0LWlubmVyLXRzcGFuIiBmb250LXN0eWxlPSJub3JtYWwiPuOBr+OBhDwvdHNwYW4+PC90c3Bhbj48L3RleHQ+PC9nPjwvZz48L2c+PGcgY2xhc3M9ImVkZ2VMYWJlbCI+PGcgdHJhbnNmb3JtPSJ0cmFuc2xhdGUoMCwgMCkiIGNsYXNzPSJsYWJlbCI+PHRleHQgeT0iLTEwLjEiPjx0c3BhbiBkeT0iMS4xZW0iIHk9Ii0wLjFlbSIgeD0iMCIgY2xhc3M9InRleHQtb3V0ZXItdHNwYW4iPjwvdHNwYW4+PC90ZXh0PjwvZz48L2c+PGcgY2xhc3M9ImVkZ2VMYWJlbCI+PGcgdHJhbnNmb3JtPSJ0cmFuc2xhdGUoMCwgMCkiIGNsYXNzPSJsYWJlbCI+PHRleHQgeT0iLTEwLjEiPjx0c3BhbiBkeT0iMS4xZW0iIHk9Ii0wLjFlbSIgeD0iMCIgY2xhc3M9InRleHQtb3V0ZXItdHNwYW4iPjwvdHNwYW4+PC90ZXh0PjwvZz48L2c+PGcgY2xhc3M9ImVkZ2VMYWJlbCI+PGcgdHJhbnNmb3JtPSJ0cmFuc2xhdGUoMCwgMCkiIGNsYXNzPSJsYWJlbCI+PHRleHQgeT0iLTEwLjEiPjx0c3BhbiBkeT0iMS4xZW0iIHk9Ii0wLjFlbSIgeD0iMCIgY2xhc3M9InRleHQtb3V0ZXItdHNwYW4iPjwvdHNwYW4+PC90ZXh0PjwvZz48L2c+PGcgdHJhbnNmb3JtPSJ0cmFuc2xhdGUoNDI5OS45MTQwNjI1LCA5NDYuNSkiIGNsYXNzPSJlZGdlTGFiZWwiPjxnIHRyYW5zZm9ybT0idHJhbnNsYXRlKC0xOCwgLTExLjUpIiBjbGFzcz0ibGFiZWwiPjxnPjxyZWN0IGhlaWdodD0iMjMiIHdpZHRoPSIzNiIgeT0iLTEiIHg9Ii0yIiBzdHlsZT0iIiBjbGFzcz0iYmFja2dyb3VuZCI+PC9yZWN0Pjx0ZXh0IHN0eWxlPSIiIHk9Ii0xMC4xIj48dHNwYW4gZHk9IjEuMWVtIiB5PSItMC4xZW0iIHg9IjAiIGNsYXNzPSJ0ZXh0LW91dGVyLXRzcGFuIj48dHNwYW4gZm9udC13ZWlnaHQ9Im5vcm1hbCIgY2xhc3M9InRleHQtaW5uZXItdHNwYW4iIGZvbnQtc3R5bGU9Im5vcm1hbCI+44Gv44GEPC90c3Bhbj48L3RzcGFuPjwvdGV4dD48L2c+PC9nPjwvZz48ZyBjbGFzcz0iZWRnZUxhYmVsIj48ZyB0cmFuc2Zvcm09InRyYW5zbGF0ZSgwLCAwKSIgY2xhc3M9ImxhYmVsIj48dGV4dCB5PSItMTAuMSI+PHRzcGFuIGR5PSIxLjFlbSIgeT0iLTAuMWVtIiB4PSIwIiBjbGFzcz0idGV4dC1vdXRlci10c3BhbiI+PC90c3Bhbj48L3RleHQ+PC9nPjwvZz48ZyBjbGFzcz0iZWRnZUxhYmVsIj48ZyB0cmFuc2Zvcm09InRyYW5zbGF0ZSgwLCAwKSIgY2xhc3M9ImxhYmVsIj48dGV4dCB5PSItMTAuMSI+PHRzcGFuIGR5PSIxLjFlbSIgeT0iLTAuMWVtIiB4PSIwIiBjbGFzcz0idGV4dC1vdXRlci10c3BhbiI+PC90c3Bhbj48L3RleHQ+PC9nPjwvZz48ZyBjbGFzcz0iZWRnZUxhYmVsIj48ZyB0cmFuc2Zvcm09InRyYW5zbGF0ZSgwLCAwKSIgY2xhc3M9ImxhYmVsIj48dGV4dCB5PSItMTAuMSI+PHRzcGFuIGR5PSIxLjFlbSIgeT0iLTAuMWVtIiB4PSIwIiBjbGFzcz0idGV4dC1vdXRlci10c3BhbiI+PC90c3Bhbj48L3RleHQ+PC9nPjwvZz48ZyBjbGFzcz0iZWRnZUxhYmVsIj48ZyB0cmFuc2Zvcm09InRyYW5zbGF0ZSgwLCAwKSIgY2xhc3M9ImxhYmVsIj48dGV4dCB5PSItMTAuMSI+PHRzcGFuIGR5PSIxLjFlbSIgeT0iLTAuMWVtIiB4PSIwIiBjbGFzcz0idGV4dC1vdXRlci10c3BhbiI+PC90c3Bhbj48L3RleHQ+PC9nPjwvZz48ZyBjbGFzcz0iZWRnZUxhYmVsIj48ZyB0cmFuc2Zvcm09InRyYW5zbGF0ZSgwLCAwKSIgY2xhc3M9ImxhYmVsIj48dGV4dCB5PSItMTAuMSI+PHRzcGFuIGR5PSIxLjFlbSIgeT0iLTAuMWVtIiB4PSIwIiBjbGFzcz0idGV4dC1vdXRlci10c3BhbiI+PC90c3Bhbj48L3RleHQ+PC9nPjwvZz48ZyBjbGFzcz0iZWRnZUxhYmVsIj48ZyB0cmFuc2Zvcm09InRyYW5zbGF0ZSgwLCAwKSIgY2xhc3M9ImxhYmVsIj48dGV4dCB5PSItMTAuMSI+PHRzcGFuIGR5PSIxLjFlbSIgeT0iLTAuMWVtIiB4PSIwIiBjbGFzcz0idGV4dC1vdXRlci10c3BhbiI+PC90c3Bhbj48L3RleHQ+PC9nPjwvZz48ZyBjbGFzcz0iZWRnZUxhYmVsIj48ZyB0cmFuc2Zvcm09InRyYW5zbGF0ZSgwLCAwKSIgY2xhc3M9ImxhYmVsIj48dGV4dCB5PSItMTAuMSI+PHRzcGFuIGR5PSIxLjFlbSIgeT0iLTAuMWVtIiB4PSIwIiBjbGFzcz0idGV4dC1vdXRlci10c3BhbiI+PC90c3Bhbj48L3RleHQ+PC9nPjwvZz48ZyBjbGFzcz0iZWRnZUxhYmVsIj48ZyB0cmFuc2Zvcm09InRyYW5zbGF0ZSgwLCAwKSIgY2xhc3M9ImxhYmVsIj48dGV4dCB5PSItMTAuMSI+PHRzcGFuIGR5PSIxLjFlbSIgeT0iLTAuMWVtIiB4PSIwIiBjbGFzcz0idGV4dC1vdXRlci10c3BhbiI+PC90c3Bhbj48L3RleHQ+PC9nPjwvZz48ZyBjbGFzcz0iZWRnZUxhYmVsIj48ZyB0cmFuc2Zvcm09InRyYW5zbGF0ZSgwLCAwKSIgY2xhc3M9ImxhYmVsIj48dGV4dCB5PSItMTAuMSI+PHRzcGFuIGR5PSIxLjFlbSIgeT0iLTAuMWVtIiB4PSIwIiBjbGFzcz0idGV4dC1vdXRlci10c3BhbiI+PC90c3Bhbj48L3RleHQ+PC9nPjwvZz48ZyBjbGFzcz0iZWRnZUxhYmVsIj48ZyB0cmFuc2Zvcm09InRyYW5zbGF0ZSgwLCAwKSIgY2xhc3M9ImxhYmVsIj48dGV4dCB5PSItMTAuMSI+PHRzcGFuIGR5PSIxLjFlbSIgeT0iLTAuMWVtIiB4PSIwIiBjbGFzcz0idGV4dC1vdXRlci10c3BhbiI+PC90c3Bhbj48L3RleHQ+PC9nPjwvZz48L2c+PGcgY2xhc3M9Im5vZGVzIj48ZyB0cmFuc2Zvcm09InRyYW5zbGF0ZSg1MjMuMjE0ODQzNzUsIDQ3KSIgaWQ9ImZsb3djaGFydC1BLTYyIiBjbGFzcz0ibm9kZSBkZWZhdWx0IHByb2Nlc3MiPjxyZWN0IGhlaWdodD0iNzgiIHdpZHRoPSIyODIuODI4MTI1IiB5PSItMzkiIHg9Ii0xNDEuNDE0MDYyNSIgc3R5bGU9ImZpbGw6I2NjZiAhaW1wb3J0YW50O3N0cm9rZTojMzMzICFpbXBvcnRhbnQ7c3Ryb2tlLXdpZHRoOjJweCAhaW1wb3J0YW50IiBjbGFzcz0iYmFzaWMgbGFiZWwtY29udGFpbmVyIj48L3JlY3Q+PGcgdHJhbnNmb3JtPSJ0cmFuc2xhdGUoLTExMS40MTQwNjI1LCAtMjQpIiBzdHlsZT0iIiBjbGFzcz0ibGFiZWwiPjxyZWN0PjwvcmVjdD48Zm9yZWlnbk9iamVjdCBoZWlnaHQ9IjQ4IiB3aWR0aD0iMjIyLjgyODEyNSI+PGRpdiBzdHlsZT0iZGlzcGxheTogdGFibGU7IHdoaXRlLXNwYWNlOiBicmVhay1zcGFjZXM7IGxpbmUtaGVpZ2h0OiAxLjU7IG1heC13aWR0aDogMjAwcHg7IHRleHQtYWxpZ246IGNlbnRlcjsgd2lkdGg6IDIwMHB4OyIgeG1sbnM9Imh0dHA6Ly93d3cudzMub3JnLzE5OTkveGh0bWwiPjxzcGFuIGNsYXNzPSJub2RlTGFiZWwiPjxwPlF1b3RhdGlvbk1hbmFnZW1lbnRXaW5kb3cg6LW35YuVPC9wPjwvc3Bhbj48L2Rpdj48L2ZvcmVpZ25PYmplY3Q+PC9nPjwvZz48ZyB0cmFuc2Zvcm09InRyYW5zbGF0ZSg1MjMuMjE0ODQzNzUsIDE2MykiIGlkPSJmbG93Y2hhcnQtQi02MyIgY2xhc3M9Im5vZGUgZGVmYXVsdCBwcm9jZXNzIj48cmVjdCBoZWlnaHQ9IjU0IiB3aWR0aD0iMTgwLjc4MTI1IiB5PSItMjciIHg9Ii05MC4zOTA2MjUiIHN0eWxlPSJmaWxsOiNjY2YgIWltcG9ydGFudDtzdHJva2U6IzMzMyAhaW1wb3J0YW50O3N0cm9rZS13aWR0aDoycHggIWltcG9ydGFudCIgY2xhc3M9ImJhc2ljIGxhYmVsLWNvbnRhaW5lciI+PC9yZWN0PjxnIHRyYW5zZm9ybT0idHJhbnNsYXRlKC02MC4zOTA2MjUsIC0xMikiIHN0eWxlPSIiIGNsYXNzPSJsYWJlbCI+PHJlY3Q+PC9yZWN0Pjxmb3JlaWduT2JqZWN0IGhlaWdodD0iMjQiIHdpZHRoPSIxMjAuNzgxMjUiPjxkaXYgc3R5bGU9ImRpc3BsYXk6IHRhYmxlLWNlbGw7IHdoaXRlLXNwYWNlOiBub3dyYXA7IGxpbmUtaGVpZ2h0OiAxLjU7IG1heC13aWR0aDogMjAwcHg7IHRleHQtYWxpZ246IGNlbnRlcjsiIHhtbG5zPSJodHRwOi8vd3d3LnczLm9yZy8xOTk5L3hodG1sIj48c3BhbiBjbGFzcz0ibm9kZUxhYmVsIj48cD7liJ3mnJ/ljJblh6bnkIYgKGluaXQpPC9wPjwvc3Bhbj48L2Rpdj48L2ZvcmVpZ25PYmplY3Q+PC9nPjwvZz48ZyB0cmFuc2Zvcm09InRyYW5zbGF0ZSgxMzgsIDI3OSkiIGlkPSJmbG93Y2hhcnQtQy02NSIgY2xhc3M9Im5vZGUgZGVmYXVsdCBwcm9jZXNzIj48cmVjdCBoZWlnaHQ9Ijc4IiB3aWR0aD0iMjYwIiB5PSItMzkiIHg9Ii0xMzAiIHN0eWxlPSJmaWxsOiNjY2YgIWltcG9ydGFudDtzdHJva2U6IzMzMyAhaW1wb3J0YW50O3N0cm9rZS13aWR0aDoycHggIWltcG9ydGFudCIgY2xhc3M9ImJhc2ljIGxhYmVsLWNvbnRhaW5lciI+PC9yZWN0PjxnIHRyYW5zZm9ybT0idHJhbnNsYXRlKC0xMDAsIC0yNCkiIHN0eWxlPSIiIGNsYXNzPSJsYWJlbCI+PHJlY3Q+PC9yZWN0Pjxmb3JlaWduT2JqZWN0IGhlaWdodD0iNDgiIHdpZHRoPSIyMDAiPjxkaXYgc3R5bGU9ImRpc3BsYXk6IHRhYmxlOyB3aGl0ZS1zcGFjZTogYnJlYWstc3BhY2VzOyBsaW5lLWhlaWdodDogMS41OyBtYXgtd2lkdGg6IDIwMHB4OyB0ZXh0LWFsaWduOiBjZW50ZXI7IHdpZHRoOiAyMDBweDsiIHhtbG5zPSJodHRwOi8vd3d3LnczLm9yZy8xOTk5L3hodG1sIj48c3BhbiBjbGFzcz0ibm9kZUxhYmVsIj48cD7jgqbjgqPjg7Pjg4njgqboqK3lrpogKOOCv+OCpOODiOODqywg44K144Kk44K6KTwvcD48L3NwYW4+PC9kaXY+PC9mb3JlaWduT2JqZWN0PjwvZz48L2c+PGcgdHJhbnNmb3JtPSJ0cmFuc2xhdGUoNDQ4LCAyNzkpIiBpZD0iZmxvd2NoYXJ0LUQtNjciIGNsYXNzPSJub2RlIGRlZmF1bHQgcHJvY2VzcyI+PHJlY3QgaGVpZ2h0PSI3OCIgd2lkdGg9IjI2MCIgeT0iLTM5IiB4PSItMTMwIiBzdHlsZT0iZmlsbDojY2NmICFpbXBvcnRhbnQ7c3Ryb2tlOiMzMzMgIWltcG9ydGFudDtzdHJva2Utd2lkdGg6MnB4ICFpbXBvcnRhbnQiIGNsYXNzPSJiYXNpYyBsYWJlbC1jb250YWluZXIiPjwvcmVjdD48ZyB0cmFuc2Zvcm09InRyYW5zbGF0ZSgtMTAwLCAtMjQpIiBzdHlsZT0iIiBjbGFzcz0ibGFiZWwiPjxyZWN0PjwvcmVjdD48Zm9yZWlnbk9iamVjdCBoZWlnaHQ9IjQ4IiB3aWR0aD0iMjAwIj48ZGl2IHN0eWxlPSJkaXNwbGF5OiB0YWJsZTsgd2hpdGUtc3BhY2U6IGJyZWFrLXNwYWNlczsgbGluZS1oZWlnaHQ6IDEuNTsgbWF4LXdpZHRoOiAyMDBweDsgdGV4dC1hbGlnbjogY2VudGVyOyB3aWR0aDogMjAwcHg7IiB4bWxucz0iaHR0cDovL3d3dy53My5vcmcvMTk5OS94aHRtbCI+PHNwYW4gY2xhc3M9Im5vZGVMYWJlbCI+PHA+RGF0YWJhc2VPcGVyYXRpb25zIOOCpOODs+OCueOCv+ODs+OCueeUn+aIkDwvcD48L3NwYW4+PC9kaXY+PC9mb3JlaWduT2JqZWN0PjwvZz48L2c+PGcgdHJhbnNmb3JtPSJ0cmFuc2xhdGUoNzU4LCAyNzkpIiBpZD0iZmxvd2NoYXJ0LUUtNjkiIGNsYXNzPSJub2RlIGRlZmF1bHQgcHJvY2VzcyI+PHJlY3QgaGVpZ2h0PSI3OCIgd2lkdGg9IjI2MCIgeT0iLTM5IiB4PSItMTMwIiBzdHlsZT0iZmlsbDojY2NmICFpbXBvcnRhbnQ7c3Ryb2tlOiMzMzMgIWltcG9ydGFudDtzdHJva2Utd2lkdGg6MnB4ICFpbXBvcnRhbnQiIGNsYXNzPSJiYXNpYyBsYWJlbC1jb250YWluZXIiPjwvcmVjdD48ZyB0cmFuc2Zvcm09InRyYW5zbGF0ZSgtMTAwLCAtMjQpIiBzdHlsZT0iIiBjbGFzcz0ibGFiZWwiPjxyZWN0PjwvcmVjdD48Zm9yZWlnbk9iamVjdCBoZWlnaHQ9IjQ4IiB3aWR0aD0iMjAwIj48ZGl2IHN0eWxlPSJkaXNwbGF5OiB0YWJsZTsgd2hpdGUtc3BhY2U6IGJyZWFrLXNwYWNlczsgbGluZS1oZWlnaHQ6IDEuNTsgbWF4LXdpZHRoOiAyMDBweDsgdGV4dC1hbGlnbjogY2VudGVyOyB3aWR0aDogMjAwcHg7IiB4bWxucz0iaHR0cDovL3d3dy53My5vcmcvMTk5OS94aHRtbCI+PHNwYW4gY2xhc3M9Im5vZGVMYWJlbCI+PHA+VUnpg6jlk4HkvZzmiJAgKGNyZWF0ZV93aWRnZXRzKTwvcD48L3NwYW4+PC9kaXY+PC9mb3JlaWduT2JqZWN0PjwvZz48L2c+PGcgdHJhbnNmb3JtPSJ0cmFuc2xhdGUoMTU4LCA0MDcpIiBpZD0iZmxvd2NoYXJ0LUUxLTcxIiBjbGFzcz0ibm9kZSBkZWZhdWx0IHByb2Nlc3MiPjxyZWN0IGhlaWdodD0iNTQiIHdpZHRoPSIyNTIiIHk9Ii0yNyIgeD0iLTEyNiIgc3R5bGU9ImZpbGw6I2NjZiAhaW1wb3J0YW50O3N0cm9rZTojMzMzICFpbXBvcnRhbnQ7c3Ryb2tlLXdpZHRoOjJweCAhaW1wb3J0YW50IiBjbGFzcz0iYmFzaWMgbGFiZWwtY29udGFpbmVyIj48L3JlY3Q+PGcgdHJhbnNmb3JtPSJ0cmFuc2xhdGUoLTk2LCAtMTIpIiBzdHlsZT0iIiBjbGFzcz0ibGFiZWwiPjxyZWN0PjwvcmVjdD48Zm9yZWlnbk9iamVjdCBoZWlnaHQ9IjI0IiB3aWR0aD0iMTkyIj48ZGl2IHN0eWxlPSJkaXNwbGF5OiB0YWJsZS1jZWxsOyB3aGl0ZS1zcGFjZTogbm93cmFwOyBsaW5lLWhlaWdodDogMS41OyBtYXgtd2lkdGg6IDIwMHB4OyB0ZXh0LWFsaWduOiBjZW50ZXI7IiB4bWxucz0iaHR0cDovL3d3dy53My5vcmcvMTk5OS94aHRtbCI+PHNwYW4gY2xhc3M9Im5vZGVMYWJlbCI+PHA+5qGI5Lu25ZCN44OJ44Ot44OD44OX44OA44Km44Oz5L2c5oiQPC9wPjwvc3Bhbj48L2Rpdj48L2ZvcmVpZ25PYmplY3Q+PC9nPjwvZz48ZyB0cmFuc2Zvcm09InRyYW5zbGF0ZSg0NjAsIDQwNykiIGlkPSJmbG93Y2hhcnQtRTItNzMiIGNsYXNzPSJub2RlIGRlZmF1bHQgcHJvY2VzcyI+PHJlY3QgaGVpZ2h0PSI1NCIgd2lkdGg9IjI1MiIgeT0iLTI3IiB4PSItMTI2IiBzdHlsZT0iZmlsbDojY2NmICFpbXBvcnRhbnQ7c3Ryb2tlOiMzMzMgIWltcG9ydGFudDtzdHJva2Utd2lkdGg6MnB4ICFpbXBvcnRhbnQiIGNsYXNzPSJiYXNpYyBsYWJlbC1jb250YWluZXIiPjwvcmVjdD48ZyB0cmFuc2Zvcm09InRyYW5zbGF0ZSgtOTYsIC0xMikiIHN0eWxlPSIiIGNsYXNzPSJsYWJlbCI+PHJlY3Q+PC9yZWN0Pjxmb3JlaWduT2JqZWN0IGhlaWdodD0iMjQiIHdpZHRoPSIxOTIiPjxkaXYgc3R5bGU9ImRpc3BsYXk6IHRhYmxlLWNlbGw7IHdoaXRlLXNwYWNlOiBub3dyYXA7IGxpbmUtaGVpZ2h0OiAxLjU7IG1heC13aWR0aDogMjAwcHg7IHRleHQtYWxpZ246IGNlbnRlcjsiIHhtbG5zPSJodHRwOi8vd3d3LnczLm9yZy8xOTk5L3hodG1sIj48c3BhbiBjbGFzcz0ibm9kZUxhYmVsIj48cD7poaflrqLlkI3jg4njg63jg4Pjg5fjg4Djgqbjg7PkvZzmiJA8L3A+PC9zcGFuPjwvZGl2PjwvZm9yZWlnbk9iamVjdD48L2c+PC9nPjxnIHRyYW5zZm9ybT0idHJhbnNsYXRlKDczOCwgNDA3KSIgaWQ9ImZsb3djaGFydC1FMy03NSIgY2xhc3M9Im5vZGUgZGVmYXVsdCBwcm9jZXNzIj48cmVjdCBoZWlnaHQ9IjU0IiB3aWR0aD0iMjA0IiB5PSItMjciIHg9Ii0xMDIiIHN0eWxlPSJmaWxsOiNjY2YgIWltcG9ydGFudDtzdHJva2U6IzMzMyAhaW1wb3J0YW50O3N0cm9rZS13aWR0aDoycHggIWltcG9ydGFudCIgY2xhc3M9ImJhc2ljIGxhYmVsLWNvbnRhaW5lciI+PC9yZWN0PjxnIHRyYW5zZm9ybT0idHJhbnNsYXRlKC03MiwgLTEyKSIgc3R5bGU9IiIgY2xhc3M9ImxhYmVsIj48cmVjdD48L3JlY3Q+PGZvcmVpZ25PYmplY3QgaGVpZ2h0PSIyNCIgd2lkdGg9IjE0NCI+PGRpdiBzdHlsZT0iZGlzcGxheTogdGFibGUtY2VsbDsgd2hpdGUtc3BhY2U6IG5vd3JhcDsgbGluZS1oZWlnaHQ6IDEuNTsgbWF4LXdpZHRoOiAyMDBweDsgdGV4dC1hbGlnbjogY2VudGVyOyIgeG1sbnM9Imh0dHA6Ly93d3cudzMub3JnLzE5OTkveGh0bWwiPjxzcGFuIGNsYXNzPSJub2RlTGFiZWwiPjxwPumHkemhjeWFpeWKm+ashOOBquOBqeS9nOaIkDwvcD48L3NwYW4+PC9kaXY+PC9mb3JlaWduT2JqZWN0PjwvZz48L2c+PGcgdHJhbnNmb3JtPSJ0cmFuc2xhdGUoMTAyMCwgNDA3KSIgaWQ9ImZsb3djaGFydC1FNC03NyIgY2xhc3M9Im5vZGUgZGVmYXVsdCBwcm9jZXNzIj48cmVjdCBoZWlnaHQ9Ijc4IiB3aWR0aD0iMjYwIiB5PSItMzkiIHg9Ii0xMzAiIHN0eWxlPSJmaWxsOiNjY2YgIWltcG9ydGFudDtzdHJva2U6IzMzMyAhaW1wb3J0YW50O3N0cm9rZS13aWR0aDoycHggIWltcG9ydGFudCIgY2xhc3M9ImJhc2ljIGxhYmVsLWNvbnRhaW5lciI+PC9yZWN0PjxnIHRyYW5zZm9ybT0idHJhbnNsYXRlKC0xMDAsIC0yNCkiIHN0eWxlPSIiIGNsYXNzPSJsYWJlbCI+PHJlY3Q+PC9yZWN0Pjxmb3JlaWduT2JqZWN0IGhlaWdodD0iNDgiIHdpZHRoPSIyMDAiPjxkaXYgc3R5bGU9ImRpc3BsYXk6IHRhYmxlOyB3aGl0ZS1zcGFjZTogYnJlYWstc3BhY2VzOyBsaW5lLWhlaWdodDogMS41OyBtYXgtd2lkdGg6IDIwMHB4OyB0ZXh0LWFsaWduOiBjZW50ZXI7IHdpZHRoOiAyMDBweDsiIHhtbG5zPSJodHRwOi8vd3d3LnczLm9yZy8xOTk5L3hodG1sIj48c3BhbiBjbGFzcz0ibm9kZUxhYmVsIj48cD7ov73liqAv5pu05pawL+WJiumZpC/jgq/jg6rjgqLjg5zjgr/jg7PkvZzmiJA8L3A+PC9zcGFuPjwvZGl2PjwvZm9yZWlnbk9iamVjdD48L2c+PC9nPjxnIHRyYW5zZm9ybT0idHJhbnNsYXRlKDEzMzAsIDQwNykiIGlkPSJmbG93Y2hhcnQtRTUtNzkiIGNsYXNzPSJub2RlIGRlZmF1bHQgcHJvY2VzcyI+PHJlY3QgaGVpZ2h0PSI3OCIgd2lkdGg9IjI2MCIgeT0iLTM5IiB4PSItMTMwIiBzdHlsZT0iZmlsbDojY2NmICFpbXBvcnRhbnQ7c3Ryb2tlOiMzMzMgIWltcG9ydGFudDtzdHJva2Utd2lkdGg6MnB4ICFpbXBvcnRhbnQiIGNsYXNzPSJiYXNpYyBsYWJlbC1jb250YWluZXIiPjwvcmVjdD48ZyB0cmFuc2Zvcm09InRyYW5zbGF0ZSgtMTAwLCAtMjQpIiBzdHlsZT0iIiBjbGFzcz0ibGFiZWwiPjxyZWN0PjwvcmVjdD48Zm9yZWlnbk9iamVjdCBoZWlnaHQ9IjQ4IiB3aWR0aD0iMjAwIj48ZGl2IHN0eWxlPSJkaXNwbGF5OiB0YWJsZTsgd2hpdGUtc3BhY2U6IGJyZWFrLXNwYWNlczsgbGluZS1oZWlnaHQ6IDEuNTsgbWF4LXdpZHRoOiAyMDBweDsgdGV4dC1hbGlnbjogY2VudGVyOyB3aWR0aDogMjAwcHg7IiB4bWxucz0iaHR0cDovL3d3dy53My5vcmcvMTk5OS94aHRtbCI+PHNwYW4gY2xhc3M9Im5vZGVMYWJlbCI+PHA+6KaL56mN44KC44KK5LiA6Kan44Oq44K544OI44Oc44OD44Kv44K55L2c5oiQPC9wPjwvc3Bhbj48L2Rpdj48L2ZvcmVpZ25PYmplY3Q+PC9nPjwvZz48ZyB0cmFuc2Zvcm09InRyYW5zbGF0ZSgxNjQwLCA0MDcpIiBpZD0iZmxvd2NoYXJ0LUU2LTgxIiBjbGFzcz0ibm9kZSBkZWZhdWx0IHByb2Nlc3MiPjxyZWN0IGhlaWdodD0iNzgiIHdpZHRoPSIyNjAiIHk9Ii0zOSIgeD0iLTEzMCIgc3R5bGU9ImZpbGw6I2NjZiAhaW1wb3J0YW50O3N0cm9rZTojMzMzICFpbXBvcnRhbnQ7c3Ryb2tlLXdpZHRoOjJweCAhaW1wb3J0YW50IiBjbGFzcz0iYmFzaWMgbGFiZWwtY29udGFpbmVyIj48L3JlY3Q+PGcgdHJhbnNmb3JtPSJ0cmFuc2xhdGUoLTEwMCwgLTI0KSIgc3R5bGU9IiIgY2xhc3M9ImxhYmVsIj48cmVjdD48L3JlY3Q+PGZvcmVpZ25PYmplY3QgaGVpZ2h0PSI0OCIgd2lkdGg9IjIwMCI+PGRpdiBzdHlsZT0iZGlzcGxheTogdGFibGU7IHdoaXRlLXNwYWNlOiBicmVhay1zcGFjZXM7IGxpbmUtaGVpZ2h0OiAxLjU7IG1heC13aWR0aDogMjAwcHg7IHRleHQtYWxpZ246IGNlbnRlcjsgd2lkdGg6IDIwMHB4OyIgeG1sbnM9Imh0dHA6Ly93d3cudzMub3JnLzE5OTkveGh0bWwiPjxzcGFuIGNsYXNzPSJub2RlTGFiZWwiPjxwPuimi+epjeOCguOCiuips+e0sOihqOekuuOCqOODquOCouS9nOaIkDwvcD48L3NwYW4+PC9kaXY+PC9mb3JlaWduT2JqZWN0PjwvZz48L2c+PGcgdHJhbnNmb3JtPSJ0cmFuc2xhdGUoMjQxMi43NjE3MTg3NSwgMjc5KSIgaWQ9ImZsb3djaGFydC1GLTgzIiBjbGFzcz0ibm9kZSBkZWZhdWx0IHByb2Nlc3MiPjxyZWN0IGhlaWdodD0iNTQiIHdpZHRoPSIyMDQiIHk9Ii0yNyIgeD0iLTEwMiIgc3R5bGU9ImZpbGw6I2NjZiAhaW1wb3J0YW50O3N0cm9rZTojMzMzICFpbXBvcnRhbnQ7c3Ryb2tlLXdpZHRoOjJweCAhaW1wb3J0YW50IiBjbGFzcz0iYmFzaWMgbGFiZWwtY29udGFpbmVyIj48L3JlY3Q+PGcgdHJhbnNmb3JtPSJ0cmFuc2xhdGUoLTcyLCAtMTIpIiBzdHlsZT0iIiBjbGFzcz0ibGFiZWwiPjxyZWN0PjwvcmVjdD48Zm9yZWlnbk9iamVjdCBoZWlnaHQ9IjI0IiB3aWR0aD0iMTQ0Ij48ZGl2IHN0eWxlPSJkaXNwbGF5OiB0YWJsZS1jZWxsOyB3aGl0ZS1zcGFjZTogbm93cmFwOyBsaW5lLWhlaWdodDogMS41OyBtYXgtd2lkdGg6IDIwMHB4OyB0ZXh0LWFsaWduOiBjZW50ZXI7IiB4bWxucz0iaHR0cDovL3d3dy53My5vcmcvMTk5OS94aHRtbCI+PHNwYW4gY2xhc3M9Im5vZGVMYWJlbCI+PHA+5Yid5pyf44OH44O844K/6Kqt44G/6L6844G/PC9wPjwvc3Bhbj48L2Rpdj48L2ZvcmVpZ25PYmplY3Q+PC9nPjwvZz48ZyB0cmFuc2Zvcm09InRyYW5zbGF0ZSgxODA1LCAxMDIyKSIgaWQ9ImZsb3djaGFydC1HLTg1IiBjbGFzcz0ibm9kZSBkZWZhdWx0IHByb2Nlc3MiPjxyZWN0IGhlaWdodD0iNzgiIHdpZHRoPSIyNjAiIHk9Ii0zOSIgeD0iLTEzMCIgc3R5bGU9ImZpbGw6I2NjZiAhaW1wb3J0YW50O3N0cm9rZTojMzMzICFpbXBvcnRhbnQ7c3Ryb2tlLXdpZHRoOjJweCAhaW1wb3J0YW50IiBjbGFzcz0iYmFzaWMgbGFiZWwtY29udGFpbmVyIj48L3JlY3Q+PGcgdHJhbnNmb3JtPSJ0cmFuc2xhdGUoLTEwMCwgLTI0KSIgc3R5bGU9IiIgY2xhc3M9ImxhYmVsIj48cmVjdD48L3JlY3Q+PGZvcmVpZ25PYmplY3QgaGVpZ2h0PSI0OCIgd2lkdGg9IjIwMCI+PGRpdiBzdHlsZT0iZGlzcGxheTogdGFibGU7IHdoaXRlLXNwYWNlOiBicmVhay1zcGFjZXM7IGxpbmUtaGVpZ2h0OiAxLjU7IG1heC13aWR0aDogMjAwcHg7IHRleHQtYWxpZ246IGNlbnRlcjsgd2lkdGg6IDIwMHB4OyIgeG1sbnM9Imh0dHA6Ly93d3cudzMub3JnLzE5OTkveGh0bWwiPjxzcGFuIGNsYXNzPSJub2RlTGFiZWwiPjxwPuahiOS7tuaDheWgseiqreOBv+i+vOOBvyAobG9hZF9wcm9qZWN0cyk8L3A+PC9zcGFuPjwvZGl2PjwvZm9yZWlnbk9iamVjdD48L2c+PC9nPjxnIHRyYW5zZm9ybT0idHJhbnNsYXRlKDE4MDUsIDExNTApIiBpZD0iZmxvd2NoYXJ0LUcxLTg3IiBjbGFzcz0ibm9kZSBkZWZhdWx0IHByb2Nlc3MiPjxyZWN0IGhlaWdodD0iNTQiIHdpZHRoPSIxNzQuODc1IiB5PSItMjciIHg9Ii04Ny40Mzc1IiBzdHlsZT0iZmlsbDojY2NmICFpbXBvcnRhbnQ7c3Ryb2tlOiMzMzMgIWltcG9ydGFudDtzdHJva2Utd2lkdGg6MnB4ICFpbXBvcnRhbnQiIGNsYXNzPSJiYXNpYyBsYWJlbC1jb250YWluZXIiPjwvcmVjdD48ZyB0cmFuc2Zvcm09InRyYW5zbGF0ZSgtNTcuNDM3NSwgLTEyKSIgc3R5bGU9IiIgY2xhc3M9ImxhYmVsIj48cmVjdD48L3JlY3Q+PGZvcmVpZ25PYmplY3QgaGVpZ2h0PSIyNCIgd2lkdGg9IjExNC44NzUiPjxkaXYgc3R5bGU9ImRpc3BsYXk6IHRhYmxlLWNlbGw7IHdoaXRlLXNwYWNlOiBub3dyYXA7IGxpbmUtaGVpZ2h0OiAxLjU7IG1heC13aWR0aDogMjAwcHg7IHRleHQtYWxpZ246IGNlbnRlcjsiIHhtbG5zPSJodHRwOi8vd3d3LnczLm9yZy8xOTk5L3hodG1sIj48c3BhbiBjbGFzcz0ibm9kZUxhYmVsIj48cD5EQuOBi+OCieahiOS7tuWPluW+lzwvcD48L3NwYW4+PC9kaXY+PC9mb3JlaWduT2JqZWN0PjwvZz48L2c+PGcgdHJhbnNmb3JtPSJ0cmFuc2xhdGUoMTUxNy4yMzgyODEyNSwgMTI5MSkiIGlkPSJmbG93Y2hhcnQtRzItODkiIGNsYXNzPSJub2RlIGRlZmF1bHQgcHJvY2VzcyI+PHJlY3QgaGVpZ2h0PSI1NCIgd2lkdGg9IjI1MiIgeT0iLTI3IiB4PSItMTI2IiBzdHlsZT0iZmlsbDojY2NmICFpbXBvcnRhbnQ7c3Ryb2tlOiMzMzMgIWltcG9ydGFudDtzdHJva2Utd2lkdGg6MnB4ICFpbXBvcnRhbnQiIGNsYXNzPSJiYXNpYyBsYWJlbC1jb250YWluZXIiPjwvcmVjdD48ZyB0cmFuc2Zvcm09InRyYW5zbGF0ZSgtOTYsIC0xMikiIHN0eWxlPSIiIGNsYXNzPSJsYWJlbCI+PHJlY3Q+PC9yZWN0Pjxmb3JlaWduT2JqZWN0IGhlaWdodD0iMjQiIHdpZHRoPSIxOTIiPjxkaXYgc3R5bGU9ImRpc3BsYXk6IHRhYmxlLWNlbGw7IHdoaXRlLXNwYWNlOiBub3dyYXA7IGxpbmUtaGVpZ2h0OiAxLjU7IG1heC13aWR0aDogMjAwcHg7IHRleHQtYWxpZ246IGNlbnRlcjsiIHhtbG5zPSJodHRwOi8vd3d3LnczLm9yZy8xOTk5L3hodG1sIj48c3BhbiBjbGFzcz0ibm9kZUxhYmVsIj48cD7moYjku7bjg4njg63jg4Pjg5fjg4Djgqbjg7PjgavoqK3lrpo8L3A+PC9zcGFuPjwvZGl2PjwvZm9yZWlnbk9iamVjdD48L2c+PC9nPjxnIHRyYW5zZm9ybT0idHJhbnNsYXRlKDIyNTcuNzYxNzE4NzUsIDEwMjIpIiBpZD0iZmxvd2NoYXJ0LUgtOTEiIGNsYXNzPSJub2RlIGRlZmF1bHQgcHJvY2VzcyI+PHJlY3QgaGVpZ2h0PSI3OCIgd2lkdGg9IjI2MCIgeT0iLTM5IiB4PSItMTMwIiBzdHlsZT0iZmlsbDojY2NmICFpbXBvcnRhbnQ7c3Ryb2tlOiMzMzMgIWltcG9ydGFudDtzdHJva2Utd2lkdGg6MnB4ICFpbXBvcnRhbnQiIGNsYXNzPSJiYXNpYyBsYWJlbC1jb250YWluZXIiPjwvcmVjdD48ZyB0cmFuc2Zvcm09InRyYW5zbGF0ZSgtMTAwLCAtMjQpIiBzdHlsZT0iIiBjbGFzcz0ibGFiZWwiPjxyZWN0PjwvcmVjdD48Zm9yZWlnbk9iamVjdCBoZWlnaHQ9IjQ4IiB3aWR0aD0iMjAwIj48ZGl2IHN0eWxlPSJkaXNwbGF5OiB0YWJsZTsgd2hpdGUtc3BhY2U6IGJyZWFrLXNwYWNlczsgbGluZS1oZWlnaHQ6IDEuNTsgbWF4LXdpZHRoOiAyMDBweDsgdGV4dC1hbGlnbjogY2VudGVyOyB3aWR0aDogMjAwcHg7IiB4bWxucz0iaHR0cDovL3d3dy53My5vcmcvMTk5OS94aHRtbCI+PHNwYW4gY2xhc3M9Im5vZGVMYWJlbCI+PHA+6aGn5a6i5oOF5aCx6Kqt44G/6L6844G/IChsb2FkX2N1c3RvbWVycyk8L3A+PC9zcGFuPjwvZGl2PjwvZm9yZWlnbk9iamVjdD48L2c+PC9nPjxnIHRyYW5zZm9ybT0idHJhbnNsYXRlKDIyNTcuNzYxNzE4NzUsIDExNTApIiBpZD0iZmxvd2NoYXJ0LUgxLTkzIiBjbGFzcz0ibm9kZSBkZWZhdWx0IHByb2Nlc3MiPjxyZWN0IGhlaWdodD0iNTQiIHdpZHRoPSIxNzQuODc1IiB5PSItMjciIHg9Ii04Ny40Mzc1IiBzdHlsZT0iZmlsbDojY2NmICFpbXBvcnRhbnQ7c3Ryb2tlOiMzMzMgIWltcG9ydGFudDtzdHJva2Utd2lkdGg6MnB4ICFpbXBvcnRhbnQiIGNsYXNzPSJiYXNpYyBsYWJlbC1jb250YWluZXIiPjwvcmVjdD48ZyB0cmFuc2Zvcm09InRyYW5zbGF0ZSgtNTcuNDM3NSwgLTEyKSIgc3R5bGU9IiIgY2xhc3M9ImxhYmVsIj48cmVjdD48L3JlY3Q+PGZvcmVpZ25PYmplY3QgaGVpZ2h0PSIyNCIgd2lkdGg9IjExNC44NzUiPjxkaXYgc3R5bGU9ImRpc3BsYXk6IHRhYmxlLWNlbGw7IHdoaXRlLXNwYWNlOiBub3dyYXA7IGxpbmUtaGVpZ2h0OiAxLjU7IG1heC13aWR0aDogMjAwcHg7IHRleHQtYWxpZ246IGNlbnRlcjsiIHhtbG5zPSJodHRwOi8vd3d3LnczLm9yZy8xOTk5L3hodG1sIj48c3BhbiBjbGFzcz0ibm9kZUxhYmVsIj48cD5EQuOBi+OCiemhp+WuouWPluW+lzwvcD48L3NwYW4+PC9kaXY+PC9mb3JlaWduT2JqZWN0PjwvZz48L2c+PGcgdHJhbnNmb3JtPSJ0cmFuc2xhdGUoMTgxOS4yMzgyODEyNSwgMTI5MSkiIGlkPSJmbG93Y2hhcnQtSDItOTUiIGNsYXNzPSJub2RlIGRlZmF1bHQgcHJvY2VzcyI+PHJlY3QgaGVpZ2h0PSI1NCIgd2lkdGg9IjI1MiIgeT0iLTI3IiB4PSItMTI2IiBzdHlsZT0iZmlsbDojY2NmICFpbXBvcnRhbnQ7c3Ryb2tlOiMzMzMgIWltcG9ydGFudDtzdHJva2Utd2lkdGg6MnB4ICFpbXBvcnRhbnQiIGNsYXNzPSJiYXNpYyBsYWJlbC1jb250YWluZXIiPjwvcmVjdD48ZyB0cmFuc2Zvcm09InRyYW5zbGF0ZSgtOTYsIC0xMikiIHN0eWxlPSIiIGNsYXNzPSJsYWJlbCI+PHJlY3Q+PC9yZWN0Pjxmb3JlaWduT2JqZWN0IGhlaWdodD0iMjQiIHdpZHRoPSIxOTIiPjxkaXYgc3R5bGU9ImRpc3BsYXk6IHRhYmxlLWNlbGw7IHdoaXRlLXNwYWNlOiBub3dyYXA7IGxpbmUtaGVpZ2h0OiAxLjU7IG1heC13aWR0aDogMjAwcHg7IHRleHQtYWxpZ246IGNlbnRlcjsiIHhtbG5zPSJodHRwOi8vd3d3LnczLm9yZy8xOTk5L3hodG1sIj48c3BhbiBjbGFzcz0ibm9kZUxhYmVsIj48cD7poaflrqLjg4njg63jg4Pjg5fjg4Djgqbjg7PjgavoqK3lrpo8L3A+PC9zcGFuPjwvZGl2PjwvZm9yZWlnbk9iamVjdD48L2c+PC9nPjxnIHRyYW5zZm9ybT0idHJhbnNsYXRlKDQ4NTMuMjY1NjI1LCA0MDcpIiBpZD0iZmxvd2NoYXJ0LUktOTciIGNsYXNzPSJub2RlIGRlZmF1bHQgcHJvY2VzcyI+PHJlY3QgaGVpZ2h0PSI3OCIgd2lkdGg9IjI2MCIgeT0iLTM5IiB4PSItMTMwIiBzdHlsZT0iZmlsbDojY2NmICFpbXBvcnRhbnQ7c3Ryb2tlOiMzMzMgIWltcG9ydGFudDtzdHJva2Utd2lkdGg6MnB4ICFpbXBvcnRhbnQiIGNsYXNzPSJiYXNpYyBsYWJlbC1jb250YWluZXIiPjwvcmVjdD48ZyB0cmFuc2Zvcm09InRyYW5zbGF0ZSgtMTAwLCAtMjQpIiBzdHlsZT0iIiBjbGFzcz0ibGFiZWwiPjxyZWN0PjwvcmVjdD48Zm9yZWlnbk9iamVjdCBoZWlnaHQ9IjQ4IiB3aWR0aD0iMjAwIj48ZGl2IHN0eWxlPSJkaXNwbGF5OiB0YWJsZTsgd2hpdGUtc3BhY2U6IGJyZWFrLXNwYWNlczsgbGluZS1oZWlnaHQ6IDEuNTsgbWF4LXdpZHRoOiAyMDBweDsgdGV4dC1hbGlnbjogY2VudGVyOyB3aWR0aDogMjAwcHg7IiB4bWxucz0iaHR0cDovL3d3dy53My5vcmcvMTk5OS94aHRtbCI+PHNwYW4gY2xhc3M9Im5vZGVMYWJlbCI+PHA+6KaL56mN44KC44KK5LiA6Kan6Kqt44G/6L6844G/IChsb2FkX3F1b3RhdGlvbnMpPC9wPjwvc3Bhbj48L2Rpdj48L2ZvcmVpZ25PYmplY3Q+PC9nPjwvZz48ZyB0cmFuc2Zvcm09InRyYW5zbGF0ZSg0NTE3LjU4OTg0Mzc1LCA1MjMpIiBpZD0iZmxvd2NoYXJ0LUkxLTk5IiBjbGFzcz0ibm9kZSBkZWZhdWx0IHByb2Nlc3MiPjxyZWN0IGhlaWdodD0iNTQiIHdpZHRoPSIyMDYuODc1IiB5PSItMjciIHg9Ii0xMDMuNDM3NSIgc3R5bGU9ImZpbGw6I2NjZiAhaW1wb3J0YW50O3N0cm9rZTojMzMzICFpbXBvcnRhbnQ7c3Ryb2tlLXdpZHRoOjJweCAhaW1wb3J0YW50IiBjbGFzcz0iYmFzaWMgbGFiZWwtY29udGFpbmVyIj48L3JlY3Q+PGcgdHJhbnNmb3JtPSJ0cmFuc2xhdGUoLTczLjQzNzUsIC0xMikiIHN0eWxlPSIiIGNsYXNzPSJsYWJlbCI+PHJlY3Q+PC9yZWN0Pjxmb3JlaWduT2JqZWN0IGhlaWdodD0iMjQiIHdpZHRoPSIxNDYuODc1Ij48ZGl2IHN0eWxlPSJkaXNwbGF5OiB0YWJsZS1jZWxsOyB3aGl0ZS1zcGFjZTogbm93cmFwOyBsaW5lLWhlaWdodDogMS41OyBtYXgtd2lkdGg6IDIwMHB4OyB0ZXh0LWFsaWduOiBjZW50ZXI7IiB4bWxucz0iaHR0cDovL3d3dy53My5vcmcvMTk5OS94aHRtbCI+PHNwYW4gY2xhc3M9Im5vZGVMYWJlbCI+PHA+RELjgYvjgonopovnqY3jgoLjgorlj5blvpc8L3A+PC9zcGFuPjwvZGl2PjwvZm9yZWlnbk9iamVjdD48L2c+PC9nPjxnIHRyYW5zZm9ybT0idHJhbnNsYXRlKDM3MzYuMTc1NzgxMjUsIDYzOSkiIGlkPSJmbG93Y2hhcnQtSTItMTAxIiBjbGFzcz0ibm9kZSBkZWZhdWx0IHByb2Nlc3MiPjxyZWN0IGhlaWdodD0iNzgiIHdpZHRoPSIyNjAiIHk9Ii0zOSIgeD0iLTEzMCIgc3R5bGU9ImZpbGw6I2NjZiAhaW1wb3J0YW50O3N0cm9rZTojMzMzICFpbXBvcnRhbnQ7c3Ryb2tlLXdpZHRoOjJweCAhaW1wb3J0YW50IiBjbGFzcz0iYmFzaWMgbGFiZWwtY29udGFpbmVyIj48L3JlY3Q+PGcgdHJhbnNmb3JtPSJ0cmFuc2xhdGUoLTEwMCwgLTI0KSIgc3R5bGU9IiIgY2xhc3M9ImxhYmVsIj48cmVjdD48L3JlY3Q+PGZvcmVpZ25PYmplY3QgaGVpZ2h0PSI0OCIgd2lkdGg9IjIwMCI+PGRpdiBzdHlsZT0iZGlzcGxheTogdGFibGU7IHdoaXRlLXNwYWNlOiBicmVhay1zcGFjZXM7IGxpbmUtaGVpZ2h0OiAxLjU7IG1heC13aWR0aDogMjAwcHg7IHRleHQtYWxpZ246IGNlbnRlcjsgd2lkdGg6IDIwMHB4OyIgeG1sbnM9Imh0dHA6Ly93d3cudzMub3JnLzE5OTkveGh0bWwiPjxzcGFuIGNsYXNzPSJub2RlTGFiZWwiPjxwPuimi+epjeOCguOCiuS4gOimp+ODquOCueODiOODnOODg+OCr+OCueOBq+ihqOekujwvcD48L3NwYW4+PC9kaXY+PC9mb3JlaWduT2JqZWN0PjwvZz48L2c+PGcgdHJhbnNmb3JtPSJ0cmFuc2xhdGUoMzczNi4xNzU3ODEyNSwgNzU1KSIgaWQ9ImZsb3djaGFydC1KLTEwMyIgY2xhc3M9Im5vZGUgZGVmYXVsdCBwcm9jZXNzIj48cmVjdCBoZWlnaHQ9IjU0IiB3aWR0aD0iMTg3LjY4NzUiIHk9Ii0yNyIgeD0iLTkzLjg0Mzc1IiBzdHlsZT0iZmlsbDojY2NmICFpbXBvcnRhbnQ7c3Ryb2tlOiMzMzMgIWltcG9ydGFudDtzdHJva2Utd2lkdGg6MnB4ICFpbXBvcnRhbnQiIGNsYXNzPSJiYXNpYyBsYWJlbC1jb250YWluZXIiPjwvcmVjdD48ZyB0cmFuc2Zvcm09InRyYW5zbGF0ZSgtNjMuODQzNzUsIC0xMikiIHN0eWxlPSIiIGNsYXNzPSJsYWJlbCI+PHJlY3Q+PC9yZWN0Pjxmb3JlaWduT2JqZWN0IGhlaWdodD0iMjQiIHdpZHRoPSIxMjcuNjg3NSI+PGRpdiBzdHlsZT0iZGlzcGxheTogdGFibGUtY2VsbDsgd2hpdGUtc3BhY2U6IG5vd3JhcDsgbGluZS1oZWlnaHQ6IDEuNTsgbWF4LXdpZHRoOiAyMDBweDsgdGV4dC1hbGlnbjogY2VudGVyOyIgeG1sbnM9Imh0dHA6Ly93d3cudzMub3JnLzE5OTkveGh0bWwiPjxzcGFuIGNsYXNzPSJub2RlTGFiZWwiPjxwPuODpuODvOOCtuODvOaTjeS9nOW+heapnzwvcD48L3NwYW4+PC9kaXY+PC9mb3JlaWduT2JqZWN0PjwvZz48L2c+PGcgdHJhbnNmb3JtPSJ0cmFuc2xhdGUoMjc0NC42MzY3MTg3NSwgODcxKSIgaWQ9ImZsb3djaGFydC1LLTEwNSIgY2xhc3M9Im5vZGUgZGVmYXVsdCBpbyI+PHJlY3QgaGVpZ2h0PSI3OCIgd2lkdGg9IjI2MCIgeT0iLTM5IiB4PSItMTMwIiBzdHlsZT0iZmlsbDojZmNjICFpbXBvcnRhbnQ7c3Ryb2tlOiMzMzMgIWltcG9ydGFudDtzdHJva2Utd2lkdGg6MnB4ICFpbXBvcnRhbnQiIGNsYXNzPSJiYXNpYyBsYWJlbC1jb250YWluZXIiPjwvcmVjdD48ZyB0cmFuc2Zvcm09InRyYW5zbGF0ZSgtMTAwLCAtMjQpIiBzdHlsZT0iIiBjbGFzcz0ibGFiZWwiPjxyZWN0PjwvcmVjdD48Zm9yZWlnbk9iamVjdCBoZWlnaHQ9IjQ4IiB3aWR0aD0iMjAwIj48ZGl2IHN0eWxlPSJkaXNwbGF5OiB0YWJsZTsgd2hpdGUtc3BhY2U6IGJyZWFrLXNwYWNlczsgbGluZS1oZWlnaHQ6IDEuNTsgbWF4LXdpZHRoOiAyMDBweDsgdGV4dC1hbGlnbjogY2VudGVyOyB3aWR0aDogMjAwcHg7IiB4bWxucz0iaHR0cDovL3d3dy53My5vcmcvMTk5OS94aHRtbCI+PHNwYW4gY2xhc3M9Im5vZGVMYWJlbCI+PHA+5pON5L2cOiDopovnqY3jgoLjgorov73liqDjg5zjgr/jg7Mg44Kv44Oq44OD44KvPC9wPjwvc3Bhbj48L2Rpdj48L2ZvcmVpZ25PYmplY3Q+PC9nPjwvZz48ZyB0cmFuc2Zvcm09InRyYW5zbGF0ZSgyNzQ0LjYzNjcxODc1LCAxMDIyKSIgaWQ9ImZsb3djaGFydC1MLTEwNyIgY2xhc3M9Im5vZGUgZGVmYXVsdCBwcm9jZXNzIj48cmVjdCBoZWlnaHQ9Ijc4IiB3aWR0aD0iMjYwIiB5PSItMzkiIHg9Ii0xMzAiIHN0eWxlPSJmaWxsOiNjY2YgIWltcG9ydGFudDtzdHJva2U6IzMzMyAhaW1wb3J0YW50O3N0cm9rZS13aWR0aDoycHggIWltcG9ydGFudCIgY2xhc3M9ImJhc2ljIGxhYmVsLWNvbnRhaW5lciI+PC9yZWN0PjxnIHRyYW5zZm9ybT0idHJhbnNsYXRlKC0xMDAsIC0yNCkiIHN0eWxlPSIiIGNsYXNzPSJsYWJlbCI+PHJlY3Q+PC9yZWN0Pjxmb3JlaWduT2JqZWN0IGhlaWdodD0iNDgiIHdpZHRoPSIyMDAiPjxkaXYgc3R5bGU9ImRpc3BsYXk6IHRhYmxlOyB3aGl0ZS1zcGFjZTogYnJlYWstc3BhY2VzOyBsaW5lLWhlaWdodDogMS41OyBtYXgtd2lkdGg6IDIwMHB4OyB0ZXh0LWFsaWduOiBjZW50ZXI7IHdpZHRoOiAyMDBweDsiIHhtbG5zPSJodHRwOi8vd3d3LnczLm9yZy8xOTk5L3hodG1sIj48c3BhbiBjbGFzcz0ibm9kZUxhYmVsIj48cD7lhaXlipvlgKTlj5blvpcgKGFkZF9xdW90YXRpb24pPC9wPjwvc3Bhbj48L2Rpdj48L2ZvcmVpZ25PYmplY3Q+PC9nPjwvZz48ZyB0cmFuc2Zvcm09InRyYW5zbGF0ZSgzMTUyLjQxNzk2ODc1LCAxMTUwKSIgaWQ9ImZsb3djaGFydC1NLTEwOSIgY2xhc3M9Im5vZGUgZGVmYXVsdCBwcm9jZXNzIj48cmVjdCBoZWlnaHQ9IjU0IiB3aWR0aD0iMjIyLjg3NSIgeT0iLTI3IiB4PSItMTExLjQzNzUiIHN0eWxlPSJmaWxsOiNjY2YgIWltcG9ydGFudDtzdHJva2U6IzMzMyAhaW1wb3J0YW50O3N0cm9rZS13aWR0aDoycHggIWltcG9ydGFudCIgY2xhc3M9ImJhc2ljIGxhYmVsLWNvbnRhaW5lciI+PC9yZWN0PjxnIHRyYW5zZm9ybT0idHJhbnNsYXRlKC04MS40Mzc1LCAtMTIpIiBzdHlsZT0iIiBjbGFzcz0ibGFiZWwiPjxyZWN0PjwvcmVjdD48Zm9yZWlnbk9iamVjdCBoZWlnaHQ9IjI0IiB3aWR0aD0iMTYyLjg3NSI+PGRpdiBzdHlsZT0iZGlzcGxheTogdGFibGUtY2VsbDsgd2hpdGUtc3BhY2U6IG5vd3JhcDsgbGluZS1oZWlnaHQ6IDEuNTsgbWF4LXdpZHRoOiAyMDBweDsgdGV4dC1hbGlnbjogY2VudGVyOyIgeG1sbnM9Imh0dHA6Ly93d3cudzMub3JnLzE5OTkveGh0bWwiPjxzcGFuIGNsYXNzPSJub2RlTGFiZWwiPjxwPkRC44Gr6KaL56mN44KC44KK5oOF5aCx5L+d5a2YPC9wPjwvc3Bhbj48L2Rpdj48L2ZvcmVpZ25PYmplY3Q+PC9nPjwvZz48ZyB0cmFuc2Zvcm09InRyYW5zbGF0ZSgzMjI5LjQ3NjU2MjUsIDg3MSkiIGlkPSJmbG93Y2hhcnQtTi0xMTMiIGNsYXNzPSJub2RlIGRlZmF1bHQgaW8iPjxyZWN0IGhlaWdodD0iNzgiIHdpZHRoPSIyNjAiIHk9Ii0zOSIgeD0iLTEzMCIgc3R5bGU9ImZpbGw6I2ZjYyAhaW1wb3J0YW50O3N0cm9rZTojMzMzICFpbXBvcnRhbnQ7c3Ryb2tlLXdpZHRoOjJweCAhaW1wb3J0YW50IiBjbGFzcz0iYmFzaWMgbGFiZWwtY29udGFpbmVyIj48L3JlY3Q+PGcgdHJhbnNmb3JtPSJ0cmFuc2xhdGUoLTEwMCwgLTI0KSIgc3R5bGU9IiIgY2xhc3M9ImxhYmVsIj48cmVjdD48L3JlY3Q+PGZvcmVpZ25PYmplY3QgaGVpZ2h0PSI0OCIgd2lkdGg9IjIwMCI+PGRpdiBzdHlsZT0iZGlzcGxheTogdGFibGU7IHdoaXRlLXNwYWNlOiBicmVhay1zcGFjZXM7IGxpbmUtaGVpZ2h0OiAxLjU7IG1heC13aWR0aDogMjAwcHg7IHRleHQtYWxpZ246IGNlbnRlcjsgd2lkdGg6IDIwMHB4OyIgeG1sbnM9Imh0dHA6Ly93d3cudzMub3JnLzE5OTkveGh0bWwiPjxzcGFuIGNsYXNzPSJub2RlTGFiZWwiPjxwPuaTjeS9nDog6KaL56mN44KC44KK5pu05paw44Oc44K/44OzIOOCr+ODquODg+OCrzwvcD48L3NwYW4+PC9kaXY+PC9mb3JlaWduT2JqZWN0PjwvZz48L2c+PGcgdHJhbnNmb3JtPSJ0cmFuc2xhdGUoMzIyOS40NzY1NjI1LCAxMDIyKSIgaWQ9ImZsb3djaGFydC1PLTExNSIgY2xhc3M9Im5vZGUgZGVmYXVsdCBwcm9jZXNzIj48cmVjdCBoZWlnaHQ9Ijc4IiB3aWR0aD0iMjYwIiB5PSItMzkiIHg9Ii0xMzAiIHN0eWxlPSJmaWxsOiNjY2YgIWltcG9ydGFudDtzdHJva2U6IzMzMyAhaW1wb3J0YW50O3N0cm9rZS13aWR0aDoycHggIWltcG9ydGFudCIgY2xhc3M9ImJhc2ljIGxhYmVsLWNvbnRhaW5lciI+PC9yZWN0PjxnIHRyYW5zZm9ybT0idHJhbnNsYXRlKC0xMDAsIC0yNCkiIHN0eWxlPSIiIGNsYXNzPSJsYWJlbCI+PHJlY3Q+PC9yZWN0Pjxmb3JlaWduT2JqZWN0IGhlaWdodD0iNDgiIHdpZHRoPSIyMDAiPjxkaXYgc3R5bGU9ImRpc3BsYXk6IHRhYmxlOyB3aGl0ZS1zcGFjZTogYnJlYWstc3BhY2VzOyBsaW5lLWhlaWdodDogMS41OyBtYXgtd2lkdGg6IDIwMHB4OyB0ZXh0LWFsaWduOiBjZW50ZXI7IHdpZHRoOiAyMDBweDsiIHhtbG5zPSJodHRwOi8vd3d3LnczLm9yZy8xOTk5L3hodG1sIj48c3BhbiBjbGFzcz0ibm9kZUxhYmVsIj48cD7pgbjmip7opovnqY3jgoLjgopJROOBqOWFpeWKm+WApOWPluW+lyAodXBkYXRlX3F1b3RhdGlvbik8L3A+PC9zcGFuPjwvZGl2PjwvZm9yZWlnbk9iamVjdD48L2c+PC9nPjxnIHRyYW5zZm9ybT0idHJhbnNsYXRlKDM2OTQuNDk2MDkzNzUsIDExNTApIiBpZD0iZmxvd2NoYXJ0LVAtMTE3IiBjbGFzcz0ibm9kZSBkZWZhdWx0IHByb2Nlc3MiPjxyZWN0IGhlaWdodD0iNTQiIHdpZHRoPSIyMjIuODc1IiB5PSItMjciIHg9Ii0xMTEuNDM3NSIgc3R5bGU9ImZpbGw6I2NjZiAhaW1wb3J0YW50O3N0cm9rZTojMzMzICFpbXBvcnRhbnQ7c3Ryb2tlLXdpZHRoOjJweCAhaW1wb3J0YW50IiBjbGFzcz0iYmFzaWMgbGFiZWwtY29udGFpbmVyIj48L3JlY3Q+PGcgdHJhbnNmb3JtPSJ0cmFuc2xhdGUoLTgxLjQzNzUsIC0xMikiIHN0eWxlPSIiIGNsYXNzPSJsYWJlbCI+PHJlY3Q+PC9yZWN0Pjxmb3JlaWduT2JqZWN0IGhlaWdodD0iMjQiIHdpZHRoPSIxNjIuODc1Ij48ZGl2IHN0eWxlPSJkaXNwbGF5OiB0YWJsZS1jZWxsOyB3aGl0ZS1zcGFjZTogbm93cmFwOyBsaW5lLWhlaWdodDogMS41OyBtYXgtd2lkdGg6IDIwMHB4OyB0ZXh0LWFsaWduOiBjZW50ZXI7IiB4bWxucz0iaHR0cDovL3d3dy53My5vcmcvMTk5OS94aHRtbCI+PHNwYW4gY2xhc3M9Im5vZGVMYWJlbCI+PHA+RELjga7opovnqY3jgoLjgormg4XloLHmm7TmlrA8L3A+PC9zcGFuPjwvZGl2PjwvZm9yZWlnbk9iamVjdD48L2c+PC9nPjxnIHRyYW5zZm9ybT0idHJhbnNsYXRlKDM2NzkuOTE0MDYyNSwgODcxKSIgaWQ9ImZsb3djaGFydC1RLTEyMSIgY2xhc3M9Im5vZGUgZGVmYXVsdCBpbyI+PHJlY3QgaGVpZ2h0PSI3OCIgd2lkdGg9IjI2MCIgeT0iLTM5IiB4PSItMTMwIiBzdHlsZT0iZmlsbDojZmNjICFpbXBvcnRhbnQ7c3Ryb2tlOiMzMzMgIWltcG9ydGFudDtzdHJva2Utd2lkdGg6MnB4ICFpbXBvcnRhbnQiIGNsYXNzPSJiYXNpYyBsYWJlbC1jb250YWluZXIiPjwvcmVjdD48ZyB0cmFuc2Zvcm09InRyYW5zbGF0ZSgtMTAwLCAtMjQpIiBzdHlsZT0iIiBjbGFzcz0ibGFiZWwiPjxyZWN0PjwvcmVjdD48Zm9yZWlnbk9iamVjdCBoZWlnaHQ9IjQ4IiB3aWR0aD0iMjAwIj48ZGl2IHN0eWxlPSJkaXNwbGF5OiB0YWJsZTsgd2hpdGUtc3BhY2U6IGJyZWFrLXNwYWNlczsgbGluZS1oZWlnaHQ6IDEuNTsgbWF4LXdpZHRoOiAyMDBweDsgdGV4dC1hbGlnbjogY2VudGVyOyB3aWR0aDogMjAwcHg7IiB4bWxucz0iaHR0cDovL3d3dy53My5vcmcvMTk5OS94aHRtbCI+PHNwYW4gY2xhc3M9Im5vZGVMYWJlbCI+PHA+5pON5L2cOiDopovnqY3jgoLjgorliYrpmaTjg5zjgr/jg7Mg44Kv44Oq44OD44KvPC9wPjwvc3Bhbj48L2Rpdj48L2ZvcmVpZ25PYmplY3Q+PC9nPjwvZz48ZyB0cmFuc2Zvcm09InRyYW5zbGF0ZSgzNjc5LjkxNDA2MjUsIDEwMjIpIiBpZD0iZmxvd2NoYXJ0LVItMTIzIiBjbGFzcz0ibm9kZSBkZWZhdWx0IHByb2Nlc3MiPjxyZWN0IGhlaWdodD0iNzgiIHdpZHRoPSIyNjAiIHk9Ii0zOSIgeD0iLTEzMCIgc3R5bGU9ImZpbGw6I2NjZiAhaW1wb3J0YW50O3N0cm9rZTojMzMzICFpbXBvcnRhbnQ7c3Ryb2tlLXdpZHRoOjJweCAhaW1wb3J0YW50IiBjbGFzcz0iYmFzaWMgbGFiZWwtY29udGFpbmVyIj48L3JlY3Q+PGcgdHJhbnNmb3JtPSJ0cmFuc2xhdGUoLTEwMCwgLTI0KSIgc3R5bGU9IiIgY2xhc3M9ImxhYmVsIj48cmVjdD48L3JlY3Q+PGZvcmVpZ25PYmplY3QgaGVpZ2h0PSI0OCIgd2lkdGg9IjIwMCI+PGRpdiBzdHlsZT0iZGlzcGxheTogdGFibGU7IHdoaXRlLXNwYWNlOiBicmVhay1zcGFjZXM7IGxpbmUtaGVpZ2h0OiAxLjU7IG1heC13aWR0aDogMjAwcHg7IHRleHQtYWxpZ246IGNlbnRlcjsgd2lkdGg6IDIwMHB4OyIgeG1sbnM9Imh0dHA6Ly93d3cudzMub3JnLzE5OTkveGh0bWwiPjxzcGFuIGNsYXNzPSJub2RlTGFiZWwiPjxwPumBuOaKnuimi+epjeOCguOCiklE5Y+W5b6XIChkZWxldGVfcXVvdGF0aW9uKTwvcD48L3NwYW4+PC9kaXY+PC9mb3JlaWduT2JqZWN0PjwvZz48L2c+PGcgdHJhbnNmb3JtPSJ0cmFuc2xhdGUoNDI4NS4zNzEwOTM3NSwgMTE1MCkiIGlkPSJmbG93Y2hhcnQtUy0xMjUiIGNsYXNzPSJub2RlIGRlZmF1bHQgcHJvY2VzcyI+PHJlY3QgaGVpZ2h0PSI1NCIgd2lkdGg9IjIzOC44NzUiIHk9Ii0yNyIgeD0iLTExOS40Mzc1IiBzdHlsZT0iZmlsbDojY2NmICFpbXBvcnRhbnQ7c3Ryb2tlOiMzMzMgIWltcG9ydGFudDtzdHJva2Utd2lkdGg6MnB4ICFpbXBvcnRhbnQiIGNsYXNzPSJiYXNpYyBsYWJlbC1jb250YWluZXIiPjwvcmVjdD48ZyB0cmFuc2Zvcm09InRyYW5zbGF0ZSgtODkuNDM3NSwgLTEyKSIgc3R5bGU9IiIgY2xhc3M9ImxhYmVsIj48cmVjdD48L3JlY3Q+PGZvcmVpZ25PYmplY3QgaGVpZ2h0PSIyNCIgd2lkdGg9IjE3OC44NzUiPjxkaXYgc3R5bGU9ImRpc3BsYXk6IHRhYmxlLWNlbGw7IHdoaXRlLXNwYWNlOiBub3dyYXA7IGxpbmUtaGVpZ2h0OiAxLjU7IG1heC13aWR0aDogMjAwcHg7IHRleHQtYWxpZ246IGNlbnRlcjsiIHhtbG5zPSJodHRwOi8vd3d3LnczLm9yZy8xOTk5L3hodG1sIj48c3BhbiBjbGFzcz0ibm9kZUxhYmVsIj48cD5EQuOBi+OCieimi+epjeOCguOCiuaDheWgseWJiumZpDwvcD48L3NwYW4+PC9kaXY+PC9mb3JlaWduT2JqZWN0PjwvZz48L2c+PGcgdHJhbnNmb3JtPSJ0cmFuc2xhdGUoMzk4OS45MTQwNjI1LCA4NzEpIiBpZD0iZmxvd2NoYXJ0LVQtMTI5IiBjbGFzcz0ibm9kZSBkZWZhdWx0IGlvIj48cmVjdCBoZWlnaHQ9Ijc4IiB3aWR0aD0iMjYwIiB5PSItMzkiIHg9Ii0xMzAiIHN0eWxlPSJmaWxsOiNmY2MgIWltcG9ydGFudDtzdHJva2U6IzMzMyAhaW1wb3J0YW50O3N0cm9rZS13aWR0aDoycHggIWltcG9ydGFudCIgY2xhc3M9ImJhc2ljIGxhYmVsLWNvbnRhaW5lciI+PC9yZWN0PjxnIHRyYW5zZm9ybT0idHJhbnNsYXRlKC0xMDAsIC0yNCkiIHN0eWxlPSIiIGNsYXNzPSJsYWJlbCI+PHJlY3Q+PC9yZWN0Pjxmb3JlaWduT2JqZWN0IGhlaWdodD0iNDgiIHdpZHRoPSIyMDAiPjxkaXYgc3R5bGU9ImRpc3BsYXk6IHRhYmxlOyB3aGl0ZS1zcGFjZTogYnJlYWstc3BhY2VzOyBsaW5lLWhlaWdodDogMS41OyBtYXgtd2lkdGg6IDIwMHB4OyB0ZXh0LWFsaWduOiBjZW50ZXI7IHdpZHRoOiAyMDBweDsiIHhtbG5zPSJodHRwOi8vd3d3LnczLm9yZy8xOTk5L3hodG1sIj48c3BhbiBjbGFzcz0ibm9kZUxhYmVsIj48cD7mk43kvZw6IOOCr+ODquOCouODnOOCv+ODsyDjgq/jg6rjg4Pjgq88L3A+PC9zcGFuPjwvZGl2PjwvZm9yZWlnbk9iamVjdD48L2c+PC9nPjxnIHRyYW5zZm9ybT0idHJhbnNsYXRlKDM5ODkuOTE0MDYyNSwgMTAyMikiIGlkPSJmbG93Y2hhcnQtVS0xMzEiIGNsYXNzPSJub2RlIGRlZmF1bHQgcHJvY2VzcyI+PHJlY3QgaGVpZ2h0PSI3OCIgd2lkdGg9IjI2MCIgeT0iLTM5IiB4PSItMTMwIiBzdHlsZT0iZmlsbDojY2NmICFpbXBvcnRhbnQ7c3Ryb2tlOiMzMzMgIWltcG9ydGFudDtzdHJva2Utd2lkdGg6MnB4ICFpbXBvcnRhbnQiIGNsYXNzPSJiYXNpYyBsYWJlbC1jb250YWluZXIiPjwvcmVjdD48ZyB0cmFuc2Zvcm09InRyYW5zbGF0ZSgtMTAwLCAtMjQpIiBzdHlsZT0iIiBjbGFzcz0ibGFiZWwiPjxyZWN0PjwvcmVjdD48Zm9yZWlnbk9iamVjdCBoZWlnaHQ9IjQ4IiB3aWR0aD0iMjAwIj48ZGl2IHN0eWxlPSJkaXNwbGF5OiB0YWJsZTsgd2hpdGUtc3BhY2U6IGJyZWFrLXNwYWNlczsgbGluZS1oZWlnaHQ6IDEuNTsgbWF4LXdpZHRoOiAyMDBweDsgdGV4dC1hbGlnbjogY2VudGVyOyB3aWR0aDogMjAwcHg7IiB4bWxucz0iaHR0cDovL3d3dy53My5vcmcvMTk5OS94aHRtbCI+PHNwYW4gY2xhc3M9Im5vZGVMYWJlbCI+PHA+5YWl5Yqb5qyE44Kv44Oq44KiIChjbGVhcl9lbnRyaWVzKTwvcD48L3NwYW4+PC9kaXY+PC9mb3JlaWduT2JqZWN0PjwvZz48L2c+PGcgdHJhbnNmb3JtPSJ0cmFuc2xhdGUoMzQyMy40NTcwMzEyNSwgMTE1MCkiIGlkPSJmbG93Y2hhcnQtVTEtMTMzIiBjbGFzcz0ibm9kZSBkZWZhdWx0IHByb2Nlc3MiPjxyZWN0IGhlaWdodD0iNTQiIHdpZHRoPSIyMTkuMjAzMTI1IiB5PSItMjciIHg9Ii0xMDkuNjAxNTYyNSIgc3R5bGU9ImZpbGw6I2NjZiAhaW1wb3J0YW50O3N0cm9rZTojMzMzICFpbXBvcnRhbnQ7c3Ryb2tlLXdpZHRoOjJweCAhaW1wb3J0YW50IiBjbGFzcz0iYmFzaWMgbGFiZWwtY29udGFpbmVyIj48L3JlY3Q+PGcgdHJhbnNmb3JtPSJ0cmFuc2xhdGUoLTc5LjYwMTU2MjUsIC0xMikiIHN0eWxlPSIiIGNsYXNzPSJsYWJlbCI+PHJlY3Q+PC9yZWN0Pjxmb3JlaWduT2JqZWN0IGhlaWdodD0iMjQiIHdpZHRoPSIxNTkuMjAzMTI1Ij48ZGl2IHN0eWxlPSJkaXNwbGF5OiB0YWJsZS1jZWxsOyB3aGl0ZS1zcGFjZTogbm93cmFwOyBsaW5lLWhlaWdodDogMS41OyBtYXgtd2lkdGg6IDIwMHB4OyB0ZXh0LWFsaWduOiBjZW50ZXI7IiB4bWxucz0iaHR0cDovL3d3dy53My5vcmcvMTk5OS94aHRtbCI+PHNwYW4gY2xhc3M9Im5vZGVMYWJlbCI+PHA+6Kmz57Sw6KGo56S644Ko44Oq44Ki44Kv44Oq44KiPC9wPjwvc3Bhbj48L2Rpdj48L2ZvcmVpZ25PYmplY3Q+PC9nPjwvZz48ZyB0cmFuc2Zvcm09InRyYW5zbGF0ZSg0Mjk5LjkxNDA2MjUsIDg3MSkiIGlkPSJmbG93Y2hhcnQtVi0xMzciIGNsYXNzPSJub2RlIGRlZmF1bHQgaW8iPjxyZWN0IGhlaWdodD0iNzgiIHdpZHRoPSIyNjAiIHk9Ii0zOSIgeD0iLTEzMCIgc3R5bGU9ImZpbGw6I2ZjYyAhaW1wb3J0YW50O3N0cm9rZTojMzMzICFpbXBvcnRhbnQ7c3Ryb2tlLXdpZHRoOjJweCAhaW1wb3J0YW50IiBjbGFzcz0iYmFzaWMgbGFiZWwtY29udGFpbmVyIj48L3JlY3Q+PGcgdHJhbnNmb3JtPSJ0cmFuc2xhdGUoLTEwMCwgLTI0KSIgc3R5bGU9IiIgY2xhc3M9ImxhYmVsIj48cmVjdD48L3JlY3Q+PGZvcmVpZ25PYmplY3QgaGVpZ2h0PSI0OCIgd2lkdGg9IjIwMCI+PGRpdiBzdHlsZT0iZGlzcGxheTogdGFibGU7IHdoaXRlLXNwYWNlOiBicmVhay1zcGFjZXM7IGxpbmUtaGVpZ2h0OiAxLjU7IG1heC13aWR0aDogMjAwcHg7IHRleHQtYWxpZ246IGNlbnRlcjsgd2lkdGg6IDIwMHB4OyIgeG1sbnM9Imh0dHA6Ly93d3cudzMub3JnLzE5OTkveGh0bWwiPjxzcGFuIGNsYXNzPSJub2RlTGFiZWwiPjxwPuaTjeS9nDog5LiA6Kan44GL44KJ6KaL56mN44KC44KK6YG45oqePC9wPjwvc3Bhbj48L2Rpdj48L2ZvcmVpZ25PYmplY3Q+PC9nPjwvZz48ZyB0cmFuc2Zvcm09InRyYW5zbGF0ZSg0Mjk5LjkxNDA2MjUsIDEwMjIpIiBpZD0iZmxvd2NoYXJ0LVctMTM5IiBjbGFzcz0ibm9kZSBkZWZhdWx0IHByb2Nlc3MiPjxyZWN0IGhlaWdodD0iNzgiIHdpZHRoPSIyNjAiIHk9Ii0zOSIgeD0iLTEzMCIgc3R5bGU9ImZpbGw6I2NjZiAhaW1wb3J0YW50O3N0cm9rZTojMzMzICFpbXBvcnRhbnQ7c3Ryb2tlLXdpZHRoOjJweCAhaW1wb3J0YW50IiBjbGFzcz0iYmFzaWMgbGFiZWwtY29udGFpbmVyIj48L3JlY3Q+PGcgdHJhbnNmb3JtPSJ0cmFuc2xhdGUoLTEwMCwgLTI0KSIgc3R5bGU9IiIgY2xhc3M9ImxhYmVsIj48cmVjdD48L3JlY3Q+PGZvcmVpZ25PYmplY3QgaGVpZ2h0PSI0OCIgd2lkdGg9IjIwMCI+PGRpdiBzdHlsZT0iZGlzcGxheTogdGFibGU7IHdoaXRlLXNwYWNlOiBicmVhay1zcGFjZXM7IGxpbmUtaGVpZ2h0OiAxLjU7IG1heC13aWR0aDogMjAwcHg7IHRleHQtYWxpZ246IGNlbnRlcjsgd2lkdGg6IDIwMHB4OyIgeG1sbnM9Imh0dHA6Ly93d3cudzMub3JnLzE5OTkveGh0bWwiPjxzcGFuIGNsYXNzPSJub2RlTGFiZWwiPjxwPumBuOaKnuimi+epjeOCguOCiuaDheWgseWPluW+lyAob25fcXVvdGF0aW9uX3NlbGVjdCk8L3A+PC9zcGFuPjwvZGl2PjwvZm9yZWlnbk9iamVjdD48L2c+PC9nPjxnIHRyYW5zZm9ybT0idHJhbnNsYXRlKDI4OTYuOTgwNDY4NzUsIDExNTApIiBpZD0iZmxvd2NoYXJ0LVgtMTQxIiBjbGFzcz0ibm9kZSBkZWZhdWx0IHByb2Nlc3MiPjxyZWN0IGhlaWdodD0iNTQiIHdpZHRoPSIxODgiIHk9Ii0yNyIgeD0iLTk0IiBzdHlsZT0iZmlsbDojY2NmICFpbXBvcnRhbnQ7c3Ryb2tlOiMzMzMgIWltcG9ydGFudDtzdHJva2Utd2lkdGg6MnB4ICFpbXBvcnRhbnQiIGNsYXNzPSJiYXNpYyBsYWJlbC1jb250YWluZXIiPjwvcmVjdD48ZyB0cmFuc2Zvcm09InRyYW5zbGF0ZSgtNjQsIC0xMikiIHN0eWxlPSIiIGNsYXNzPSJsYWJlbCI+PHJlY3Q+PC9yZWN0Pjxmb3JlaWduT2JqZWN0IGhlaWdodD0iMjQiIHdpZHRoPSIxMjgiPjxkaXYgc3R5bGU9ImRpc3BsYXk6IHRhYmxlLWNlbGw7IHdoaXRlLXNwYWNlOiBub3dyYXA7IGxpbmUtaGVpZ2h0OiAxLjU7IG1heC13aWR0aDogMjAwcHg7IHRleHQtYWxpZ246IGNlbnRlcjsiIHhtbG5zPSJodHRwOi8vd3d3LnczLm9yZy8xOTk5L3hodG1sIj48c3BhbiBjbGFzcz0ibm9kZUxhYmVsIj48cD7lhaXlipvmrITjgavmg4XloLHooajnpLo8L3A+PC9zcGFuPjwvZGl2PjwvZm9yZWlnbk9iamVjdD48L2c+PC9nPjxnIHRyYW5zZm9ybT0idHJhbnNsYXRlKDM5ODUuOTMzNTkzNzUsIDExNTApIiBpZD0iZmxvd2NoYXJ0LVktMTQzIiBjbGFzcz0ibm9kZSBkZWZhdWx0IHByb2Nlc3MiPjxyZWN0IGhlaWdodD0iNzgiIHdpZHRoPSIyNjAiIHk9Ii0zOSIgeD0iLTEzMCIgc3R5bGU9ImZpbGw6I2NjZiAhaW1wb3J0YW50O3N0cm9rZTojMzMzICFpbXBvcnRhbnQ7c3Ryb2tlLXdpZHRoOjJweCAhaW1wb3J0YW50IiBjbGFzcz0iYmFzaWMgbGFiZWwtY29udGFpbmVyIj48L3JlY3Q+PGcgdHJhbnNmb3JtPSJ0cmFuc2xhdGUoLTEwMCwgLTI0KSIgc3R5bGU9IiIgY2xhc3M9ImxhYmVsIj48cmVjdD48L3JlY3Q+PGZvcmVpZ25PYmplY3QgaGVpZ2h0PSI0OCIgd2lkdGg9IjIwMCI+PGRpdiBzdHlsZT0iZGlzcGxheTogdGFibGU7IHdoaXRlLXNwYWNlOiBicmVhay1zcGFjZXM7IGxpbmUtaGVpZ2h0OiAxLjU7IG1heC13aWR0aDogMjAwcHg7IHRleHQtYWxpZ246IGNlbnRlcjsgd2lkdGg6IDIwMHB4OyIgeG1sbnM9Imh0dHA6Ly93d3cudzMub3JnLzE5OTkveGh0bWwiPjxzcGFuIGNsYXNzPSJub2RlTGFiZWwiPjxwPuips+e0sOihqOekuuOCqOODquOCouOBq+aDheWgseihqOekuiAoc2hvd19xdW90YXRpb25fZGV0YWlscyk8L3A+PC9zcGFuPjwvZGl2PjwvZm9yZWlnbk9iamVjdD48L2c+PC9nPjxnIHRyYW5zZm9ybT0idHJhbnNsYXRlKDIwOTIuNzYxNzE4NzUsIDEyOTEpIiBpZD0iZmxvd2NoYXJ0LURCX1Byb2plY3RzLTE0NiIgY2xhc3M9Im5vZGUgZGVmYXVsdCBkYiI+PHJlY3QgaGVpZ2h0PSI1NCIgd2lkdGg9IjE1NS4wNDY4NzUiIHk9Ii0yNyIgeD0iLTc3LjUyMzQzNzUiIHN0eWxlPSJmaWxsOiNjZmMgIWltcG9ydGFudDtzdHJva2U6IzMzMyAhaW1wb3J0YW50O3N0cm9rZS13aWR0aDoycHggIWltcG9ydGFudCIgY2xhc3M9ImJhc2ljIGxhYmVsLWNvbnRhaW5lciI+PC9yZWN0PjxnIHRyYW5zZm9ybT0idHJhbnNsYXRlKC00Ny41MjM0Mzc1LCAtMTIpIiBzdHlsZT0iIiBjbGFzcz0ibGFiZWwiPjxyZWN0PjwvcmVjdD48Zm9yZWlnbk9iamVjdCBoZWlnaHQ9IjI0IiB3aWR0aD0iOTUuMDQ2ODc1Ij48ZGl2IHN0eWxlPSJkaXNwbGF5OiB0YWJsZS1jZWxsOyB3aGl0ZS1zcGFjZTogbm93cmFwOyBsaW5lLWhlaWdodDogMS41OyBtYXgtd2lkdGg6IDIwMHB4OyB0ZXh0LWFsaWduOiBjZW50ZXI7IiB4bWxucz0iaHR0cDovL3d3dy53My5vcmcvMTk5OS94aHRtbCI+PHNwYW4gY2xhc3M9Im5vZGVMYWJlbCI+PHA+5qGI5Lu244OG44O844OW44OrPC9wPjwvc3Bhbj48L2Rpdj48L2ZvcmVpZ25PYmplY3Q+PC9nPjwvZz48ZyB0cmFuc2Zvcm09InRyYW5zbGF0ZSgyMzkwLjY3NTc4MTI1LCAxMjkxKSIgaWQ9ImZsb3djaGFydC1EQl9DdXN0b21lcnMtMTQ3IiBjbGFzcz0ibm9kZSBkZWZhdWx0IGRiIj48cmVjdCBoZWlnaHQ9IjU0IiB3aWR0aD0iMTU1LjA0Njg3NSIgeT0iLTI3IiB4PSItNzcuNTIzNDM3NSIgc3R5bGU9ImZpbGw6I2NmYyAhaW1wb3J0YW50O3N0cm9rZTojMzMzICFpbXBvcnRhbnQ7c3Ryb2tlLXdpZHRoOjJweCAhaW1wb3J0YW50IiBjbGFzcz0iYmFzaWMgbGFiZWwtY29udGFpbmVyIj48L3JlY3Q+PGcgdHJhbnNmb3JtPSJ0cmFuc2xhdGUoLTQ3LjUyMzQzNzUsIC0xMikiIHN0eWxlPSIiIGNsYXNzPSJsYWJlbCI+PHJlY3Q+PC9yZWN0Pjxmb3JlaWduT2JqZWN0IGhlaWdodD0iMjQiIHdpZHRoPSI5NS4wNDY4NzUiPjxkaXYgc3R5bGU9ImRpc3BsYXk6IHRhYmxlLWNlbGw7IHdoaXRlLXNwYWNlOiBub3dyYXA7IGxpbmUtaGVpZ2h0OiAxLjU7IG1heC13aWR0aDogMjAwcHg7IHRleHQtYWxpZ246IGNlbnRlcjsiIHhtbG5zPSJodHRwOi8vd3d3LnczLm9yZy8xOTk5L3hodG1sIj48c3BhbiBjbGFzcz0ibm9kZUxhYmVsIj48cD7poaflrqLjg4bjg7zjg5bjg6s8L3A+PC9zcGFuPjwvZGl2PjwvZm9yZWlnbk9iamVjdD48L2c+PC9nPjxnIHRyYW5zZm9ybT0idHJhbnNsYXRlKDQwNTAuMTA5Mzc1LCAxMjkxKSIgaWQ9ImZsb3djaGFydC1EQl9RdW90YXRpb25zLTE0OCIgY2xhc3M9Im5vZGUgZGVmYXVsdCBkYiI+PHJlY3QgaGVpZ2h0PSI1NCIgd2lkdGg9IjE4Ny4wNDY4NzUiIHk9Ii0yNyIgeD0iLTkzLjUyMzQzNzUiIHN0eWxlPSJmaWxsOiNjZmMgIWltcG9ydGFudDtzdHJva2U6IzMzMyAhaW1wb3J0YW50O3N0cm9rZS13aWR0aDoycHggIWltcG9ydGFudCIgY2xhc3M9ImJhc2ljIGxhYmVsLWNvbnRhaW5lciI+PC9yZWN0PjxnIHRyYW5zZm9ybT0idHJhbnNsYXRlKC02My41MjM0Mzc1LCAtMTIpIiBzdHlsZT0iIiBjbGFzcz0ibGFiZWwiPjxyZWN0PjwvcmVjdD48Zm9yZWlnbk9iamVjdCBoZWlnaHQ9IjI0IiB3aWR0aD0iMTI3LjA0Njg3NSI+PGRpdiBzdHlsZT0iZGlzcGxheTogdGFibGUtY2VsbDsgd2hpdGUtc3BhY2U6IG5vd3JhcDsgbGluZS1oZWlnaHQ6IDEuNTsgbWF4LXdpZHRoOiAyMDBweDsgdGV4dC1hbGlnbjogY2VudGVyOyIgeG1sbnM9Imh0dHA6Ly93d3cudzMub3JnLzE5OTkveGh0bWwiPjxzcGFuIGNsYXNzPSJub2RlTGFiZWwiPjxwPuimi+epjeOCguOCiuODhuODvOODluODqzwvcD48L3NwYW4+PC9kaXY+PC9mb3JlaWduT2JqZWN0PjwvZz48L2c+PC9nPjwvZz48L2c+PC9zdmc+;rounded=1;" vertex="1" parent="1">
                        <mxGeometry x="-10" y="20" width="4991.27" height="2141" as="geometry"/>
                    </mxCell>
                </UserObject>
            </root>
        </mxGraphModel>
    </diagram>
</mxfile>